<mxfile host="Electron" modified="2023-05-18T09:22:05.656Z" agent="Mozilla/5.0 (X11; Linux x86_64) AppleWebKit/537.36 (KHTML, like Gecko) draw.io/21.2.8 Chrome/112.0.5615.165 Electron/24.2.0 Safari/537.36" etag="OSEtKx-1U4g6Bz2CYBDn" version="21.2.8" type="device">
  <diagram name="Page-1" id="UltutfFByNq6mSuriLlQ">
    <mxGraphModel dx="3506" dy="1662" grid="1" gridSize="10" guides="1" tooltips="1" connect="1" arrows="1" fold="1" page="1" pageScale="1" pageWidth="850" pageHeight="1100" math="0" shadow="0">
      <root>
        <mxCell id="0" />
        <mxCell id="1" parent="0" />
        <mxCell id="xfuvCziJlvqx6FtmpvHw-17" value="" style="shape=image;verticalLabelPosition=bottom;labelBackgroundColor=default;verticalAlign=top;aspect=fixed;imageAspect=0;image=data:image/png,iVBORw0KGgoAAAANSUhEUgAAAv8AAAHICAYAAADZbIWqAAAABHNCSVQICAgIfAhkiAAAABl0RVh0U29mdHdhcmUAZ25vbWUtc2NyZWVuc2hvdO8Dvz4AAAAudEVYdENyZWF0aW9uIFRpbWUAVGh1IDE4IE1heSAyMDIzIDEwOjE3OjAzIEFNIENFU1SxjVYKAAAgAElEQVR4nOzd53rbyNIu7KcBBgCkcs6kom05SLZsj7336XzvQa2zeM9hr5lxlrMVqZyzRDCjvx8gHRUYAKIB1L2u+bM8Y1EkCFR1V1ex9fV1DodxAKt7WcxtpWEYTr+am0kMGOwIYaJPgcScex2MOfjDPer4ooBXizoKhgNfi2s/Tvs+awagvTGA6biKgEzXlAgKBsfLBR3Hybx5gyRFV78ZP/+JFpIwFdfQHJHteRXcHx8K58DcVhore1n45FcWkiQBdwdV9LYGbXwSiG37OIcPqylXxIhuIDn9AgAz+BjqCCHWEYbo8awsMdwZUHGr39nAHzAfQH55CNVLS1TGVFyF5MQ3g//0z7V/aN1nXkpkH41oFPgLRJYYZkY1NGn2BK/uc/11//OftEYC+GsiQoG/BRgDJnoVDHWEhH82e1VAZng4rKHPx4E/APS0BPEgpjnzbPYgYd5GxoCx3rCZ2Qp6hashCY/HNAy0i/UlpCTAWp1NAdwdcCgBKLkx1q89GZAYMNGn4I4AiSz5U1BmeDSsIar4PQG4Pugv/SkDQ29LEI/HNChB67+8fr3PMgbc6qMEwAlaWMKTMQ0djQGnX4oQupsDmI5TAmAFod5CiQGTAyraGsS60BkDOpoC+L+3I2ixaTXJCn58MNmlty2IiV6BguKKk4HrrwVZAh4Oa4h30gNdZEpIwqNRDWpIqFt1nVx9Hf/+JxIY4p0h3I+pkG340vr93lpKAAbb6X5RL00RGY9p9+8PnU0BPBzWbPme+4lwTxRZAu4NqoiqYrw0iQGxzjAeDrujLMKvq1NWK5WixbsELUUrK9a//F9qUCT8n4kIOpvESrLJ5SJhMwEIBUS8EO1QfokPAEiM4VZ/GBN9YUg2fFnpfmpiDLjdr2CAEgB7FRcbn4xp0MJixEGi6WgM4NEIJQC1EPLKUkIM94dUBB1+2MkSw+SgWnyoOPpSKkZJQO0YA0Z7wu5Z7bohGWBg6GoK4PmtCKIqrSa5SaMq49GoOxYgqndz0P/7n8qMYSqmYqgjbHkDBLqH/okx4A4lALZhDOhrCZqLjW4LOuqsrcHcGaEEoDpCBv8A0KTJuD9kzxZuObSwhKfjGvrbxKrvrxQ9vGojMeBWv4KelqDTL6VyPyUCpbKI6bhz3ylSmVLwWfqnWZPxcESD5MnPr7KgHwDUoISn4xF0t1h/Tozum1crJQD9bZQAWIkxc7f57pDqusVGp7REZTwZ8/qiiD2YCK0+r8IBbBzk8GWjfu2dGDO3lKbiGmRhU6PqUGvQ6hkG8DahY/807/RLqZgkseJqXZCuAcGVE3Tun+bxNqF7pOXd9b/vVX/aEjFb0yoWn4WgoL98nAOf1tPYPKQ2oLWSJGC0O4xhUctMBXeWMvBqIYlsni7Ecgkd3jIA/W1BjNTpCyFJwHBXGNPD3gv8AdrGroUkAVMx1bb2gXYJBRhmRrTiNj09VUTz++p+OTqaAh5oeVd5iQ9gPhN6moN4OqZR4O8wxoC7Awr6WoN2jiHxPEkC7vSrFPjXoFE1dwGVIL2B5RL+8cEYMNwdtr3GUJYY7g6qGOt1X31/pSgJqE5AZpiOq4gqwn9tAADNERnPb0XR3high4ogqgn2L9PdHMDdQdWFn2t1QT9glq7FOsN4EFctLX2i+2H1GDOHT/VTAlAVWWKYihXbh9P7V5OoIuHJeAQqHZIuiyveJanYZcCu7iRRRcJf4/4bokEPvMopIQkP4qrQnVcYA3pbg3g6HqFuEQ6zKti/TF9rEHcGFJcEDdUH/YDZ0Weiz/qOPnQPrF0pAehroQSgEuGgOcivq5m6rlklEpbwdExDxCULdE4Suub/d7kCx+tFHSfJgiV/H2NAV3OweLDYkr/StagkpDKH53m8XhKv7poxYKQ7jNHuX7eQ6fO1n1OB5MpeFt8204LWXVdX0/8ziTE8iKnobrZudZSCfutxDnxcTWHzOGflEHJPalDNSfJu2UV2m0yO49WijvOUNbGiF7kq+AeAi7SBV4s60tnaoq5Sff9It/fLfCpBQWL5dk5yeJ9IwRDkGyRJDHcHizW4ZaLPu3KiBY6cA8u7GSxsZwRKAGoP+gFACUqYjqtoiVq3Oira5+clnAMfVlPYogTgSm0NAUwJvnvsBbkCx8sFHWc6JQCXcV3wDwCH5wW8WdZRKFT30mWJ4d6QYraIs/i1eQUFhTfjADYPc/i85nwCoIQkTMVVyyZQ0+fvriCRc2BhO4PlXacTgJt/eLkvrzkiYzpu3XRjN32ebsY58H41hW1KAH5RqjR4EKNWnvWSNzheLVhXLeIlrgz+AWDrKIdPaykUKtwAaFBlPIipaBBkgrDoKAi8Hudm2cXclnNlF60NAUzFVITr3OnA7deG14JBzoFvm2ms7GWd+OkW/BsmBjNImopZd7DXa5+16DgH3q8UEwACxoCB9hBu9ysU+NdZwQBeLyZxdEEJwM9cG/xzmEHX/Fa6rLprxoDu5iDuUX1/xdwe5NmNc2B+O4NEnVddGQP62kKYHHDXA8WOSazExDnweT2N9YN6JQDWBf2A2dFnsDOEW71hSwJ/ujacwzkwu5LCjs8TAKnYsfD3c1ikfgwOvFnScXDmvjk9dnFt8A+YN5e5LXOl67p7vCSZhyDrNS/AqygJuJrBgS91DLokBoz20FAY8iejePBy68jOoMuamv6fSYxhvDeMWGeo5o4+FPSLwSjuAPg1AZAkYKJXwVAHTUN2msGBt8vuHNRpB1evgTMGjPcq6LlmvLssMTyIaZR1W4D6YV9NYsCdAfNatP1nScCDmIoRuqbJJSQG3BtSbWghyH/65/p/o1ISY7g/pCJOgb+nSAzfOzX5jSSZ38OhTgr8RSAx4OEwtVYtcfXKf0nBMLd0Ds9/zegaNbO+n9pp2YN2Av5kGMDrS65Fq2hhs/tJo+auScOk/gwOvF3SsV/zVre1pT2/U4LmYfXWGjv6UNAvLoMDswkduyf+WHUNBhimYiraGynQFI3fd6NKPBH8A0Aqy/F6MYmLtAHGgJ6WIO4OUn1/PVAS8Ktc3uwxfGpxi7H2xgCm4yoCMr3fpDyGYV6L1R12szfoB4BmTcZUXKtpGB0F/e5gcODdso49j5ddRBQJUzFaoBHZ99JIH3ek8kxorIYY7sfM3rljPWEa3FVHVA70q2CAYSquWjZdlzFgqCOERyMaBf6kIpLE8GhUQ1PZgcjNpT0o69+4HoPZgOGvGqdQ033HPSQGTA9r6Gzy7mp4c0TG49EIBf6CK5VG9rf6dyq1p8LjqCKjpzWIWCfVQjuBkoAftLBZylBrsM4YcKtPoRZxpGoBiWFmVLuh/LH8gL/WbziDmczW0sqT7jXuVEoAOrxWDsOAzqYAnoxFoIboRu0GEgMmB1UMtPnzTIZngv9TvYD/frvA2r456t7poUt+Rg9mU5MmYzquQqryWyZL5gGlGB0YIzUKBRgejWjQwj9fSPVZ5f+ZxBgmSslsFYE/3VvcT2LAwxHNM/XwjAH9rUFMD2tUbeAyEgMmBxQMtvvvGev6S5UD2DzK4cW8jmTaAOfAxkHWnHTp9IvzOXpQm3X694cqn+jYoEp4fivq6S1yUl9aWMLDYa04DK68en4rv70/d/Sp9JwQ3Uu8RWLAIw8kAIwB8c4w7g7S1F63Ygy43e+/dqyuDv4NDsxvZfBpNYXCT0v9BgeWdjLYOPD3aW5R+P3B3d0cxO0BpewbS1dzAM8mItSliliuQZWvPTtiVWnP78IBCU9GNfS2BisK/P1+7/AytycAkmS2Gh/vpTJjtyuV18Z9NDfHtdFF3jA7ByzvZi4t8TEM4OtG2vOdBdyk9CD328OcMWCgLYSxnutvLIwB8a4QpuIaZFpGIjZp0mTMjGi/9NO3I+D/+ec9m4igtaH8IM+P9wk/KiUAbRVcGyKQJGByQEW8y1+rxV7GGDDeE/bN/BxXBv8nyQL++/XCDOyveT4UDI6PqynLWy6S2vnt4c4YMNxlTi+9TGlI2EQvHewl9muJBvBwRANjzLagnwHoagriWYUdffx0XyDmvW9mVKsoOXSSLDFMxzX0twX92ijGsxgDRrvDNy7UeYGrgn/OgY3DHF4u6NAzRln/TTZvJgCZHD1QROSnJMCcSB1Gf9uv0y6DAbMdox8PHRHndBTnRtQ6UfcyDMBgRwjTw+V39PHTvYD8SmLA41ENLVGxW2QqIQmPx7zdrtTvGAOGu8MY9/hCnGuCf4MDc1tpfF77tb6/HOcpAx9WUyiUly8QB/jlwS8xhskB5fuI8aaIjOcTEbS7ZNWLeEtnU7B4IN26p5zEGMZ7S+1pb/57/fLdJ9eTGPBkLCJsAtCoyXgypqElIubrI9ZhMEtwJ/q8mwC4YsJvrsDxPpHC/vn1ZT7XYkBfSxB3q+i8Qpzh5cnBBYNjbjODib4w1fcTR5k7qll8Xk/DqDEIlxjDvSEFvS03H+ylgJ9cxuDAy4UkjquaSm0DBrQ3BDAVVxGkIYu+wgGs72fxdTMNw2OLx8Kv/B9fFPD/viaxf1ZD4A8AHNg6zmFhOwN65riDV1cEDc6R2M1i+ziHZNpjdxTiOowB/W0h3OpTINVQxRwOMDwe1dDXenUrT78e+iflM0uAImgWYIWdMaC3JYhHIxoF/j5UKl+801/9vB4RSZLAwT/nwPpBDi8Xk0hnrQmQOAdW9jJY3c/SDAAX8VKwYBgcn1bTWNjOIJs3MJtIIWXR9U1ItRgDhjqCZtvCKv77RlXGs4nolV1bvPQdJvaTJbMEyMkEgDEz8KtmTgvxloH2IO4OeCMBkCVz3oqQv4rBga+baXxZT1m+1WIYwPxWGjvHNAPAbdy+apjOGnixoGPjKIvSNlYyU8BsIoV8wZ2/E/EOxhhiXSGz1V25/w2KHX0mLu/o4+bvK3GWLJmHgJscSAAkBoz2hHG7r/z5LMTb+tqCuDfk7gQgIDNMxVX0tATFq/nP5Dk+rKRwUEt9fxlkibmiuwC5nlvOBRyd5/EukUImf3k229EYxMNhler/ieM4N8+jJPaun5LOAAy2h3B74M+DvRTwE6vkChwvF3Sc1alltySZA58GO0LUypP8Yeckj/cruuvOAISDDFNxDa3FmFeo4P/oooDZhF63tpxaWMLMqIZIBT2oibhETAQ459g4zN14mJIB6GkJ4n7MntaLhFTC4Bxf19NYO7i8RFICMNarIN4V+nVYGAX9xAbZPMerRfsTAEkCHgxp6G6h7mvkanunebxLuCcBiCgSHsRUNGk/FruFiHo5B9b2s3i1mKxrP349Y7YAvWIxlriMaCUGhsExv5Upq4sKB7B9nMfXjbRQvwPxJ4kx3B5QzMO7l/zZvSEVw8XA3+3leER8oeJh8gbVvp36UIBhZiRCgT+5UWdTAA+HNVeUADVqMh4Na78E/oAAwb/BgS8baXzZcKaV0slFAR9XU6hwdAARmAjBSMHgeL+SwvJupuz2iRwc6/vUkYqIQWIMdwcVdLf8GEoXks0grLfV/P8o4Cf1EgowPB7T0KBaH7ZEFQlPxiJoa6AyYFKejsYAZkbETgBaozIejWiIKH++SEfLfjI5jtmVFI7O8069BADFU/3tIdzup8M9XlavsqBk2jzEe5qqbotaAsNEXxixTu+PGCfiMzjH2+UU0lkD03H10oO9hNRLJsfxcjGJi5Q1q4WtURlTcQ3hIN1sSeWOLwp4tahXPHzWVsxMTqZiKgJXtKh1LPg/OM/jfSKFbF6MN4wxYKwnjOEKOl0Qd7IrCeDcvK5nEzpyNXbvKa26mj3TLXqBhFSBc4690zxkidHKKBFCOsfxaiGJixrmpDBmlm9MxTVq5UlqcqoX8HJBF6JrH2NAd3Pp/ODV/17dl3DMXvtZvFnShQn8AfN1Le5ksHlILUC9zo6yIM45VvfN67rWwB8wV1s/raWxd0rXI3FG6TuydpDDu2Udb5Z0nCQFmbpKfE0JMjwejVxazlCO0mC7aQr8iQWaNBlPxzWEAs5eTIwBfa03B/5AnYN/gwOf19P4JuioZMMAvqynzGnCxBesSAQMg+PrRgbfNm4+2FvR38s5ZhMpHF3Q9Ujq5/t3AsDCdsactwKgwDneLOk4t6jcgpBaKKHqEgDGgHhXGJMDVOZLrNOoyng6HoHiUPmYOagxhMnB8obS1S34T2U5Xi4ksX6QFfowY8EAPqykcFZlvTZxr2oSgXyB420ihdX9DAwbBlMUignAOV2PxEa/X/ucAx9X01jaKfb65+Y/2TzH6yUdyQwlAMR5asg8gF7uORSJARN9CsZ76DwVsV5UkfBkPAI1VN+iGokBw11h3OpTyt7Jqssr3D/L4/99vcDxhTsCmGye48NKuq5tR4lYykkEzvQC/p5LYu80Z+c8OqRzBt4lzAOXhFjlqms8V+B4taRj66i4UPPbxZ3OGnizpCNN90ciADUk4fGoBvWGBECSgLtDKmKddI6K2CcSlvB0vPyEtFaSZE6jHqswobX1wG+pvn9+W8wyn5u0NwbwaIRqAsmfdk/yeL+SQqGO21gtkQCejGk0BZhU7aZdrfOUgXcJHckyDlI2ajKejGkIXtFNgpB60jMGXi7oSF2ySBKQGabiKjoaqYc/qY9MjuPVYtLWMsnv06jbK09obUtNDA58WkthbsudgT8AHJ7n8XmNZgCQHziAxF4Ws4n6Bv4AcJzM410iBYMuSFKBcsvZ9s/y+Gc+WVbgD5g7X2+WdLo/EiFoYQmPxzQov5VcqGEJT8Y0CvxJXYWDDE/GImjU7OmQJknA5ICKwY7qdrJsWfnXMwber6Q80RmidDiIagQJLw6kWz/I2lrmcx0GoK81hLuDCiTaASBXqPQA+/pBzjzYW8WF3dYYwOMRje6PRAjJtIGXizrSWQNNERnTcbXuNdiElOQLHK8Wre2UJksM92MqupurT2gtD/73Ts1yCBH6nVrl+9ZKx5+j7ok/5ArmwdvD87xjgX8JAzDUEcat/jAkirhIUTUdqziAxe2MebC3hgu7NO6eLkcigvO0gcWtDO4NKVcOOSKkXgwOvFxIWnLu1aoSNsvSYc6B5d0s3iXEGHRgJcMA5jbT2D2hlot+dKIX8N9vSRyc5X8cgLzkIGS9cACr+xks72QtnVVA3OXncp6qAn8OfCp19KnxMiot+tDlSERwrhegZw0qSSNCkBjwZCyCtobaAnYlJGFmxJoSNkuCf4MDH1ZTmHdxff9NSi1Ajz1QykTKt3Wcw4t5HamrWhs6lAyYK7ZprO3nKAHwiVqD/Z/lDeD1ko7NI+taL++c5PBpLe34zhjxr1KTkY+rKZzpBbxaFGuYKPEviQEzo9UH7hFFwqMRDS1Ra84Q1Fz2k0wbmF0xv2h+oIWlivoKE3fiAJZ2MljaztS2emTzjrPEGO4NKuhtDYJRzYWn2JXUXaTN1rEXNsyOYAwYbA/hzoBi+d9NyHU4BxZ3/ixho65URCQGB94ldOxVUEnSFJExFVMtjTtrCv6/tzv02d5aS1TG49EIZIr/PanUqWrrKGdtGYNNzx6JMTwcVtHZFLTnB5C6qMcOzsGZ2THKztJMxoB4ZxjjfWE6I0XqgnPgy3oa64eX72Q1aTIeUwJABGFw4P1KCjvHuev/RQa0RQN4EFMRtnhycFXhK+fmqujsiu67wB8Aji8K+LBKLUC9KJ0zJ1FvHloc+AN/lghZ9PcbnOPdcgrHF3QmxU2sLOMpx8ZhDm+W7D+TxTmQ2MtgcTtj688hBDADqdmV1JWBPwCcFkuAvHYekbiTxIAHMRW9rcErFwUZAzqLs6asDvyBKlb+DQ58XE1h+9iG4MhFGAMGO0K43adQhwuPOLooYDahOzvZuYZrSQma/ayjij19hUn1nDyXwQEsbWewaMHB3kowBoz3KhjuCtXvhxJfyeTNLmxH5+UtfDRHzB2AALVJJgLgHPh4SZUBY0BPSxD3hlTbhsxWFPyfpw28T6RwbkOtqBtJDBgtPtzoVuJuG4c5fF5PiXdgvcILq0Ex61tDAUZnABwg2uFrzoHP62lsXLMqaifGgNv9CoY6KAEg1rpIG5hN6BVPUG2OyHgyRmW7RAy/36MZA/rbzHNTduaoZQX/HMDOcQ4fV9O+LPO5jiQBdwdU9LVRvbUbcQ4sbGewvFvfVdGa3HBDaI0G8GT0+p7rlBjURrQg/zIFA3i3rOPgPO/otc2YOYlyoJ3ukcQaRxcFvEvoyFa5S0vn9ohISgNENw6zGGwP4VYdKkpuDP5LJ+iXdzPirYoKQpKAR8Ma2ml8uKsY3GzfunPikRK2n24W3c1BTMXUqm8gfk8O3BDcX8dcFRVnl5YVa1x7WigBILXZOcnj/YpeczzSEjV3AKgCiIjAKJ6lHekO1+WavDbvLRjmQZqlHQr8r2MY5pyDSrcfiXP0jIF/55LeOrvy00Hi3ZMcPq2nq/7dfj+Met0/buLF3+l3B+d5/DOXFCbwB8xFpA8rKeye0qF0Uh0OYO0ga0ngD5iNO14tJKlxB3Ec58DClrnIvrqXrcuslCtX/s9SBt4ndFykKaAtV6Mm4/GoWW9NxLV/lsesze0ORcAYEOsMY4JaLvrGxmEOn9fE7UQmMeDRCO2SkspwDizvZrCwbX15ZmtDAI9HNdoBII4wOPB1I431gx81/2M9YQx32/vc/mPln8OcavrvXJIC/wqd6dQCVHSr+1m8XfZHyzdz2mUGid2s0y+F1MHiTgafBA78AfNB92ZZx9GFOLsSRGycA98207YE/gBwdJ7H60Vd6O8N8abSTKFS4A/8OIe4aNP1XvJL8F/aevjow8FdVjk4y+PzWvXlFsQevJhdf91I+6qEjXNgfiuNtYMbhokQ1+Ic+LSWtv1hYRXDAN4s6Tj1yVR4Uj3OzZLa1X17u1UdFhMAN3x/iDcYHHifuHyYaGmW1ryN9/TvwX/BMEcOL+9mKAOuAefA5lHWtlUKUrmCAbxd1m1/gIiKc+Dregrbx1Rv7TUFw1xJd6qVZ7XyBY43S1RWSq5Wuka26nQu6/A8j9dLtANA7JcrXts7p1df25wDid0M5rbsWUxm6+vr/FQv4P1KCkm6EVtGKva3HuigGQBOOk+ZvaApyAAkiZn11g00BMwLkhkD75bF6ehTDS1sDqZTQ9RzkfygZ8xuVU7sDrU3BjAzcn2rZEKqlcqa1/ZJsrxr266Bsuzf98v88xr177eDJAEPYhq6m+lwmxN2T/KYtagzhFcEZIYnYxqaNEoA3Ozw3Oxznsu7/74dVSU8HYtQowQCADhJFjCbSCGVde7G3dEUwMNhOgRMrFVtC2bGgIH2EO70W5cASJ9Wqb7fLoYBfFwtP8Mj1uAAEntZzCYo8P9dvsDxLpGC7uCDldRm8yiH14tJTwT+AHCRMvBmSUeBLknf2z/N4+WC7mjgX3od75bpDACxzkmygDdLelU7tZwD6wdZfFpLWXZNShT32ytf4Hi/4uwqhp9wDnxeS2NuM021m1dIFctF/NDxyGuWdjL46MGOYifJAl4vUbDlZ5tHObxN6MIsRu6d5vE2Qdckqd3heR5vlnTomerjQM6BjaMcPqxakwBQoWUd6BkDH1a898AWTS7P8WrJfYcfnXCmF/AuYd0qArEXB/B53b52hyI4Os/jDa22+g4HkNjN4tNqSrid2r0TSgBIbXZPzYPkWSt2ajmwdZTDewviSQr+6+QoWaAEwEYnyQL+O5fE4VmebtRlOjjL4/0KJQCiKxjA2yX9l17QXrV/ag7g8/ivSYrMVsRmRxNRn417J3laKCEV4zADdTvKj7ePzb+3lmuSgv964cDOSQ5zmzQDwGpbxzm8WEgiVcOWml/tnOTweT1NwZag9IyBf+aS2Dv1T1K7e5rDx1VKALyOc+DTehqJXfF3s3ZPcpilhRJSJg6zRv/jmn27Wbsnebxdrr41LQX/dcQ5sLafRWIvSw82C3CYU00/rIi3XewWnAMbh1nMb2XomhTM4XkB/8wlXd3Ksxq8uLX9ZY2SUq8yuDlXyE0lmjsnOdopJTfiHFjZzdZloOjeqXmWoJoEgIL/OjM4sLCdxtYRTVytBedmJyW3TDUVWWmYyMpu1umXQopKHX0sqRN1Ic6B9cMsvm1QAuA16RzHy4Ukdk/ycNWHy4FtSgDINTg3FyTnt+wP/EsOzvJ4tZCsOAGg4N8BhgF8Wkvh8JwmrlYjneN4sZDE5mF9Jj/6AefA3FYaG4eUlDqJA1jayXqyo0+lOAdW97NY2Mo4/VKIRc5TBl4uJHF84dLdLG7WW1vVcYV4R+kZurSTqfu9++iigBfzSeQr+MEU/DvEMIAPq2mc0+TZihxdFPDfbxfufXgIzGyTmsLOCSWlTuAAvqynsbBN54JKOAeWdzNY2qGyNLc7PM/j5UISSQ8887YoASA/4dy8d6/sOVfGdpIs4OW8jlyZLbwp+HdQOmvg40qq7A/LzziAjcMcXi0mkc3R+2UXgwPvV3QcUXJVVwYH3i77o6NPpTgHFrYzWNmjsjS32j7OWdfuUATcTAA+UgLgewYHPqymsC7A+ZVTvYAX8zoyZcRIFPw77FSnFqA34RxY2Mrgk40n58kPhgG8W9ZxnqI3ux6+d/Q58U9Hn0pxDsxtprF2QAmAm3CYpVuebMrAgc3jHD5aOHWVuEvBMA+ubx2LU4J8nirg5UIS6ez1L4iCfwHsn+XxZZ22+i9jcGB2JYVlF7SD85JsnuPdso407bLY6uiigH/mkzjTxdxp+Z+Hk/ifh5NOvwwAP7bWN6lZgitwDixtZ8yuJ169jXDzcP4nSgB8J5vneLOkY+9UvIPrF2kDLxaS104UpuBfAKV2i4s7FOD+LFlcEd0RKKv2k2TGwNtlHQWvrdgJYusoh5cL4pax/Rz0i5QAfFqlcymi4xz4upH2xzONAxuUAPiKnjHwekk3m7YI+pnrGQMvFnRcXHHGhoJ/QXAOLO9kzLoxp1+MAPbP8vj7m7gron5xmgY+U1EAACAASURBVCzg7TKNt7cSB7C0mxX6wOBlwb4oCYDBgfcJHftnlACIiHPg/UoKa346v1JMAD7TDr7nnacMvFnScZoUPzZJZ80dgMtKeCn4F4hRXC3Z8/GqVqlG9O2SjjwdhBbCwVke72niqiU4gK/raSxsiRskiBLkX8fgwNslHYfn4j+A/SSX53i1qGP7xIe7tcUdfCrh9a7jZAGvl65eTRdRNsfxYj6J098WUtl//vczXaaCCcgMj0c1NEdkp19KXXEOfNtMY3XfRytGLsEYMNAewp0BBczpF+NSvDjVdO9UzIO95Qb9/3n72eZXUj5ZZng6pqFJ89e9UkTJtIHZlZTvd2u/3yv7FTC6WXrGwVkeswn3dmeUJYbHYxpainElrfwLKF/g+LCaQuqG09peUjDMVocrFPgLiXNg/YAGLlVLz5rnV3YF7ehTyWq/SDsDhQLH60XqTOW042QBLxd13wf+wI975ZcN2gHwip2TPN4sl99DX0QFw5ysXdotpeBfUMm04Zspn+cpA39/uxDy1Dz5oTRwKUH91ityfFHAv3N/bruKoppgXqQEoNR147rOFsQ+u6f5YmtBev9LOAfWDrL4SgmAq3GY3Zzer+ieaFVrGMDrpSQOzvIU/Ivs8CLv+SEiuyd5/D134aoaOj8r9VvfOKR2i+XYOjY7+pQzdMUJtQTxIiUAqax5CE/U99mrNg5zmF32RmBkuVICsEkJgBtxAGv7Wc/NFzIM4M2yTsG/0Lg5GXFO4MOB1eIAErtZzCboweE2nAOf1lLmTg25FAewvJsVeoCfFcG7SAnARdpsv0eNAuxXur4/rYl7fYuAczOA/EYJgKtwbsYn3zbSnoxPDIPKfoTHObC6l8XKnndagHIOfF5LY27Lw8NfPK50ePX4QsxSFidxmF275gVO2q0M2kVKAM50sxsH3VfsU9r9E/n6FgnnZge7ua20Z57hXsY5sLiTwbzH4xMK/l3A4MD8dhrbHphsmS22gls/pIO9bmcYwNuEu9qe2Y1z4N1yCmuCHly3a2KvSAnA8UUBb5ZoNoUdSrt+K3tiXt+i4hxY2ctibpMSAJGVOg4u+WA4HQX/LmEYwMe1lKv7Wp8kC/j7W1LoqXikMtkcx7tlHWmqtUYqa+Cf+SR2Be1xbneALlICcHCWx9sEJQBWKnVk2zgS8/oWXSkBmN/M0ONPQKXE1i+txin4dxHDAD6sply50rp1lMOLhSRS1BHCcy7SBmYTOgo+/miPLwr4Zy4p7NTHegXmIiUAeyfF4XQ+eJDbLZU12wRSR7bacA4k9jKY3/L+yrKbGMWp1Js+Smwp+HeZdNbAh1X3DJrgHFjczuDDqrdOzJNfHV8UMOvTldbtYzOxFbXTTL0DcpESgO3jHD6t0XTqWpzqBbxcSOJE0MTWbczDpBksbNMOgAjyBsfbZf9Npabg34VOkwV8cMGKFufAx9UUFn1QP0eA/bO8eV06/ULqKLGXxfsVcb+LTgXiwiQAHNg4yuHrOtVaV+PgLI+XCzRDwWqlmSkLW5QAOCmT43izqGPfhztaFPy71P5pHp/Xxe22kM5yvFhI+mobze94sTXt1w3vB1qljj5zArfwczoAd/rnf1fst0611pXZOs7hDbVOtU0pAVikHQBHJDNma+Ajn3aso+DfpTgHNg6z5ql0p1/Mb44uCvjv3AW1gfShUl/rpe2M0y/FNpwDswmxD4aJEniL8jpKtdaLHr4urcJhtqYUeUaFV3AOLO1QAlBvp7rZEexM0Knr9RBw+gWQ6pVuHOGghIH2oNMvBxzmxMcv61Tf72elPsnBAMNQR8jpl2OpVJZjNqELW/8sSrD9s/95OIn/vP3s9Mv4fr8MSAzxLm9dl1YpfXf90OpQFKXrkjFgtDvs9MvxvKPi+TRRz2jVC638u5zBgS8bzk9b5RyY38rgs8dGYZPqcG6WxWx6YDZFyXGygH/nxD34KGLgXyLKa+McmNtKY3U/6/RLEQ7nwJcNf/Q4F02pMYaIO/lesn+ax5slCvwBCv49odQC9NShLSyDA7MrKSR26aFBfigd+N53ODG1wvZxDi/mk0jnxMxsRQmu3aCUmG4ceicxrRUv3sPXDsQtZfM6zoGF7QyWd6g0zQ7bxzm8TdAZlhIK/j0il+f4sJKq+7ClZMbAP3NJ7BzTwV7yJ86Bd4mUsKvl5aCOPtYQ6XWWBvpsH1MCkM1zvFzUsXOc813HE9GUEoCl3Sx9FBbhANYPc9Ru/DcU/HvIRdqo6yGt/bM8/v6W9PWhGXKzgmFOAU66rF0gdfSxnkivlxcH++x6YGeqWhdpAy8Wkjg69+97IBrOgYWtNBK7VJpWKw5gdS+LL1SO/AcK/j3m6CKPjzbPACh1g3hLbeBImdI5c5BKNu+O64WDOvrYRaTXzTnwblnHgQ+D3+MLc3jXRYqiItGYZ+goAagF58DyTgbfNtPUteoS7D//+5neFo9hDIh3hjHeGwZj1v7dnAPfNtNCB0VEXK1RGU/GIpZfl1ZK58ydClFLlUQKnmshQgegEkkCnoxF0BKRnX4pdbF7ksdsQqegSHCMARN9CuKd1J2qEpwD89sZOod4DVr596BST+uVfWvrBgsG8HZZN/9e+kKRKhxdFPA2oQtbz3qSLOAf6uhTFyL9LoYBvFnUceaDVfD1gxzeUeDvCpwDc5vUnaoSpa5VFPhfj4J/j+IcmN9Mm4e4LHCeMvD3twuzpSh9oUgN9k/z+LSaEu4y2jnJ49/5JNJZMQNAkYJlq4j0O+UKHG8Wk0imxfz8a8Vh9pP/vC7u4XXyp1J3KkoAbsY58HEthXXqWnUjCv49zOBmC9Bax1fvnuTx99wFLjz6UCT1xTmweZTDt420MAnAyl4Wswld2AeGSEGy1UT63dI5jtdLOlJZQS+EKnEOfNtIY2GbVkPdiBKAm5Vajm8dUefBclDw73GGAXxYSVXVaYVzYHnXDIropDyxEufmoXGne1pzmGdYvlFHH0eJ9DvqGQNvlnTkXHI4/Sa8uAhE57TcrZQArB1QAvC7XIHjzZKOnRMK/MtFwb8PpLJmC9B8BUWenAOf19OY36KT8sQepZ7WTj3MOID3iRQSe+IGRSIFxXYT6Xc9TxXweklHweWLHnnD3MnYojksnsA58GWdEoCfpbNm4H9wRiXJlaDg3ydOkgV8KHNQUTbP8WpRx/qhuEER8YbSw6zew5YyOY4X80nz5wp6jYsUDNeLSL/zSbKAN0viloLdRM8YeDlPQZHXlO6Z6wc0oO4ibeD1ko7jGkub/YhaffoJAwbbQ7jTr1zZavEkWcBsIoWUoIceiTcxBsyMaGhvDNj+s071At4up+hgr8BEagPa2RTAw2FN6Pa0vzvVC3i3TPdxL2MMmBxUMdAWdPqlOOJUN2MV3WXDI0VBK/9+woH1gyyWdjOXLgRtHeXwYiFJDwxSd5wD7xIpnNo8LXrnJI9/5qijj+hEeh/2TvOYXRGvO9VV9s/yeDGv033c4zgHPq+lsHHovx2Aw/M8Xi/qFPjXgIJ/n+EcWNrOYOOnLUPOgcXtDD6s0ghs4px8gePdsn0rOav71NHHTUR6P3ZOcubkdKdfyA02j3J4s6SjQAe1fIFz4JPPEoC90zzeLKVcMy1eVBT8+5DBgS8bKeyf5c2+uKspLO5QCzjivFTWwLtECrmCdRcjBzC3mcHXDero4zbCvC/F9rRf1sRpT/u7xF7WTFBEfYHEFqUdgM0j7ycAW0fmgDpKbmtHwb9PGYY5OXB2xbxp0AODiOKsWK9sxTXJudnqdnlP3ORWmABXUMK8PxxYP8zi20ba6VfyCw5gbiuDOYHb1RJ7GcVFvC2PJgAc5mTqj1SdYBkK/v2IAW0NATwZi2CsJwwl6KKTbMQXDs9rr7PO5DheLCTNB6KgQZEwga3gRHmfSvMp5recnU9RYq76ppHYFTe5JfXBPZoAcJhDGD+vp6jtuIXsb61BhMIY0N8WwuSA2fEnFGC4H1PxeokGeRGx7Jzk8HmN4e6gUvF/K3q3E1GCWVI5c/hhBrIEjHSHHX0d7xI6dk+plScxGcWBbowBPS3u7wLEObC4k8ESlSVbjlb+fYQxYLxX+R74l7Q1BHB3UHVVKzviA8Uyi7kKV1l3ix19KPD3FpHet9KAupU9Z4YtlXa1dk8o8Ce/4hx4v5Kq++wUq3EOzG2lKfC3CQX/PiFJwFRcw3BX6NIgv7c1iIneq/v/E+IIDiR2M1jeLS/IWt3P4h119PEskd4/zoFvm/UftnSeMvBiIUmDjciVSmeddo7zTr+UqpQGma0IPH3d7Sj494GIIuHZRBTdzVdXeTEAsc4QhjouTw4IcQrnwPzW9UFW6dAjdfTxPpHeR86Bz+v1q7M+PC/g5UISybSYu1pEHAYHZld07Jy4KwHgxdKl9UMK/O1Ewb+XMXM65f+5FUWjevNHzRhwq09Bd3PQzAYIEUQpyLrsQfa9o4/Ahx5FCli9QKT3sxSs2B1kbR/n8GoxSf3NSdk4B94ndLM8zAUKBvA2oWPrmDoQ2o2Cf49iDIh1hPBwWINcwafMGHA/pqI1Itv34gipAufAbELH4fmPB1k2z/GSOvr4kkjva+na3D+zJ8haO8ji/Qr18CeVM4rX5t6p2AlANs/xZqn4Ouk6tx0F/x4kMeB2v4Jb/dXV8EvFBCCi0OVBxMI58G45hbOUgTO9gH/mkjgSuPZZpADVi0R6fzkH3izpll6PHGa3ky/r4pazEfEZHHi3LG4CkMoaeLNUXNih67wu2H/+9zO91R4SkBmm4io6Gmvv4nqSLODlAk3TI4JhQG9LECfJAvSMmLXPIgWlfvCft5+dfgnfBWSGJ2MamrTadk85gK/raawdUO0zsQZjwMNhDZ1N4nR5P08ZmE3ouKBzLHVFS7se0qjJeH4rYkngDwDNERkPYiokqv8ngmAMGGoP4X5MxVRcRUAW7+KkwL/+RHrP8wWO14s6zmsIZkrnWFYp8CcW4sUdALvK0yp1kizg9RIF/k6g4N8DGAO6W4J4PhFBJGztR9rVHMDtKsuHCLFSaU7FnQEFDECTJuPhsFjzKUQKQv1GpPe+VL9czc5UrsDxesk89EglEMRqBgfeLjmfAByc5fF6UUda0HksXkfBv8sxBsS7wpiK2RcEDXSEMNIdFirIIv7CGHB/SMVwV+iX/7+tIYCpuCbEtSlS8OlXIn0GqYxZx5ypoDtPMmPg5YKOgzOqfSb2KSUABw4lALsnebxZ1pEr0EXuFAr+XUxiwOSAivFeewNzBmC0O4y+VmoBSuovFGB4MhZBb+vl4+q7mwOYHHB2B0CkoNPvRPosLtIG3izqyJdxbqp0xupMF/cAO/EOo3hA/eC8vgnA5lEOswkdBi34O4qCf5cKBRlmRiMYaA/WJR5nDLg7aM1BYkLK1ajJeDYRQWv0+sOTA+1BjDk0oVqkYJOYRPpMTvUC3ixeP3V67zSPFwtJKoEgdWVw4M2ijsPz+iScq/tZfFxNgXqIOI+6/bhQS1TGVEyDEqp/pJPLc7xcpNUpYrPigLrpuFbRgfNvmxkk9jJ1KZkQKcAklxOpC1B7YwAzI3+WqG0c5vBpjXr4E+cwBjwZu3mRpVocQGI3i/ktalkrClr5dxHGgL7WIJ6ORRwJ/AEgGGC4P6QiHKT6H2IPxoDBdnNAXaWdpib6whhoC9lenkaBvzuI9DkdnOXxLvFrkL+8m6XAnziOc+DVgj0zUzgHFrYyFPgLhoJ/l2AMGO0J496Q891NGlQJ94dUSHT1EIsxBoz1KpgsdvSp+L8HMDmooKvp8vMBVhApoCQ3E+nz2j3J4cOqGex/20xTQESEYXDg1aK1CUDpOl/ezdB1LhgK31xAksxOJ6MCddxpbwzg7qDziQjxDsaAe0MqRn7r6FPx3wNgelhFa4P151NECiSJO20f57C8l8XKHvXwJ2IxDOD1oo7jZO0JAOfA5/U0VvfpOhcRBf+CU8MSnl7T6cRJva1BjDt0yJJ4SyjA8Hg0YnaUsgAD8DCuokG1roaVAn/3EuWzkyWGR8MaRrpCND+FCKlgcLxa0HFSQwLAOfB+JYX1Qwr8RUXBv6iYubr+fCKC5og9h3BqxQDEO0MY6gjRQ4xUrVGT8ddEBG0N1l7nwQDDw2EVSqj225wowSOpntOfoRqS8HRcQ0eTuSM11BGixRMipILB8WqxugSgYABvlnVsn9CQOpFRtx8BMQYMtIXMSaYueDBwDsyupLBDX3ZSCQZ0NppDumQblyFO9QJezOsoVNFfzumAkVjPiQ5AjZqM6bgK7ZIJ7AvbGSztUE00EU9QZng8pqFJK29hJpPjmE3othwcJtailX/BSAyY6FVcE/gDP6avtgi6Q0HE872jz4i9gT8ANGkypocrP59Cgb831fVzLe7gPh3XLg38AWCsJ4x4Z5gGKBLh5ArmDsBpGa299YyB10sU+LsFBf8CkSRgKq4h3uW+MhpZAh7ELl/ZIuRnjJkBT7UdfarR0RjA/Qo6ZVHg7211+XwZ0NsSxMyohsANPWsn+sIYare/RS0hlcrlzQTgLHX1ALqzVMH8d2j+j2tQpCaIqCLh+UQUXc3unaCrhiTcj6mQK23OTnzje0ef7nDdf3Zva7CsQ5YU+PuDnZ8zY0CsI4QHMbXseP7OgIL+1iAlAEQ4uTzHq4Ukzi9JAI4vCni9qEPP0HRqN6Hg32nFSabPb0XRoLr/42iJyLgfUysezkS8LxhgeDyqWdbRpxpDHSGM9VxdYkGBv7/Y8XmXdrZu9ysV/7d3h1T0tFACQMSTzXO8XPw1Adg/y+P1ko5Mjg6suI37o00XK60OPRy2v+65nrqbA7hFbezITxpUGc8mImizofd+pUa6w4h1/FliQYG/P1n5uTNmruBXu7PFYJZPdjY6/z0h5HfZHMerxSTO0wZ2jvN4u6QjX6DA3408FHK6i8SA2/2KZ4PkwY4Q4l3iDCUjDmFAR1MAzyYiiAh0HuR2v/LLDgQF/v5mxefPmHlma7C99iF1D0c0IRJlQn6XzXOs7WexuJNBFQ3UiCCo1acDAjLDVFxFh8dXdzgHPq2lsHFELUD9iDGgvy2EycH6Heyt1AAGnH4JRCDVtgENBRimhzW0Rq3reGZw4OVCEsfUPYUIgjGzdPJWn4JM8RzARZpq/d1InKU4n2jUZDyfiHg+8AfMG8XdQRXttILlO4wBoz1h3KXAn7hINTsAUUXC0/GIpYE/YO4OPxrR0Fhmj3VC7MSYWTJZqlZQguZU9ohCYaQb0adWJ4wB3S1BPJ/w15eFMbOGtUGlB5hflJK+UQc6+pSLAn9ylUoSgNaojKfjEURtuqcHZYZHI5qvnhlEPIwB470KRnvCvyzmKCEzAaAW3+5Dn1gdMAYMd4UxFat80JAXhAIMD2IqQgEf/vI+E5QZZkY19Lc519HnJhT4k5vcmAAwoLs5iCfjEdvva0qQYWZEgxKixzWpP8aAO/0KhrtCl+7iqiGGJ2NXD7EjYqJPy2YSAyYHVYz3+vvwa4MqUQtQj2tQJTybiAhd5kWBPynXlQkAAwbaQubU6Dq9Fi0sYWZEowUUUleluSyDHdcfYldDEh6PUgLgJvRJ2SgcZHg8FsGAwKug9dTRGMDkoD93PzyNmZ/ts4mo0OUJFPiTSv2eADAGjHSZZ1nqrUGV8GhEoyGKpC4kBkzHy5/LooUlzIxqUGmHyhXoU7JJS1TG84mo5YfA3K6/LYixHn/vgnhKcRX00ai4syoGiv8jpBaMAbf6FIz3OneWpTki49GIRvdPYqtggOHRqIau5sp2cSNhcweAStTER5+QxRgD+lqDeDoWgRKiO/RlhrvDZi9sentcrTTJlDr6EC/7n4eTYAy4P6Qi1llbD38rtDXIeDhMCQCxhxIyS8yqLd+MKJQAuAF9OhYqtTe8N0SlLddhMIcsdTdTOZRbUUcf4if/3/Qkesssf6iHzqYAHvi0gQSxT1QxS3eaI7VVLERLCUCQLlBRUfBvEUkyV4ZGu6mkpRyllbQWKotynYBsdh+hjj7ET0S7pnpagrTQRCzTFJExM6qhwaJzW1FFwsxYBGFKAIREwb8F1LCEp2MRoVaG3EAuJkzUIcA9oqWOPgIPqRMtSCPeIdq11dcaxJ0BhRIAUj0GtDUEMDNi/WHdBkXC41H72+GSylHUVQsGtDcG8HwiUvM2mV9pYQn3h1RIdCWKrXitP7NxoJEVRAvOiPeIdo0Ntodwq0+hM1SkcgzoagpgZtS+NrINqoTHY5QAiEbcp7jgGAMG20LUe9kCLVEZ92n7WlwM6G8LYWZUQ0AW90MSLSgj3iXatRbrDGGcuqiRSjCgtyWI6bhm+/ydRtU8AxCkWEkYFPxXoTTq+s4gbbdapacliNv99H6KhjFgtDuMe4J39BEtGCPeJ9o1N9IdxnBXmHYAyI1Ki5f1XHRr1GQ8FnwByU8o+K+QJJmDL64adU2qN9gRQryLVq9EwRgwOaBirIc6+hByGdGuv/HeMGId1EaZXI0xc6fIicXLJk3GkzFKAERAwX8FooqE5xPRigdfkPIwAOM9YfPgNN0bHBWQGR6NaBhoF/cQu2iBF/En0a7D2/0KBtsoASB/Ku3k3upzbie3iXYAhEDBfzmY2Vf5+a0oGlR6y+zEGHBvUK16wAipXVSR8NdEBB3U0YeQsoh2Pd4ZVNDbIm7iTuqPMWCiT8GoADu5zREzAZDtPmxArkSR7A0YA2IdITwc1iDTu1UXjAH3YyoaVOqgVFfFjj5/TUQs6/VsB9ECLUIAsa5LBvMeSoMUCfCjhDMuwITqkuaIjMdjGnX6c4hEW4NXY8zcQr1FB1HrLhxguD+kUCelemFAf2sQM6MaggJvx4oUYBHyO5GuTwZgelgVeiYHsV9pMU3EEs6WiIzHoxFKABwgNWm0unqZUs3zUAcd7HVKoybjPo2wt933jj5DqrDXOnX0IW4h2nU6M6KhlSap+5IkAQ+HNaFLwFqjZgJAz/n6ku4OKgjR+OVfNGkynt8Su+bZLzoaA7g7SAmAXaijDyHWE+maZQyYGY2giQZR+koowDAzEkFnk/hxTGtUxpMxSgDqSWpUZdwdoAmrgHmT7GkJ4tlEBJEwvSGi6G8LYowG2FhOlqijDyF2EenalSVzByBKDSt8QQtLmBnV0NbgnoTP3AHQ6DlfJxIAdDUHMN7r77p2xoB4VxgPqMxESMPdYQy0U/s6q0QUCc+oow8hthLpGjZXgjVotLDlaQ2qjEcjGtxY0t3WEMAMJQB18f0uEOsIYbAj5Ms3XWLA3UEVE720uiwqBuBOv4IuF2xhiq6tIYBnExGh29aKFDQR4hVqSMKjEQ1hKvX1pOaIjJlRDVGBu7XdpL0hgJkRSgDs9v0KYQy43aegw2fBVTjI8Hgsgv42cUsfiIkx4EFMQzPVrlaHAX1tQTweo44+hNSLaNdzVDETABqy5CHFNs2PRzUoHkjs2hsDeEQJgK1+SQ9Lh//80l+9JSrj+USUOiG4iCyZbcvUkHtXNpzAGDDSFcZ96uhDSN2Jdl03aTKtrnoFA7qbgpjxWELXQQmArf6IoJQgw+Sg4unJa6y4Avp0LAIl5N3f06siYQn3Yyo8fIlaijHgzoCC8V7q6EOIU0S7xluilAC4HgP6WoOYGvbmWcWOxgAeDtM1aodLl09bIjLuDiqeDK4YA0Z7wrhH7SNdrTVKMwDKIUsMD4c1DLaLM9nxd6IFRYTYRbRrvb0xgOk4BVduxBgw1B4Sej6LFTqbApimBMByV9ZO9LYGMeqx9opScdLdaLe3fi+/6mkJ4lafv7tUXUcLS/hrQuw+z6IFQ4TYTbRrvqs5YJYD0n3UNUrdCW8PKJ4O/Eu6mihJtdq1hdPDXWH0tQY98YZrYQlPxyNCT7ojlYt1hhDvDFML0N+0NQTwfCKCRuroQ4hwRLv2e1uDmKTdcFdgDBjrCZvdCZ1+MXXU1UwJgJWujQxYsQVma1TclcMbFU/BP5uIUJcYjxrvC5tJHd0UvteAPh7TEAyI+4aIFvwQUm+ifQcG2oK43U87qSJjDLjdr2CkW9zzW3bqag5gKkYJgBVuXBY0EwDFlYNBGAMG20KYGdEQEjgQIrVhAO4PqWhzc5Jqge8dfWJi14CKFvQQ4hTRvgtDHSGM9yq0kCKg0mLsUIe457fqobslQMNYLVBWRK+FJUwOKpBcFP8zBkz0KrgzSCsZfmDOAFB9O76eMXMImugdfUQLdghxmmjfieGuEJ2LE0zp+UbziEw9LUFKAGpUdqTU3hDAnX53vNmSBEzHNcS7QrSA4SPhIMP9IVXochc7SBLMjj4CrwiJFuAQIhLRvh9jPWHEOkO0AyCAgMzwaERDD51X/EVPS5A6/tWgomXS/vYghrvEXhGIqhKeT0TR1ezvEhC/atJkX3Wu0MISno1TRx9C3E6078mtPsVsEeyTe6mIwkGGmRENHY3i3t+d1NsS9NXz3koVBf8M5opAj4iHKxnQ2RzA84koGnxa+kFMnU0BTA54/4bQGpXxbCKCRk3cg+yiBTSEiEy078vkgIL+VlpxdoIWljAzqqElKu79XQS9rUFz1oHHn/dWqzhKZsy8ITQLFHAwBsQ6QngY1yBT3E8ADLQHvVu3yswb3pPxiNAH2UULZAhxA9G+N/eGVCo5qbNGTcbjUQ2Nqjhxlsj6WoO4S61qK1JVqByQGe4OqggHnX+nS62vblGLMvKb0Z4wBtq8tW3NmDl/4wF19CHEs0T7/kzFVaFLC72kNSpjZkRzZYdFJ/W3UQJQiaqvrgZVwuSgCsnBNzpYPAgz1EEHe8nl7gwq6PLIQ6uU6E5QRx9CPE+079GjEQ1tDd64lwqJAR1NAcyMRoRYWHUjSgDKV1Nq2dUUcGzFvSki49mtCB2EIdcqzQBocvmAN4mZHaxE7vEsWrBCCLEW1aDbhAE9zUE8GqHS5Vr1twV9ceavVjVfZoPt27yIPAAAIABJREFUIXPlvU5vNGNmi6dn4xFEaFuMlCEgMzwYUqGE3Hm9aGEJf01EhO5gRYE/IdYT7XslMeDRsIYGqkW3DgP6W4N4EBe7lNNNBtqDuDNApeDXqTkaYsxsCdbZFLC9tvqXemf6UEkFIorkyuumJSrjr/EImgQ6YP870QIUQrxEtO9XMGC2n4wo7lxMEUmpWcm9IQr8rTbYHqIE4BqWfHsZAyYHVVtPpkvF0dbjvR7t4EJs1xqV3TMUpNjR5+m42PWfogUmhHiRaN8zJWSet3PrbqoISouZt/sVp1+KZw22h3CbmsFcyrJvbjjAMDmgICBb/y6HgwyPxyI02prUrLcliIk+sW8GjAHDndTRhxDyg2jft0hYwqMRzXcT1a3AGDDeq2Bc4OYNXjHUQQnAZSxN25sjMu4OWvgmM7Ps4flEFK10yIhYJN4ZEnZ0/feOPn1iPxREC0QI8QPRvneNqpkASLQBULbSPX64S9zmDV4z1BHCLcEX/erN8q9sd0sQ4721v8mseAjm6VgESog+MWKtiT4FvYINrmEu6egjWgBCiJ+I9v1riZh96Smwuhlj5tA0ke/xXhXrpATgZ5YH/wzmymp/W/UdgBgzBzTdpZHNxCalFqCi9K1WwxKeUUcfQkgZRPsutjUE8HCYEoDrlBZ3+lrFWnTyk1hnCBMWLE57gS2bdYwBkwNKVYGVxIAHMRWj3WERqzKIhzAG3I+pjnetoI4+hJBKifad7GwK4EFMFbKc0mkBmWFmVBN6cccv4l2UAAA2Bf/AjwSgksBKC0t4Oh5Bj2DlGMS7lCDDg5hqy0H1GxVnVjwdj0Chjj6EkAqJ9t3saQniHk1Y/YUSkjAzqqFdkF1mYiYA472KrxNVW5c8tbCEyQH15sNADGhvDODZRATNLp/EStynSZPrPgOAMbM8bkrwwS6iBReEkF+J9h3tbwua7StFvrHVSVSRMDOioYXiGuEMFxMAvyaqttc7tDXI145aZszsxTozoiFELcOIQzqbAnUbCV4ajHerT+z+zqIFFYSQy4n2XS11V/FzAtAUkTEzqqFBpVZIohrpCmGsx5+zo+qyD9XfFkQqa2BpJwPOf/z/jJldV2KdIT/fI4ggBtqDSOf+vE6txBgwFdfQLXDtp2iBBCHkZgMYwDrWnX4Z38U7QygYHAvbGcCm+6mo2hoCmIqrtKDpAiPdYXAAi9v2PfdFVLeUdLQ7bNbyF78LssQwHdcQp8CfCGSsJ4z+NntmACghCX+NRyjwJ4TYQrTv72h3GMOdYf/sADCgszmAmVGqZHCT0e4wRrr9tQNQtyiEMeDuoIpU1kCuwDEVo+0wIqbJQQWZnIG907xlf2dLVMZUXKODvYQQW4m2AzDRF0aBc6zuZ729A8DMCfIPYqrTr4RUYazHHKy5uOOPnaq6Rt+yBAwU6/sp8CeiYjBbgDZa0XqTmYPvqKMPIaReRPs+3+lXMNDm4cFWDBhoC1Hg73JjPWGMdPljB6BuETgHsLKXxcfVFL6sp31VW0XcJyibLUDDtQTsDIh1hDBNHX0IIXUm2vf67qCCXi8OuCp2brs7KHYDB1Ke8d4whru8X6pWl+Cfc+DrehrfNs2gf/8sj6+baT/srBAXiypS1S1AGQNu9ylmyzuBiRYgEEK860FM9dagKwaMdYeF79xGKuOHBMD24D9X4HizrGP1IPt9tZ9zYG0/i5W9rN0/npCatDUEcH+osgSAFadUxzrF3uamwJ8QbxPxO/5wWEN7owcSgGLL5tFirTjxloliAuDVEiC2vr5u2wL8qV7A+5UUkmnj8h/OgOk4jbwm4kvsZvFtK33jQSAlJGEqrgo91EXEgIAQYh+RDgAD5gLgi4Ukji8KTr+UqjAGTA6oGGj3YBkT+cW3zTQSe947rG7byv/2cQ7/ziWvDPwB8wbwaT2FM92dNwDiH/GuEGId17cAbY7I+Gs8QoE/IUQoon3vGQNmRjRrmirUGWNmQwgK/P3hVp+CeKc97b+dZHnwzwEs7WTwfiUFo4xMKZvj+LSeRq7gsbSKeM7tfgU9zZfc8Isdff6aiEANiXuHEC0AIITUj2jf/4DMMDOiIaq4p/OfJJllS70tFPj7ya0+5cbFP7ex9FvHOfB5LY2FCielneoFfFqjDkBEfA9iKlqjP61WuaSjDyGEiJYAhIMMj0Y0qCHxE4BggGFmJILOJipT9qPb/d5KACz7xmVyHK8WdawfZisP4jmwe5LD/FbGa2VVxGPMLV8NEUUCKx74Er2jT4lodb+EkPoTLQHQwhIeCT4RVw1JeDyqoa3BfWVKxDq3+xUMeSQBsOTA73GygNlECuns1fX9Zb0YBtwZUDDYLnaXFEJOkgXoGcOVfatFe/gTQupPtMWAU72AF/M6CuXUC9dRgypjKq66qjyJ2OvLehqrB+4+BFzz1bx5lMPL+WTNgT/wYx7A/lm+5r+LELtkchzfNtPYOcm78rsv2kOfEFJ/oi0CNGkyZkY1oVorNkfM10SBP/nZ90Vqga7VSlV9RXMAC9sZfFwt72BvuYziuYGLa7oEEeKUU72Af+fNFnW7pzl8XU87/ZKqQgkAIUS0BKA1KuPRiCZEUNXeGMDMqAallinvxLMmXZ4AVBX8cw58WElhaaeyg73lSmUNfF5PW5pUEFKr3ZM8/p1LQs8UE1MOrB5ksbSTcfaFVYkSAEKIaAlAR2MA03EHEwAGdDUHMTOiISi7NLIjdTE5oGCwzZ0JQMXBv54x8O98EltHOVu78xxd5PFpLUUdgIgQVvezeJfQ/0xIOTC/ncHGYc6R10UIIbUSLQHobg7gwZBa/6CKAX2tQTwcrmyqO/GvyUEF/W3uO6daUfB/cJ7HP3NJnCTrMJSLA1tHOSztunNVlXjH3GYGXzeuaUXLgU9rKVeeVaHVf0IIIF4C0NsaxN2BOiYADBhqD+H+kFqnH0i84t6ggv62oKt2AMoO/tcOsni9qCObr99SPOfA4nYGm0e0qkrqjwN4v5LC8t7N5W2lUrjzlPvOqlACQAgBxEsABtqDuN2n2B9UMWC4K4w7A+5o20zEc29IRZ+Luv/dGPxzbq58fll3ZggXL66qHl3UYbeBkKJMnuNlsbyt3JY+2TzH+5X6JshWoQSAEAKIlwDEOkMY7wnblwAwYLwnjInesE0/gPiFmxKAa4N/gwOzifJWPu1kGMDntRRSWfcFVcR9zvQC/p1LVpVwnqcMvF9J2fCq7EcJACEEEC8BGOkOY6TLhuCcAbf7FIx0U+BPascA3I+p5vwfgUuAQgF2dfB/kTbwz1wSOyflr3za6SJt4PM6HQAm9to9zeOf+Z86+lTh4CyPD6uUABBCiFXGe8OIdVp4sJIBdwdVa/9OQgA8iKnobRFzB0AJMjwc1i4P/vdO8/j7WxJnulilNvtneXzZSIuQixAPWtvP4t2yDsOCsv3Noxzmt9x5WH0+Ne/0SyCEOEy01X8AuN1f7K1eKwZMxVQMtIkZoBH3exBT0SNYCZAakjA9rKElKv8a/HMAK3tZvF0Wb8Q2AIAD6wdZrOxmnX4lxGPmtjL4fF1Hn0pxYHk3g9V9912riqLgv2v/dfplEEIcJmICMDmo1FRXLUsMMyMaegRdmSXeMRVThbnOtLCE6WEVzREZABAo/QHnwNeNNNYOskKX1nAOzG2loYYldDcHbv4PCLnBh5UUNo+tL28rfafCQXddq4waXBNCBHY/pqLAgZ3jyjoBhoMMU3ENrVHZpldGyK+m4io4Kr9WrRRRJEzFNTSqP9b7JQDIFTjeLOtYFTzwLyl1ADoVrCyJuEs2z/FiQTdbydp03XMOvF/RcVyP2RgWo9V/QvxN5DNA03EVHU3lL6poYQkzoxT4k/qbjqvobnZmByCqSng4/GvgDwDSqV7AP3NJ7J/mhTjYW65cnuPTWtqVbRWJ885SBfw7n8TRuf2DuQzD3F1IZd0zAyAYNG9UlAAQ4k8iB/4lMyMaWhtuTgAaNRmPRzU0qhT4E2dMD6voqnMFQKMm4+Gwhqjy5/Fe6d+5JJJp9wQlPzvTC/i85sz8AeJee6d5/Dun1/W61zMGZhMpiHiU5jKK8mPYDSUAhPiLGwL/kpkR7Xsd82VaozJmRjRo4bJnmhJii+lhrW4JQFNExnRcReSK615ySzByld3THOa20k6/DOISawfOHWg/SRZcMwPg5+AfoASAEL9wU+APALIEPBrR0KD+GeR0NAUwMxpBOEjnmIjzGICHwxo6KyhXq0ZLVMbD+PUJr+tTYc7NDkVu7KpC6mt+K4PPDk2qLtk5zuHLhvjJ6u/BP0AJACFe57bAvyQUYHj02+p+d0sQMyMaZNdHOcRrHo1oFZ1XqURrVMZ0XIMSuj7h9cTXotRVZf/U/vpt4k4fVlNY2s0Ica5ldT+LZcHb1V7V8YcSAEK8ya2Bf4kakjAzoiEcZOhvC2I6rjr9kgj5/9l7r9248izd89vehDc0QW9EZSplKJOprNM9XVN1aqpreoDBwQDzAnN/nqAfoC7nAfp6rgfoi4OangMM0GgkujozpUwpxZSh994zfOzYc7EVVIgMt3fsHdvE+gGEyBAj4k9ym2+t/1rfasrXsyrSUXsDgFSEx5MZtaOdrkCIf+CjA9BmAZc+7V8gnKFc0fH9Yg7bx96YVA0A+GhXu33invVXN1AAQBDBwu/Cv0ZIZjE9KOHLsds7lwThNb65Y1MAwADpKI+nMwpEvrMSt8CIfwAolKpY2MhDI/1PALjMV/HvH7I47oGjj2l0YzfiyItr+0jN8YcgiOASFOEPAMt7RbzbKeDFco6MQAhf0HUAwACDUR5PZ1TwXOe9LYES/wBwmtXwZiPvmSQv4Q6H5xX8u9edrHTg1Voel3lvrrFR3X+N7za+A7wbtxAE0QFB2sX7sFPEh12jtPP0SsOPyzm3l0QQHfHNHRWpDixrb8EAQzGj1Mdsb0vgxD90YPe0jKXdotsrIVxi86iMFy45+pilVNbxej2PsgfnVbQS/wDw3U5whANB9Bs14V8u+7P8sJ5fNwtY3vu8p+voooKXKxQAEP7gmzmTAQADDMcFPJ1RwVowswqe+IdR/7+8V8TWsf8vaoQ5FneLeLOZ99WW70VOw6t171mAthP/QLAyhwTRD3y38d1n5202m3VxNd3zy3q+qdvf/lnFN/bKRH/DwNgB6GRoHRhgJNFdU3sgxT/wsQF4I4+TK83tpRA94pf1PJb2vOHoY5bD8wp+8VgA0Mzx5yYUABCEP2h0ruZy/s2O/7Sab5vk2zkp482G9+2VCYJhPgYA4RaTqBlgNClgfqo7N6vAin/gUwCQL3mzppqwh7Km44elnHET8KHwr7F1UsaHHX+Wq1EAQBDeptk5Wqn4r3mnUtXx41IOe6ed7e5vHpV8MV+FIFgG+GYuhESjAIABxlIiHk12b2MbaPEPANlCFW823B3sRDjHZb6Kv77P4ujCfzewW+jA8n4RG0femQFgxvGHAgCC8Cbtzk3dRzfIYtkQ/ocmr/nrByW83/ZncoXoL1gG+OZOCPFQXQDAABMpEQ8n7LGxDbz4B4CjywoWNinqDxqHFxX89UMWV1529DGLbjSv7Z95I5jppO6/HgoACMJbdHJO+qX0J1us4oelHE4tlvOu7BeN0lCC8DgcCzyf+xgAMMBkWsR9m4Q/0CfiHzqwdez9qapE52welfFiOYeK5p+MVafoHy1Az7Lu96uYFf8EQXiHToNxPzT9nuc0/LiUw2W+u+vi4k4RqwekBQjvw7FGD8DMkISvxu29F/eH+IchqD7sFLDbYY0g4V386OhjFq2q49Wa+/0qVsQ/Zf8Jwn3MnIeFgrd3xk+uDOGfK9pzPXy3XcBGE4cggvASm0dlbB6VcJGzNxnYN+IfqDUAFzyRUSWs8ctGwbeOPmbJFat4veZukNOp489NKAAgCPcI0vl3eF7Bj0s5lOychaIDC1sFbJMdOOFhVvZLeLdTQLmi4/ulHC5sHAjaV+IfACqajoXNAooeHKpENKdSc/Q5KvWF8K9xcqX51qc6SAKEIPyC1fOuWPReLfzuaRk/Ljs0sFEHXq/nqRqA8CRLe0W83ylc651yRccPS1lc2hQA9J34B4yhSgsb+X7SkL7mslDFv38IiKOPBXZPy3jrok2dGcefm1AAQBC9o5vzzWt1/5tHZfy86nzi4+fVPA7O+/PeQniTxd0iFndvVziUyjq+X8ri0gaTk74U/wCwf17BO/L99TyHFxX89X0WVzZud/mRtQP3Gta7bfqlAIAgnKfb88xLjj9rByW82ejdjueL5RyOLykAINznw06xZWlzqazjh8XuXQ77VvxDB9YPS1ijrn/PsnkcXEcfK7zfKWD7pPdb1HY4/lAAQBDOYcf5Va16I8GytFd0Zafzx+UcTqkfkHCRd9sFLO+372kslo0y6G4CgP4V/zAagN9tF2jLz4Ms7RbxZiPYjj6m+Vij2usMlV12nxQAEIS9fLfxna3nlaa5K37fbxex6NKU82rV2AGwq6aaIMzwdqtgWNB2qHkKJWPmRdZiANDX4h+oOQDl6YT3EG82CljsE0cf03ycAdDLwWZWHX8IgnAOJ4JpN0t/FjYLWNl3t+m4XNHx43IOWZssRQmiE37dLGDt0LyZyXUAYOF47XvxDxhbKG828lRe4jIVzRjbvtlnjj5mKZaNGQBlHx6vlP0niO5x6jxyq+n31VreM777hVIVL5ZzKJT9d30l/MfCRgHrXWiefKlqaQYGif+PnOU0LGxSA7BbXBWq+OuHHA771NHHLBe53lqAduP4cxMKAAjCOk6eP6VSbwW4rgMvV3LYcaGXqRXZgiGo/JhgIfzDL+t5bBx3n+zMFY0dADMBAIn/Gjqwc1rGe5fqDfuZo4sK/voh2/XY9n7j8LyCNxu9CVjtqvuvQQEAQZgnSOdN+ePslv0zbyZ8LvPGVGEnRgwQxOv1PLZOyrZVOdQCgHypswCAxH89OrC6X8TmkbeyEEFm69gY4lKmoWuW2DwqGX7ADmO3+AeCJWQIwml6db7k887vKBZKRomn1+01z7JGAEAQdvJqLW8499ksez4FAO1fmMT/DXQdWNjM48jjF6UgsLRXxC/k6NM1S3vOB6ySJDnyuhQAEER7enmeOF33f1Wo4oflLM58Yqt5fFnBi2UKAIju0QH8tJo3ytwc0j1GyVq2bc8Kif8GGA5ABer4d5A3G4WGE+wIC+jAm828o9vnLOvcpYICAIJoTq/PDycdf85zmuFP7jN3vYPzSk+mDRPBpaoDP63ksHfqfGXJVaGKH5ayKLYIAEj8NyFfrGJho0BZaZupVA0rNXL0sZmPMwDOc/7Ipt2EAgCCuE2Qzovjywp+WMqh0GFNstfYPS3jl3UKAAjzaFWjsb2X/S1X+dYBAIn/FhxfVXo6YjzoXBWq+I8PORzSUDVHqGiGBWgn9X5WsNPxhyCI1rgp/CsVe6/R+2eG8Pd7b9fWcZlcAQlTVDQdL1fc0T2XeaMHoNTgvCPx3wod2D4pY3mPHIC65fjScPS58Glm2i9kC1W8Xnemj8KJpt96gpTlJIhucPtcsLPuf+ekjJcrucDsom8clvBumwIAoj2lio6XK3kcuWhhfpnXGgYAJP7boOvA4m7Rcz7EfmL7uByIrI9fOLms4JUD29NOi3/AfdFDEG7y3cZ3njgH7BL/G0elns4j6RWr+71xWSP8S7Gs46cVbzhaXXzstamfW0HivwNqDcCnPnEn8BLLe0W8JkefnrN7UrY9O+WU489NvCB+CKLXeOm4t6PsZ3W/hIUezSFxg6XdIlb2vTGVmPAWhZJR6nNy5R3NeJHT8MPipwCAxH+HaFUdbzbyNPLbBAubBXwgRx/XWN0vYdXGm5OTjj838ZIQIginCdrxvrhb7IvSmPfbBawfUgBAfCJXrOLlas6TVrY1t62KppP4N8NVvoqFjTxp2TZoVeDFcg4bh+To4zbvtgvY6YG1mBMETRARRCO8epxbLf15u1XAUh+VxPy6WaDBoAQAo+fup9U8zj0o/GucZ40AgMS/SQ4uKni7FfyMhlWyhSr++iGLA3L08QyvVvM4vrTnYtRrxx+vCiOCsAMvH99W/P7fbBSwdtB/mfA3G3nqC+xzrgpGxt8PpiZnWY3Ev2l0o9t/tQ8vcO04vtTI0cejvF7P46rQvb92L5p+b+JlgUQQVvH6cZ3Pm2vU/Xktb8xv6VNerTk7aJHwLhf5Kl6u+Gt4HYl/C+i6UetHJ/ontk/K+GEp29BPlnCfQqmKV2t5VLTu/j69avoliCDjdeFvBq0K/Licwy5lvvFyJeeqrSPRe85zGl6u5JC1IbnWS0j8W8RwAMrjwkeRnlMs7xUd85Yn7OMip3Vtu+dG5h8Illgi+hs/HculUutMfqliTGynwY2f+HHZWy4vhHOcZTW8XMkjX/SfDiTx3wWliuEAVO4ym+pnyNHHXxycV/CmC/u9Xjr+3OS7je+A/q0qIAKAn4Q/0LrpN1es4selHE484GPuJXTdMLw4p/LXQHN6ZWT8CyX/CX+AxH/XnGc1LGwU+k77alXgxUoOG0fk6OM3No9KvnXj+G7PX+KJIGr4TfgDzcX/Zb6KH0ngNqWi6XixnLOlz4rwHseXFbxcyaHoY+t3Ev82sHtWxodtf4opK2SLHx19ziok/H3K4m7Rsj1drx1/buJHEUX0N349ZqvV2+L1NKvhx6Ws72qce02xbAQAeZ9mhonGHF1U8HIl7/v+RhL/dqADqwdFIwsecE6uyNEnKLzZyFuyZHWr7r8ev4opov/w+7FaHwAcXVTw41KOhl12SK5o7JAUfS4UCYODc0P4d2uc4QVI/NuErhvDPoLc6b9zUsb3i1mU6MIfGF6t5U1v3UejUXAc59CKOsfvoooINt9tfBeIY7RW+rN3VsEPy7lACJ9ecpWv4sVyDpUq/d78zP5ZBT+t5qAF5O9I4t9GDAegQiC3Q1f2S3hFjj6Bo6LpeL2WN1W7yHEcBgYGHFxV5wRBXBHBI0jHZS6Xw/ZxGT+t5KjM0yLnWQ0vlnJ0//Qpe6cVvFzNoUEVnG8h8W8z+VIVbzYLCEhwCMDY0Xi/U6ALf0C5KlRNW4CKooihoSGHVkQQ/iVIwh8AVnav8Hq9O4tgwiiZfbFsfmoy4S67p2X8tBq8wJfEvwOcXFbwZsP/F8uqbgwtWSdHn8BzfFkxHQBIkoRUKuXQijonaGKL8C9BOxY3fOwM5kUOLyr4acX/2qBf2D4p4+fVYP69SPw7xPZJGYs+vmjmPjr67JOjT9+wc1LGu21zMwBCoRDC4bBDK+qcoIkuwn8E7RhcPShhdd8wsSiVrM8GIT5n76zc9bBFwnm2jst4HeC/E4l/p9CNybfbPhx5XnP0Oc+So0+/sbpfwtqBOdeqeDzuuv0nEDzxRfiHoB17S7tFbBx+ug4U81SuYic7J+Wuhi0SzrJ5VMYvAS91I/HvIEYDcN5Xo753Tsr4j8Wsr4dXEN3xdquA3dPOg1aWZTE4OOjgijonaCKM8D5BO+beb99OWhULJP7tZvOohLdbFAB4jfXDUiDKtttB4t9hqlVgYSPvC1/kmqMPlfkQr9bMBa0cx2F0dBQMwzi4qs4ImhgjvEvQjrVfNwvYO/PfbrVfWTso4f2Of8uDg8baQQm/bvZHQEbivwdcFaqejyR/3SJHH+ITum4EANli595mtQBAVVUHV9YZQRNlhPcI0jGmVYHX63kctphTo2nBnWHjJit7RSzvUQDgNqv7/bUTQ+K/RxxeVLDgwYjScPTJY/2AHH2IzymUqni9lodmwtuYZVmk02nwPO/cwjokSOKM8BZBOrZKFR2v1/M4bbPTR6U/zvFhp2i614qwj+X9kmmzC79D4r9X6IZtWs09wQvkS1X8x4cs9mmbl2jCWVbDqzXzN/2RkRFPBAAEYTdBEv75UhWv1/O46GDKN4l/Z3m7VcDGkXf0Qb+wtFfEhz4T/gCJ/96iA+93Ctg7dX/79PRKw1/fZ3FGjj5EG/bPrO1aDQ8Pg+M4B1bUOd9tfAfQIU7YwHcb3wVK+F8Vqni93vlEeq3i/n0r6CxsFHzpEOhXFneLWOzTngsS/z1G14E3m3mcd5BpcYrd0zL+upj1RRMy4Q02DktYMlmXyrIsksmk603A320HR7AR7hAk0Q8A5zkNr9fzKJRM1PQRPeH1Wh57ZxRoOc37nWJfD7Bj/umfF0gBukBU5fD8jgqBd04YDQ8P33pM1/XPPq99Xfv8//rvq46th/A/DyYVjKfMefqfnZ3h4uLCoRV1zt9O/K3bSyB8SNCE/8mVhoXNPKoWdH8kloQku9/Q3w88m1UxGKPSSSd4t13wVAm2G5D4d5HhhIAn04ptrzc0NNRRlvWm4K//vP6jWq2iWq1C0zT839/t27ZOwt98fUfFQNTcTeng4ACFgrt1lcWyjv88+z+4ugbCXwRN+B+cVyw5mrAsh3A0Dl4QwbLulvL1E8/nQkhF6PdtJ2+3CtRcDRL/7sIA04MivhyVu36poaEh4yVviH+GYT7L9gOfi//av60+6oOA2kelUsH/+yrb9boJ/yHwDJ7PhRBVzFUN7u/vo1h0Z5v1qlDFwmYBhVIV//gPf3JlDYS/CJrw3zstW/KU5wURPC8gHE04sCqiFRzL4PmciniIAgA7WNgsfDa5up+hmn830Y2hEutdHIyDg4MNp6syDHMdCNR/Xvu6o+XV7QzUnseyLFiWBcdx+OMj2v7tR8oVHa9Wc6anQA8NDUEQzJUM2cHplYafVz/VN//5L//S8zUQ/iJown/r2JrwB4BYIk3C3yW0qo4Xyzlc5qk3o1vebJDwr4fEv8vourENdXhursEnnU5jYGDgs8faiXqror/++fUfLMvif3poX9kS4R8MpxDzg+uSySRYtneXnYPzCl6v56FVPz+eKQAgmhE04b9+WLI0REoUZcSTg6437Pc7pYoRAJhilJfGAAAgAElEQVQZuEh8zi/reWySjepnUDeJBzAcgAr4RlIRllsLo1Qq1fb1Or1YtyoJqv/6ZplQvfivVqv4z/claJqGf31HDgX9xNFFBa/W8hgQTxv+vyiKtx5Lp9OIxWI4PW38HDvZOi7T5EzCFEET/iv7JUuiR5QUCIIIXrh9DhO9J1+q4sVyDs/nQpAFCsbM8Gotjx2yT70FZf49QqFUxZuNPKotKikSiUTDjHwrzJT8tHMCqv+e2uvUyoAYhsHf3aXDKegk+JPPPvIX+01nRZRKpVsfBwcHyOfzYBgGlUoFJycnjqxz9aB9tpOy/0Q9QRP+i7tFy9nOaDwFJRSxeUVEN2QLRgBQ1qhNs1N+XiXh3wxSax7i9ErDL01KKeLxeMPHWwUDrUT/za9vCv/av82agutfo74X4G/vNF0O4VPqxX4jLvIaLvOdza2oVCqoVCrgOA4cxyEajV4/dnR0ZMt6P+wUO67tpACAAIIn/N9tFyyJHjUcRTJ92yKa8AYXOQ0vlnMtk4QEoAP4aTWP3VMS/s0g8e8xdk7LWLwxeCIajTZ14jFDvVhvhlknoJtNxSzL4j/NUG1iEGgl+G9ymtWQM1mTKgjCZy5SkUgEhUIBBwcHVpYLHYabg9kLPgUA/c1/X/w3t5dgG7puNDbumxwSxTAsZCUEQZDAclQN7GVOr4wAgGhMVQderuSwR8K/JST+vYYOLO0VsXVsHLiRiLWtVzNNWlasQKvVatOdAQB4Pkknnl8xI/rrOb6soFg2FwDIsmFzW7+bFIvFTAcApYqOV6t5HF1Y6zuhAKA/+fNf/gULmwWUKv5PpVY0Ha/X8zi+NH8OMAyDcDQBQZQcWBlhN0cXFQoAGqBVDeF/QBOS20Li34vowJuNPI4vta4z/vXuPLWvm75tm6FfrYKARq9F+Auror+GDuD4UkPFRE0qy7KQJAmiKH52/MViMVxdXXUUBOSKVbxay+M811npUTMoAOgf/vyXf7n+e+eKxgwIP1+yimUdr9cLTftvWhFPDiJBpT6+4+C8gp9XzTuuBZWypuPlSs60c2K/QuLfo+g6MD4UaSr4rQQDZpt9mwn9m/82C06ejtKFyS90I/rrqVR1HF9WTNWk8jwPURTB80a5ga7rqFQqYBgGoVAIu7u7TZ97ntPw81redMlRMygACD6N/sYXOQ0Lm+5OoLZKrmjY7nbad1OD4wWooShYjiM7T5+ye1pu2ifYT5QqOl6uWN/57UdI/HuU/+1vBm+J6VaCv9FjnVzQ24n+ZgK//vFW2f9HQ5dWfnyih9gl/GsUKzpOLJQeSJJ0PQOA4z5NtIxGow0DgKMLI/NVtrlkgwKA4NLqb3t8WcG7bX9Zw17mDeFvJfjleQFqOAqWpemxfmbruIxffRq42kGxbGT8rdxz+hkS/x7kv/wm3ZHwt9L024hOSnvqs/2NhH+3zciEO9gt/GvkSlWcXJltOmSuewCA1gHAzmnZ0UwtBQDBo5O/6f6Zf2ZDnGU1vF7Pm560DQDJ9DAisaQDqyLcYP2whHfb/RcA5EuG8D+96q7ksx8h8e8x/tfnyY6z750GAc1q/tuVEnUaBNwMCG6u66uU8wOdCPM4JfxrXBWquDBZh8+ybNsAYP2whMWdHgg0il8Dg5lgbuu4jPUOrWLd4vjSmFxtpr8GACRZQSgSJ0efALK6X7rlFBhkcsUqXq7kLPW5ECT+PUe7evt2QcBN2pX+3HydXxIJvEul8GZgAD8ODV0L+5tiv9UuQLO1EN7BaeFf4yyn4apgriSB53lI0ifXEY7jrmcBFKsCDvZ27F5mQ/78/1D2PwhY2cVZOyh5djjQwXkFbzbMNyizLAtRUqCoYWcWRrjO0m4RK/veDlztIFuo4uVK3nRyifgEiX8P8b88i7XNvHcSAJgR3vWv/W/xOMoAOABFAFdAQ+Hf6uv616z/uBs7tP33RVijV8K/xslVBYWS+RkAgiBcfy1JEs6yGgof9ZhatWcgWDuo/MffdPP3W9wt4sBjziE7p2W83TJf3sEwDBLpDCRZdWBVhJd4v13w/M5VN1wWjIy/2QZ34nNI/HuIm1n2m8L6Zta9WUAA3Pbqr9FKoJ8DOABwCWADwEqbNbVba/2HXdNbie7otfCvcXxZMe2lLkkSeJ5HVTeer8EIBiKR3mYuKQDwJ3b83d5uFTxTT7x5XLZU7qaEIghHE+To00f8ulm4nhUUJC7yVfy0kjO9m0zchsS/R/j7+ZCpevtOewEa0ey11wC8BfAXAB8AXADQNO36/+s/Nyv+qQzIfdwS/gCg6cDJZQWaybn0LC/i5Eq71dQYiYR7lv0HKADwG3b+vd5s5nGZd1dsrB2UsGKhEZnjBShqmDL+fcgv63nT0869zHlOw8uVHLIk/G2BxL9HuFlC00xUt/rabF/Azef/H9vbyAPQAJRhlP6Uy+Wus/+Hh4eoVumE7XdKmo7jy86zqKVKFUcXGsB9qv8X6yaQyrIEqbxv6xpbQQGAP7D771StAgubeeRNlq7ZxfJe0VIZhygpSKSGyMqzj/l5NY99j5WuWeEsq+HlSh55m+a5EAC1/HuEarV6vS2r6/pnk3lvuvXUb9+22sqteabffIxhGGiadkvYsyyL/7q+fr2eWqa/9u/N3YZWJUeNAgHCPdzM+tdTKFdxfFlBKtL60pMvVXF8UUEVtUZFCaWikfksl93LZv35L/+Cf/yHP7n2/kRrnArQimUdC5sFzE8pELjelc982Clayt6GIjHwvND+G4nA83I5h2/mVKTbXHO9ysmVhp9Xc5YsbYnmUObfIzRzz2n10UkZzk1hXgsWOI777HVqHwA++7r2cTMYaPfetfXXsv6U+XcPrwj/GtlitaU9W7ZQxeFH4V+D5XgIoggACIU+1fyHQmpPs/8A7QB4Faf/LtlCFQsbhZ45wL7dKpgW/gzLQhAlKGoEgii3fwLRF7xYzuHUh5aYx5dGqQ8Jf/vxZygYQGriuFmmn2EY6Lp+nbmvfQ7glsCvp7aLAADiR/FUo2afqGna9b83hf7N8qJWZUU3M/8nJyefPSd7eYZQJO7Y75DwDxd5DRwLRJTPSxIuchrOmti3cbwAvaqjUglOHSvRPb0Mxs5zGn7dLOD+uHPCuqobDZvHFiaWhiNxqu8nblGtAi+Wcng+pyKq+qMM7Oiigp9Wzc+yIDqDMv8e4LdfcE1r+Btl+29m4Os/mgn6+sw+AJydnV1/b/1Ho+fVvm60U9BqrZVK5bPyoEI+h0o5uBZkXsRrWf96TrMacnU1nGfZ5sK/Bi8IYDmOsv8EAHf+DkcXFbx3aMhcWdPxei1vWvizHIdILAleENt/M9GXlDUdL5b94ZRzcF7ByxUS/k5CmX83YYCpARHVqpHJvDmFt90uAMMw17X6uq5jaOiD8aKQAXwJw7RzCUAOhonnJoASjo7+a8sAoVH5jpn5Arqu4+LiokF/QBXlcpFuUMQ1x5cVcCyPbKGKq06auRgGgiCiVM1/9rCmVYAelzhT/b+7uBmA7Z2WIXAMZobsu5YVyjoWNvKmxRnDMOB5kTL+RFsKZSMAeD4XgiJ60/p1/6yCn1dzMGkMR5iEMv9uwQBfjMi4NyZ3nOmv/7petFcqFYyMvAdQgeHTcw7g3wH8AkP4l403RBWAhnT6/0SpVEKpVEK5XP7so90uQKMgodEOQD6fv1UuxLIcZf6JW1Sqxk2pUxiWhSDJCIXCKJcrKJcrkCR36ptpB8AdvPB73zwqYcOmYUrZYhWv18wLf8BItkTjKVvWQQSfXLGKF8s503NXesHuaRkvV0j49wLK/LsBA8xPKRhJGKnK+nr/629psgtQ/3nNIch4vAJct6JV6z40ACUYQUDx4+dVlEqltuU7ndqG1v97fHx8/fnt5mUNZRL/PcPLJT8AwLMMUhEOksCCZ4HD88+bfFvBshxESar7mkXPOjFvQDsAvcULwr/G6kEJPM9cX8utcJGvYmEjb0mMReMpcOTqQ5jkMq9d7wBwHkkB75yW8Wo13/4bCVsg8d9jJIHB42kVyfCnpptW4r/+82aBwL17K3XvoONz8V8GkAWwDVy7+APFYrGllWcjp6Cbn9cL/et3//h5o9cBgKrmP8cBwn5EnkEqwl/bJkoCi2SEx5GJWmeW4yFKMsrlEvRqFXxhGxV51Kklt4QCgN7gJeFfY3GnCIFjMBA1fzs9vdKwsFkwPfyO43gIogReEMnHn7DEWVbDj8tGE7DbBUDbJ2W8XiPh30uYf/rnBdpg6RGxEIfHUwpU6fNQ+/DwEEBjz/5OA4KHD5c+/k8VnwKASxiZ/l0AZzCEP4t//df/HTzPQxTFlv79wCfBf3x83FDkN/u6UVnQvjYGAEgPjbX9XRHd49XMvyywSEc4sOzt4/0yr5mypDs7PYOuV1Es5FGtVpFl3C1/oADAObwo/Ot5NKUgEepciB9dVPDrVgFWRqDISgjhaML8EwniBgMxHl/PutcvsnVcxi/rJPx7DYn/HjEU5/F4WkUDvYP9fcOppNXArmb/V//4kyfvYQh/HcAFgGMAhwBy+G//7b8glUohl8vh6uoKiqJAVdVbGf6joyMAt0t6bn7e6Ov6x2/2AmiahiNmCnq1SuK/B3hV+Ksii3SbDOlZVsNF3loAcKm7L4goALAfrwt/AOA5BvNTCsJy+zqK/bMK3m0XLL1PLDkAnhfAMB6p1yB8z3BCwJNppefvu3lUxpsNEv5uQGU/TsMAk2kRX7XwhW42AKtVMFCjXoB///3MZ4/puo5KpYLj42OUy2Xs7u5eP57L5XB+ft6yfr/Ve7VbS+NJwMbPWamUafpkHxKRWSTC7S858RCHalXvzP3nI1dXWVSrWs8dfwiHuQL+/G/eF/4AUNEMt575aRWy0PzavX1SxtKueatQUZTB8QIEQWr/zQRhgr3TMl4zxu5Vr1g/LOHXTWsBMNE9JP6d5KOjTzs7ODPTb1tl32+W6tQ+an779R/lcrmj7H6792/2PY0Gg9UKCyvlEon/PiOmcoiZGC6TjPCoVCsolNufG5eXlwCMJuBQJIbs5bnlddoB1f/bh1+Ef42aXef8lAq+weG+cVTC6r410wMlFIEgkvAnnGH7pAyOZXB/wnnntLWDEt5ukfB3ExL/TsEA85MKRpLtRW4r8d9M7Df6t/b50dFR02bdTjL83dLY6acKfLwZVsolQAnZ/r6EN0mGOYRl802JqQiHw3MdJRODXhQ1jHKphFLR3a1kCgC6xw+lPo24KlSxsJnH/I0s6uqBNWtQjhcQjSXJ1YdwnI2jElgWuDfmXACwsl/Ce4slb4R9kPh3AElgMD+lIhXpTPA0Ev/NsvGtGnFbCf5GQUKj16/RSclRs+fcnFNQrVZxys1cfx/ZffYP6Qh/q8G9UziWQTLC4/C8jM71P4NINIGTo+J1mZlbUABgDb+K/nrOsoaLz/2P5Z5Lu0Vsn5RNv44kq+B4noQ/0TPWDkrgWAZ3R+zfZVreK+KDQ9OxCXOQ+LeZmMphflpByITguSnIm4n9m0L/5r+thL/ZjH8nDcaNfg4At+YGaJp2nfUHAK1i/iZI+AuOAVJRHrLQXVNizRL04KJzC1CGZZFID+HkcLer97YDCgDMEQThX+PoooIPO0XoOrB3Zv6axzAMIrGkAysjiNYs7xXBscDssH0BwOJu0VKvC+EMJP5tZDDO4/GUanpoxtTUFJaXl6+/vum4U/95q3KfRoK/2fe1gmGYW99TE/31jzcKBOrLfGrTgS+lu+1+BUSAEDhDsIu8Pe7RssgiFeZxfGViBgDLIZEexunRni1r6AYKADojSMK/RjLMIV8yX1qpqGEooYgDKyKIzviwUwTHMpgabN2z2OlrLe+R8PcSJP7tgAEm0uL1Fq8VanX6NZo147bK+Heb9W8l8GuP1Qt+XddvBQC1rH9N+GfVewAN9uobJJ5BOsqDa+Rp2wUhmYVW5XCWa3wsVbTbgQHH8YjGU7g4O7Z1LVagAKA1QRP+HMvg/riMxMdhjmVNx+ZR+3JHhmEgySoEUaLhXYTrvN0qgGMZjKetl5293ylihYS/5yCj4G5hgLsjclfCHwC+/fbbW9aY9f/WO+fUf93JR6PXuNmUa+Z7mn19M+OvaVrTib5aA7FG+BtVZDEYE2wX/jWiKodIAw/1RsK/higpnsmgBk3g2kXQfi8izxgDv+qmuM8Micgk2gsohmEQjiYgSr33XCeIRrzZyGPHQr8KALzbLpDw9yiU+e8GBng0qWC0A0efTmiVpe+kzKfdY/Xv0+jzZln9mxn+Zl9rmvaZ8M+p95r+rJVyCRxHh19QCMsskh14+HdLIsxDq1aQK3XezKuGoiiXiobLlNsUAZBb4zVBE/6KyOL+hNyw5+vuiISypuOoSf9KbXgXQXiNV2t5sCyD4Xjn1/hftwpYP/DANZdoCGX+LSIKDJ7fUW0T/gDwN3/zN00z//WZ9VZZ+maPNcvcm8nqN3uerhuzBGrCv1KptBT+ALwhxAhbiCpcT4R/jWSEh2Sin4BhGETjKQdX1Dl//v+CJXa7IWjCPyyzeDTV2uzh/rh8a94Fx/NQQhFwLEdTewnP8tNKDocdGi8sbJLw9zp0pbFAVOXwm7shpCL2C55OhHmzcp1OHmsl4Dv9nkbPqWX7awFAO8juMxjEQxziod7WJrMMkIrw4FkGq6urn9Yy/qz5c1gOyYFML5bXlqCJXisE7XcQUzk8mlRaTvat8WBCRqiufI3nBYTCMbC0E0p4nBfLOZxctb6/v9koWJpnQfQWEv8mGYzx+M3dkCkrTzP83d/9XcOsf7P6+naC3+mP+hr/2r+l6MO2Pydl/v1PKswjqrjTlMhzDFIRDma6CwwHoCHAwgwLuwma+DVD0H72ZJjHoykFQoe7UTzH4MG4ESgkUkOIxLyxK0UQ7dB1IwA4b2K88Ho931FjO+E+JP47hQEmBkQ8mzVv5WkWs1l/O8V8o/dv9XEz4y+N/48d/YwRj5RhEOZhGWAgyn+WvXQDSWCRivDXx2AncJyASDTh8Mo6I2giuBOC9jMPxHg8nJRhtsc9GQ/hPz0YhiR1b6NIEL2koun4cTmHy8LnfVev1vLYPqYZPn6BxH8nMMDdjNS1o0+n/O53v3NF2N/8//qvG31eX+dfs/i8PD/p6GfUq2T/6Ud4lsFgjIcieuPSIfE6EiEOqannnT9HViErIU9YKQZNDLciaD9rJiHgqzHz9wSGYRAKhTA2nMDTGXL1IfxHqazjxVIOuaIRAPy8at0RiHAHb9zBvcxHRx87J911QrtSGzNiv/71mr3+zcfaraEm+OuFfyU+3/HPR04/znJasX8yqMgbwl/kvXHZWFpaAgBEFA4zJs/PUCSG5MAwWNb9nyVoorgRQfsZx1IC7o6YvyfwPI+RkREoiiH6UxEej6cpACD8R75UxcuVPF6t5bF7SsLfb7h/5/MwIs/gG5sdfTrlD3/4Q1eCvxNxX4+ZHYCblp6apkFPNW+2bIQg9mYXhbAHWWAxGOXBc+7XyzfiixHJ1HlquKowiCUHPeGwEjRxXOPPf/mXwP1skwOipWRQOBxGJBIBx32+45RJCLg/QddDwl9wLIMvRiRMD4kQPHpfIJrj/l3Po9QcfdIOOPp0yh//+EfLtfi1769/XrvXqNFK+NecfSqVCsrlMsqxR9ASj00N7WIYBjrMj7wn3CEksRiM8WAdGt7VLb/97W8BAI+mFNMOXBzHIxSJObGsvidooh8AZoYkTA2ar9PnOA7JZBKRSOOBcxNp0dJOAkG4Ac8xeDqjYCBmmD48u6PCA5uohAnoz9WAwRiPb++qrjc0AsDf//3f409/+pOpWvxm/zbK+NfTKhAAgEqlgmKxiGKxiOjc/wwt8djSz8RxPBhTPi2EFewo/YnIrCOWtt2ytLTUsNF3fkpBWDF33spKCJKi2rk8SwRJLAfpZ6kxNyJhPG1+FzgSiSCTaW8zOztsZFEJwssIPIOnMyrS0U/3hUSIw9ez7l9Dic5xX916jPG04ejDeyzL+dvf/rZlKU/t8/rHbj5eo13m/+brVqvVa9Ef+Sj6j/a3Lf8slQrVB/qBuMoh0cPhXWaoif7f//73nz0uCQzmp9SObRdrRKIJT/ShBEE0B+FnuMm9MRkjCXPCn2VZRKNRKIrScW/Jl6MyxlI05ZfwJpLA4NmMilTktllCKsLjKQUAvoHEfw3GyOw88GjtpSiKePDgAYD2zbo3M/f1n7fK/jd6zVKphFwuh1L0IbTEYxx3IfqJ3mM1+58M84iq7rvhNOL9+/cAbgv/GlGFxfyU2SZKBon0EDkAdYmf194IhjGGcg3GzAeGLMsiHo9Dls3dUx5OKpbejyCcRBZZPJ1RkQg3v0YOxaiB3S+Q+AcABng4oeBOjx19zMDzxs3g4cOHbWv6Gz3WLvt/k0qlgqurKyjDj4G0uWbedogyXRy8CgMgHeER9kDJWzcMRHk8nDQfACQHMuQAZBE/rrkVPMfg0aT5PhIAGB4exsjIiOX3ftJGZBFEL1EkFk9nlI6muWcSgoVrL9Fr3L/LuYzAM/hmVvXVVuv8/Dzm5w1bzVb1/jc/v/n9jR7XNA2Xl5f4zW9+g9///ve4OypB6mBkvRkkiS4MvaTT7D/HGv0uqkPTq+2gXda/Hqt2jNFEGgxNATaFn9baCZJgCP9OxE49oigiFovdcvQxC8sAT2dU0/0rBGE3IZnFsxkVMRM7wWMpAV/1aC4SYQ3mn/55oW9tVyIKh8fTim+ynBsbG03/78WLFwCaC/92zb65XA6/+93vGv7fyZWGX9bzJlbaHJZlkRywnhEjrJHgWw9fEzgG6Qhvula+l7x//x7VahV/+MMfTD1vYbOAjUNzI+fzuUtkL89NPccp/vEf/uT2EloSNOGvSizuj8uWguBQKIRUyr7p5dliFd9/yKJQ7tvbNOEiYZnF4xkVEYsaaXW/hHfbBZtXRdhB34r/gRiPx1OKZ33LG7G9vX3L3aRX7JyWsbhT7Pp1ZCWEcDRhw4oIszQLAGSeQSrKg/NYk/tN3r59a1r413i5ksP+Wed2tICOi7NjlIreuHF5NQAImvCPKBzuj8uWdjtVVUU6nbZ9TWdZDd8v5qBV+/JWTbhEROHwZFrp2vVwcbeIpd3utQNhL/5IedvMeFrE17Oqr4Q/ACST9k9t7ZSRhIDxdPc2dGo4asNqCCs0Kv9RRRYDMSHQwh8A5qdUxEyVcDCIxFOeaAD2KkET/vEQh0eT1oR/PB5HOBx2YFXGup7MUKkk0TuiKoenM90LfwCYy0iYGfJuP2W/0l/inzEORK86+rSjNhLeLWaGRAxErbtQCKJEYspDhGUW6SgPD5S3t+Tt27ddvwbHAo+nFMhi55c8BgwS6WFqAG6A19bTLamI0SBuNiHEsiwkSUI0GjXt6mOGgSiPeXJRIXpAPMTh6Yxqa+/XF6MSJgdohoWXcP+u1itqjj4Zf0eg8Xjc1fe/OyIjopgX8BwvQJT8GXQFiVr2P6ZySHrUw7+eWsa/m6x/DVVi8XhKMTWJkmEMByCGAoBrvLIOuxiM8XgwIcPK5lcqlcLQ0JD9i2rASIKaKAlnSYQN4a+I9meEvhqnGRZewv07Wg8QeAZf+8zRpxnRaNSx7eVO4Dng7ogEwWSGTJJVKGrj0fZEb8lkRkw5N7jFwsKCLaK/nkSYwyMLFqDRWLLvHYD+/Jd/CZzwH0kKuDdmXlALgoBkMglB6O09ZXJAxJzPE1iEN0lGeDydUW1396vn4aSCjMlheYQzBF78hxUW394NdVWu4jXcrP0HjHKRu6Od34DC0TjUEAl/LzA/rWByQMTIyEhXPuROs7CwgD/+8Y+OvHYmYV7wCaIMRXUv6K7HDQEeNNEPGL1fVoQ0x3HgeR7hcPh6/kovuZORMDVIJRSEfaSjPJ7OKBB74Pb2eFrBYDw4esyvBFr8D0R5/OZuyLJNlZeRJHezP+kIj9kOhqKpoSgEkTJVbiNwDL6ZUzFyI+vixQBgZGTEMeFfY2pQxPSQOQGlho1jmePcv3H1UowHUfhPDYqYMfn3r5HJZDAwMGDzisxxb0zGSJIyqET3DMR4PJlRTO/md8OzGRXpACVk/UjwVPFHxtIivr6j9vSA7iWpVMqVrFM9YykBoy1uQAzDQFJUcBzdpNxElVg8v6si3WRSqVcCgF7vRnw5alZAMYjGU4inBj3RuN4LUR5E4T87bK35sObh74XyLwCYn1IwECMBRVhnMGaU+vAuuL09pSnWrhJI8X8nI+GhTx19OoXneYRCIbeXgTsZCckmohJgPJEl7WfiIQ7P50KItmnSdrsMyK33np9SWhy/t2EYFgzDIhxLeEIEOinOgyj8745Ilnq/eJ6HLMsIhUKe+LvXeDKtmp5CTBAAMJwQ8HRGtdTobgccCzybVRH1Qf9ZEAmc+H8wofRNQ5QkSZ6wIfxiRELohi0YLwhIpIddWhEBGFmd53MhU84NvRbhbgcdgGEBanbKt+ihHgAnCKLw/2pcttRsyLIsMpmMJ5ItN+FYI4Nqhx870T9kEgKeTCuu2zwLHINns6rp6y/RPYH5jfMcg6/vqBhP90+JiSzLCIfDjvpLd4LIM5gbka4tFHlBhKJGPBGY9CujKQHPZlVwFv4ENUHupCj3guivIQkM5qfN17yq4Zgn+lnsFupBE/4sa7iMWDF9iMViSCa94fTUDElg8HRGheigSwsRHEaSAh57aGaELBgBgGJiBgvRPcw//fOC72eGhxUWj6dURJT+PXiOj4+RzWZdXcPBeQXvd8uQlRDUEE3ydYvpIRFfjtobEO7s7HT9Gl4R+804vKjgx6Wc6eedHu1B0yoOrMgc//gPf+r6NYIm/AWewf1x2ZK1rSAIGB4e9rTwr+c0q+H7xSyqVbdXQniVsZSAh6atjnvDZb6K7xezKFV8L0l9ge/FfzrK4/GUAqEHFlVe5+zsDBcXF01s7DAAACAASURBVK69fyaTwfpxFYs7RdfW0O98MSpbdjGxQrOgwOtCvxmbR2W82cibft7J0S6qmubAiszRTQAQNOEviyzuj8uWSgqi0ajrAxWtcHBewYtl8wEsEXzG0yIeeLwX8iyr4fvFHLSqr2WpL/C1+PdyFOsWp6enKBQKKJfLPXk/QRCuP6LRKBiGwS8bBWwdlXry/sQnHk4qgRhk5zZLe0XTAWy1quH0eB+6B9KuVgKAoAn/kMTi/oRsupSAZVlEo1FIkuS6nbJVtk/KeL1mPoAlgsvEgIj7PpkOfXJl7GDpvlWm/sC3dTJ3MhIJ/wYkEomeZqwymQzS6TRisdj19viDcRkpEw4qRHewH10TSPjbw51hCRNpc7snLMshHE3A9Q46mBfyQRP+UYXDoynFtPBnGAY8z1+Lf78ymhTwpYWpxUQwmRr0j/AHgGSYw7NZ1e1lBB5fZv4fTCh91dhrhYuLC5TLZUf6AMLh8HW2v1mzca5YxQ9LOeSK7mdCg4wssngyrZDdnwO8WM7h4NxcLX/28gz53JVDKzJHux2AoIl+AEiEOXw1roC3kNbKZDIQhODcVxZ3i1japRLMfsaJ/q9esXdWwU8rVMLmFL7K/PMcg69n+8vRxyq1mtWBgYFrtwo7hoKxLItkMolIJNLSZUiVWKO+0P1EaGCJqhye3yGfb6eYn1JMN4qGIjHwQu96LlrRStwHUfinozweTpoX/pIkIR6PB86dbC4jYcLCMDMiGMwMS74V/gAwHOfxaIqqO5zCN7UZYZnF/LTSdlgR8QmO46AoCnRdhyzL0HUdJycn11n709NTAIagr2W8isXiZ8+vr+mvfXRKKsLjwbhiqYGSaE0qwuPJNDW6OwnPGRag3y/mUCh1uoPFIJYcwOnhHqpV9xuAGxFE4T8UF/DlqPlSHZZlIYoiotFgupPdH5dRrujYPe1NDxjhDe5kpEDMOxpNCtCqOhY2Cm4vJXD4ouwnFeHxeFqBSELHVq6urq4FPcuyKJfLnz1We7xbPuwUsbxH2892kUl4y6c56FhpQNOh4+Rw13MNwEEU/qNJAXcsCp3R0VFwXPATSj8s5XB04b4dLeE8cyMS7gz7X/jXs3pQwrstCgDsxPP7nKMpAc/nVBL+DhAOhz+bEiwIAhKJxK3Hu+XuiIRMkkq17GByQCTh32OSYQ7zJrefGTCIJwc94RFfE/xBFP4TadGS8A+Hw0gkEn0h/AHgybT5EjbCf9wdlQMn/AFgelDE3ZHg/Vxu4mnxPzss4RE5+gSCBxMy1aZ3yVxGwlc+cm0IEpmEgHsmHVQ4jjccgDxAEIX/9JCIaQszLTiOQzgcRiQScWBV3oTnjCnAquTpWz7RBV+Oypjt4YyXXjM7LGE2gIGNW3j2SnB/QqZIL0DwLIMHEwokGkFvia/GZculDYQ9TA2aF5uSrEJWQg6tqH+5kzFvxwoAsiwjk8lAFIMrkpohi0YAQLvowePemGwpEPYbd0ckTA0G/+fsBZ4T/xzL4NmsaunCTnibiMLiwQTt5Jjl8bSCSXLt8ARfjsqmS9hCkTg4zjfeCp7ny1EZoxbKCCORCFRVDZyrjxkiCosnM6oXxlEQNvHVuNxXgvjemIxx0odd46mrYEhm8e1dFYMxulEGlcEYT6UrHSLyDJ7PhZBJUL+El5ifVJAMd17CxjAM4imj/p/pY+HZLQxjuNcMxc3fHziOu+5n6neSYQ5PZmiIUhB4MNGfiaEHEzJGqI+wKzxzJ0pFeHx7N0RNSX3A5IDYV5kKK4RkFs/nQkhF6HzwGgwDzE+rCMmdXz4ZhkUiPYxwJA4afmEejmXwcEJBOmpe+KdSKWQyGQdW5V+GYsZMBMK/PJrs72Gn81MKhuL9+/N3iyfE/2jScPSRqBaxb7g3JmPQQgavH0iEOTyfCyGieOL0JBogCwzmpxTwXOfXLJblPvYAUNbVDCLP4NGUgoSJ3RYA4Hke0WjUNsvioDGWEnw9BKqfeTSlYDRFwvfpjIIBCwkBwgPif3ZYoilufcrDCQURGtr2GYNxHs/nQpCpMdrzxFTzFqAAEI7GwfN04+4ERWTxaEpB1EIgzHEc4vF4Xzb3dsr0kIgZclDxFY+nFUs9L0Hl2axqqgyTMHBV/H81To4+/YzIM3gwIZvKngaZsbSIZzMqWPp1+IbBGG+hiZ1BLDlI2eg2hGVD+Ics2FMODw9jcHDQgVUFjy9GJGqg9AEMAzyZUakH7AYMYwQAMbISN4Urdx+OZfB0Vu3LRhXic+IhDg8maOt5ZljCQ/o9+JLxtPkJswzDIJHOUANwE6Iqh0eTiqUdsGg0ClEUPTFgzS88mJAxTKLSs7As8HRGxTCVyjaE5wyXyDCVynZMz39TNUefIXL0IT6SSQi428e1p1+OyfiCdsB8zVzGfPaUYbwzBdhLJMOG8Bcs9IDxPI94PO7AqoLPk2kFqQjdl70GxxrzGcgFsTUSz+DrWRpk1yk9/S2lIjy+nSNHH+I2s0NiX249P5pSME3OR4HgwYSMAZM3aI7jEYqQWK0xEDVcaDgLdyZy9emeJzMKonR/9gwCx+DZLDW1dooisng2q9Iw0Q7omfgfqTn60B+FaMKDCdmSlZ8f4TkGX99RqXErYMxPmRdPshIiByAAwwnB0gwQnucRi8Wo1McGBI7B0xkFikjZU7cReaM8mnZjzBGWWXw9q0KgXsKW9OQMnxmWLLliEP3HgwnZlH+6H1FEFs/nVMrmBBCBMyxAzdaq9/sU4LGUYLn0jeM4xGIxCAIF0nagiCyezigknlxEEgzhTy421oiqHJ7NqqCWquY4/qv5apzqmYnOUUQWDyaUwI6fj6ocns+pVPoWYMIyi/lp1dQxzDAsYskB5xblYSYHRMxatJvMZDIYGhqyeUVEVKUpwG4hiyyezqhIkHtNVyTCHJ7RMdwUx8R/rTudHH0IsyTDnAX7RO+TjvL4do4akvqBWtOqGViWQzI97NCKvMnMkGRp2reiKJTtd5hUhAKAXqNKLJ7NKIiT8LeFdJTHUzqGG+KIClElFr+5G8IQ2VIRFhlLmbdP9DIjSQHf3FFppkEfMZI0P0GV5XjEk/3hT284JFkT76FQCLFYzOYVETcZjluZY0FYISQbGX9quLaXoTiPx9N0DN/EdvGfDHP4zV1y9CG6Zy4jYSQADbFTgyL1vPQp00Oi6cw2L4gIR4PtAPTlmGzp3BYEAZlMBqpK2bxeMZ7ubyvmXhBWDOEfIZ96R8gkBDw0uRMbdGxNzY8kBRI5hK08mFCQL1VxeqW5vRRL3B2RLNczE8Hg3piMQlnH3mm54+fIShjlcgnFfM7BlfUehjH6wNIWHExUVYUgCFTq4wKzQyLKlSpW90tuLyVwRBQOT2asTbImOmcsJUCr6vh1s+D2UjyBbUfbzBA5+hD2w7FGAGBl0qfbPJhQSPgTAAwL0IRJ545QOA6OD07pJM8xeDSpWBL+AJBOp6nUx0W+HJUxlqLAy04MVxoS/r1ickDEF7SLBcAm8X9vTMYXoyRyCGcIyywe+GjLjmWAJzOq5XpmIniwDDA/Za7Zm2VZRONpB1fVOyTBEP5WGhljsRgN7/IIDycV6uWziXjIcKOhmQq9ZWZIDFQ/oVW6OupY1hA5VtwaCMIMA1He0gCgXiMJDJ7PhTBMN0jiBorI4PG0YqrpmwtAA7AqsXg0qZiuZ2ZZFqqqQpIkKvXxEE+mVdO7WMTnJMIcns6okEX/7WgHgbmMhOmh/tatlsW/KrH4lkQO0UMmB0RPn7BhhcXzuRDdGImmxFTOdHkkL4iIJQYgKyGHVuUcEcUQ/lbsbRmGQTqdhix7P+jvJxgGH5tT6TpnhWTEsJ+UfFjKGiS+HJUx0cdW9JbEfyLM4du7IfKiJXrOl6OyJ7edk2EOz++EEA74dGKiewZjPO5PmBO0gighFImB4/2TAY+HODycVCyJnHQ6TcO7PIzIM3gyo0CmkhVTGL7zCkSehL8XuD8uY7RP+1hMn7mZpIDf3A35sgGTCAYPJxRPeSEPJwQ8nwtRJofomIm0+am2DMMiGk85tCJ7SUV4PJxUIJicayEIAlRVhaqq4APU7BxEQhKLpzPmytj6mYGYkfE3e04QzvJoUsFwov8CAFPif3pIxGNy9CFcRuAZPJiQIXggezKRFvFkWgHj/lIIn3F3RDLtnsJxPOIpb2fEB2M8HkzIYC2cE9FoFOl0MJqc+4GYyuEJDVBqy2DcEP4cbZR4kifTCgZj/ZVs6PhQvDcmm55WSRBOEVM51ydPzg5Lpss3CKKeh5MK0lFzNx2eFxBLDji0ou7IJATcGzN/TvA8T/X9PiUdpQmqrRhOCHg6rVoKhone8WxWRcqiDbEfaSv+Gcbo7idHH8JrDMd51wLSe2My7o6QXRjRPY+nzJexCYKEUMRbU4DHUqKlc0IQBIiiCFVVwXHeKecjOieTEHDfB25svSaTEGhn2Ec8m1X7ppeVRYuDUhFZfHs3hOFE/0RDhL+YHhJ73rE/P61QMEzYhsAzmJ8y3xirqGHPOABNDYqYHbZ2TmQyGSr1CQATA9aCv6AykhRoR8RncKwRAPSDkxX7VZMt2pqjT6JPoiDCv9wfl02XTlhB4Bh8c0fFSB82BxHOEpZZzE+ppp+nhmPgBXcD0dlhCZMWAvBwOIx0Og1d1x1YFeEGs8MSJUYAjKUE05a+hDcQeQZfz6oIBdy5j50cuJ05zSQEfDsXgkIDKAif8HBCcfRkVSUW38ypPQkyiP4kFeHwyKRgYFkWkWjCoRW1x0rTMmCU+siyDFVVwVBNRKC4NyZjNNm/CZLxtIiHPppIT9xGFhk8m1UDbWXLAsBXY/J1o8PUoIjHVKNG+AxZZPBwQgHrwLkaD3F4Pqci5iF7USKYjCYFfGGyj4XjBcQSvS+buTcmI2NhF4zneWQyGaiq+Z0Owh88mlIw0GfuKYAxiPIBmUAEgpDE4utZNbAzGVjAaOqtuflYcWogCC+QCNvvADQQ4/F8LgQlwBkAwlvMDImmSycEUUYklnRoRZ/DsoZLkRVrvFgshnjcW43KhDM8me6f5knASJx+RU3PgSKisHg2q4ILoFXTtaJZ3i/iLKe5uRaC6JrRpIA5m5rORlMCvp4lb2ai99wbk00PnpFkFWo46tCKDASewaNJBcmweVEnCAJisRhl/PsEjgWezqh9MfV8ekikxGlAiYc4PJtVA1cNwxZKOv7jQxa7J2XsnZaxuFt0e00E0RV3hqWua06nh0Q8orpNwkUeTSqmM6dqKApJdkZcywKLR5OKpfK3ZDKJTCbjwKoILyMJDJ7OqIGefj47LNEMpICTinB4OhOspAX7H4tZnFx9yvgv7Raxe1p2cUkE0T0PLGYnAeCLURpoR7gPxwKPpxWokrnMaTgat90BKCSxeDQlm87i8jyPWCwGUSQHmH4lJLMfp9sGLwC4k5HI3rRPGIwFa5gdmytWbz3461YBF/nbjxOEX2AZIwAwW6v/cFLBzBAJFcIbKCKL+SnFlHBiGBbhaByMTd3vEYXDwynz5xIAcBxH4p9APMThyUxwhBMAzI1ImMuQ8O8nMgkhMBUBDa/mpbKOt5t5aKT/CR8Tklg8mOwsg8+xDJ7OqpZsCwnCSeIhzrRnOM+LtliAxkMcHk0qkCw4XmQyGQwNDXW9BiIYDET5wHjffzEq484wCf9+ZDQVjGnWTVM5J1ca3m4VerkWgrCddITH/TbWa7JoePgP9aE1HeEPhuK8aScRUVIQisQsTwFOR3k8mlTAW6iei8ViEAQKpInPGUkKvm+M/XJMpt3hPmdiQMSXPj+OW+7jbh6VsHZQ6tVaCMIRJtIiZoYaZ2kiCofnd1SaZE14nskBEbMms42KGkEoEocgmnveUJzH/XHZksNFzdWHIBoxNSjijk/LZb4alzFNE4wJANODom3Ogm7Qtojz7VYBhxeVXqyFIBzji1HplnViKsLj+Vzwx3gTweHuiIRRk6VpDMMgHImDZTsLcEeSguWG93Q6Ta4+RFvmMhImB/wlou9PyL5bM+Esd4YlzPi0/Ksj1fN2q4BGjcEE4SceTMjXNoWZhIBv5oI7vY8ILo8mFaSj5krUOF5AuIMegIm0aKmJURAERKNRKvUhOuarcRkjXVoy94oHkwom0iT8idt8MSJh0oe7QR2J/2yhSvX/hO8ROAYPJhVMDYp4PK2AZD/hV+anFEQUcztWoiQjFGk+XXd6UMS0xVpmnucRj8dJ/BOmmJ8yH8j2mkeTCsbJCIJowVdjMsZ8Fhx2fPc4OK/g3TYFAIS/OTgvI1+iXSzC34g8g/lpFaLJ4UmKGoaihm89ficjYcJiScPw8DDS6bSl5xLEkxkFMY/2XM1PK6bL7Ij+5OGEf3ayABPiHwBW90vYOqYBYIQ/+XWzgMWdIvbPKJAl/E9EZvHYgnViKBKHJH963pejsqWJ2IqiIBqNQhRFMFY6gwkCAM8aU4A91XvFGAP2RhL+EXOE+8xPKRiKe3snq4bps+3tVgGnWa39NxKEh/h5NY/1w0/OVav7JWwckpMV4W9SER6PLAQAkVgKgijiq3HZ8s0qFoshHm9eRkQQnSILDJ7MmN/JcgKWAZ5Oq8iQ8Ccs8HRG9XwpG2BB/Fc0HW+3CihruhPrIQhbKVd0/LCUw+7p7R2rhU1ysiL8z2hSwF2TlnM8x+B3T8aQSZp39ZFlGcPDw1TfT9hKRGbxdFqFTYOpLcGxRhDil+wt4U2ezapIhL1ZylbD0ml2ntXw6yaVTRDeJlus4vulHI5aCPw3GwVcFagHgPA3s8Od1+xLAoNv7qgYTspIJBIdl+wwDANFUSDLMpX6EI6QCHN4PK268t48x+DpjIJBGvZIdAnLGAFAzV3Qi1iOsXdOyljeK9q5FoKwjbOshu8Xc7jItS5RK5SqeLORh0b6n/A598dlDMVbZ+NDMotv7oQQ/9hgqShKxwO5dF3HwMAAotFo12sliGYMxXg8nDRfytYNAs/4plyD8AcCx+DZrIqwl3pZ6uhqVR8+Nk8ShJc4OK/g+8UcCh26+pxeaXizkXd4VQThPPNTyrWwv0lU5fD1rHrLIjQajUJVW2dbk8kkhoaGbFsnQbRiLCXgyzFrg+bMIvIMns2oSEW8m6Ul/IkkGAGAKnkvAOh6Rb9uUdkE4R22jst4sZyDVjXXk7JzUsbiLu1kEf6GY40AQLlxs0mEDeHf7CaUTqchSbf7BliWhSzLkGW54f8ThFNMD4qYdXh6qvxRnHm9PpvwL6rE4umsCskDzez1dC3+C6Uqft0sQKf+X8JlVvZL+GXdegZ/abdIVraE71ElwwKUY42bTTrK4+s77W8+Q0NDt5p4VVXF4OAgeJ7KIYjec3dEcmyyriIaoqzZThlB2EVEZvFsVgXPeScAsGUv4viyQhOACVd5v13Eexu8+xc28zi5Iitbwt/EQxweTSkYTgj4+o4Knu3spjM0NASO48CyLJLJJMLh2wPBCKKX3J+QMWyz7aaRjVU83ZBJBIvYx7LLDi/FjmNbIdL6IfmmE+7wy3oeK/v2lOxUq8br0RRgwu9omg5ZYGDmXsOyLFKpFARBQDgchij6a2Q9EUyeTCtIRezZfQrJRsY/qpDwJ3pLIszh2aw7blY3sbUL4detAo4vKWtK9AatCrxYztleqpMrVvHLOu1kEf5l/bCE1+t5rB2UsLpvLikjyzI19xKe48mMgmiXmfqwwuLZjIqIRx1YiOCTjvJ4OuN+AGDrGaDrwNutPAplagAgnCVfquL7xSwOzp1xmzq+rODNBgUAhP9Y3it+Nofl3XYBOyfUy0L4G+GjD79V55SoyuHZjIoQCX/CZYbiPOYtTGa3E9vPgst8ler/CUe5yGv4YSmHs6yzu0ybRyWsmMyaEoSbvN8p4sPO7RK41+vUy0L4H0Vk8XRGhcibK5yOqlxXgQNB2M1IUsCDCfcCAEfOhL3TcsMbEEF0y9Gl4eGf7ZG97PvtAvZOaZYF4X1+3SxgpcngRV0Hfl7NkS0z4XsiCosnMyo6HTAdDxl11opIwp/wFuNpAV+N92aexU0cOxuW94q01UzYyu5pGT8s5lCu9Las7M1GHudtJgUThJu8XstjvY3hQrGs4+fVPMoalWUS/iYZ5vB4un3ddCLM4emMCtljHusEUWNyQMTdkd7PUHE0FH67VSDRRNjC+mEJP6+6M4W3rOn4Zb2AYo+DDoJoh64DL1dy2O4w0XKZ11w7jwjCTobjfMuyiWSEx7MZ7w1XIoibzA5LuJPpXQAwNyI5K/5LFR1vtwrQaKeZ6ILF3c8bGN3gMq/hzQaJJsI7lDUdPyzlsH9mrizt6KKCX6iZnQgA42kBX4zeLptIR3k8m1EgmOwNIAi3mMtImBp03lr5TkbCnWGHxT8AnF5p1ABMWGZhs4ClXW/0jxyc0TA7whsUyjp+XMrh+NJaP8rWUQmLHjmvCKIbZoZEzAx9ypoOxAwrRS9NUyWITrg3JmNiwLkA4E5GwtzHHYaezGzfPCohJLGYHqKBMURn6Drw81oee6fe6htZOyhBlVhMOniCEkQrsoUqflrN4TLf3Zbq0m4RssBiPG3v9FSC6DVfjEooVaooaTqeTHtniipBmOX+uIyKptveMzsz/En4Az0S/4DhNR2SWQzGevaWhE8pVozGxBOLWU2n+XWzAEWkY5noPRc5DT+t5pEr2lNL+WYjD0lg6FgmfM9ATAADkPAnfM/8lIJqFdg7sycAmBmS8MWNpuKeel+93Soga9NNiwgmV4UqfljMeVb413izke8680oQZji50vDDcs424V/j1Rq5WRH+Zve0jJ9Wcvh5LYdTmmdBBIAnMwoGbEjKTA+J+GL0djNxT8V/rkgDwIjmnF5p+GExi8u89y/exbKONxt5VKrkAEQ4z+F5BT8u5VByYHp6RdPxai2PQomOZcJ/7JyUrx2sqlXD/YoSM0QQeDajIhmxHgBMDYr4skFDPNBj8Q8YN7F32xQAEJ+zf1bB90tZFBwQN05xltXwhlxTCIfZPS3jx+UcNAcDzWyhip/XcqBYlvAT28dlvFr73IWtVNHxciVHwSzhexgGeDarIB7iTD93ckDEvbHmA8RcGXm3ul/C5rG3GjkJ99g8KuPlSg5VHyZrdk9omjXhHJtH5Z758p9eaXi9Rna2hD/YPCrj9Xrj4zVXrOLlag4VGmhH+ByeZfBsVkVE6TwAmBgQ204Odm3e9dvNAtXmEVjeK/reP395r4gtCmYJm1k9KPX83Ng9LVNpJuF5Ng7bnxvnWaM5niD8jsgzeDarQJXaS/bxtIj7bYQ/4KL416o6ft0qoERTU/uWd9uFwGTN32zkcXxJwSxhD4u7RbxzSYSvHZSwul9y5b0Joh1rByUsdDj08eiigp9pN4sIAIrI4utZFbLYXLaPpQQ8mGgv/AEXxT9g2NZRlqk/eb2WD5TA0HUjALDbiYXoP95tuz/Y7t12Absem7FBEKv7JdOaYfek3HGwQBBeJiSzeDarQGwwuXo0JeDhpNLxa7kq/gGjU39pLxjZX6I9Fc2YTLpt8wALL5ArVvHLRgE6bWYRFnmzUfBMUPxqLU+lmYRnWN4rWjYL2TikidZEMIgqHJ7NquDqBlqMJAU8MiH8AQ+IfwBY3Cli79Tbvu5E9+SKVXy/lMPhRXD/1ieXFd/3MBDu8Gotj80jbwh/4OOU7dUczWYhXGdpr9h1iejSbhFrB945vwjCKv9/e3ey20pTRwH8IEACISQQKyQWSOzYsOD9XyCDY8eOM9huz/M8dFX1zKKST7ncL/c6joeq6vN7gTskbZ+u+g9/+dNv8d9//RH4DfD3v/4e//nn54I/YEj4B4DHHpcmuWwtElzXBda++yeJvXmEBm+zaE9JCtw2xNHXuR+DivS27YhTU+hCasMAtSP1hj32lJO3zpQ/f/vz7/Dvf/zhoOAPGBT+VaQbgDln2j3TTYyr2vE3k5rsZRBgwJpp+okwznDTEJiszb0N24jku1nqROfwPAiO3v9y35KYGvy8Ee1jvNI7s0ofjLv9GWPCP6BLJtgA7JbBIsJNPZ/zlh86Cqsc3HTQYWSY4qYusNiaH0Sm65gL7eisnvoK3oluUO+akp/NZK3JOkapJZGmuqG9fMALgFHhH9CNOe0p6/Jc0JqEuT4xjJMM5Y5EYNHWYjqPndLBfy3sCSDdGZsm6Twee6dtfE9SvQV4p/JzG01umG508H+/8b03j1D95MG5ceEf0A/+3ILTMPrYyyDgLQ6AnUxRZgMwvfPW/2Jj8KgPA3RnLGej03noqrM05gZRhjtP8HCGrDHbxCg15a9WUrQnIZ4/0RtjZPjPMqDaVZAhH0obVTqKDa/vTNcxqpwzTQDmWx38VWhf8H9T6UinJ3bR5VQ6Cp0z3vzvVIqCJ5DY+zhSTsy3+sT/R8MXvNH+PTJGhn9AP5SPPZ6Y2iTNgIInjBpXaIr2NOSYuZwbr2PcNHxEDmw1LzUlNtKekiUy3337MqNuV36Cu6Y4+59LtK/FLkGxKRHu8d1RGwZ7lcwZG/4B3c381dm+dB4qynBV8zFe8UTwI489hTGnTOTSYBGh0BBIHTlhjBI9AlSxZIKOoNSS6M8vV042fW2gJDLNcpeg2BR7Bf83T331095Zo8M/oLf6cS6v2bYyxXXN5zbQPVQ63GeRN52Zm43vvkpRagputKaDZdCTd0zYcTFYROxTI6Os/ATF1mFDQ6rdH++0MD78A/rE1KapGHmy2CW4rvtWNi9eQhhlKLe5NCkvvHGIB4dHZC52ycFzpinfsgy48wRGBu1DaU1C1NmvRgZYC13q85X+sPuWxPCD58uK8B/FGapdlctZ8SYbrWJc1XxOS/iktUg4Mz0HasMAz333f87DRYSnHPw76XiSVPeHmVgmWhsEHDdOF/UW/OURBkMUm/JXl0haEf4Bff3BKzlzdGYh7jxe+R9qtIzw3OcJk6see+roSHp2kQAAB75JREFUm0lN1hyzoZ32E7/O2Dd5q3W1qz48MSU6pY1MUWxKiOB41RQFT2C+/bZ6xprwD+hFBt4JF3/QfuqjwOlShnPxxpyZ7qJyW+YyCD/2GJjox6IkQ6EhMbNgVGyxKTHjviE6o61MUWyKowZ/QJfY3TbEN1utrQr/APDcV0afGLiu2lOocQLT0VQ6dnwR0s9lmW5e7F1wasml3bcllj77s+h7YZyh0BBWLfC88yT7DeksdipFsSXgn6h/Mkkz3DYENq8DR6wL/4AOoKf6D6KPlVoS7RyeaJ5apaPgH/lNn84rTjLcNMxqXryENNUnpvx9pveCSAePhWUT4eIkQ8Hj7zOdlq/0if/uxJMAw1g/h75K7Qz/MkhRZf3/2URxhuu6MGIcm4tkmKLclkjZP2GlINLBnzc4mgp1zSoHNBAAqDDDrfdtyYFNVJjizvvcnHWifflBimLrfCPAVZji1hN2hn8AmG1iNgCfgR+kuKoz2Jzacpeg0uHIRNuIIMVNQ3DHxf/ZiMTJ3Qb0OSLQQWNtafB/s5UpCp7gAQ0dlQj0QcnmzKVl1p78v2lNQnQusA48L1Z+guuaOPsvZl7151GuJsTYbitTXNf5fHxkso45GCDH/EAHZleej+UuwZ0nLv3XIEfIUJ/4X+r5sDr8A8BTL7CujtAGk3WM67o4ypxZ2l9tyI3WNlj5CW7q/tGnMrimM+PSpDzaqRS3DeHcNvPJOkaZS+3oi1SYodiUF70Rsz78J2mGx57ioqkj6s0j3DYEa3Yv5KGjODHFYLONfjFW/MzZS20Q5HoCUt5sZfpLU6GLenMutaPDBVGGYuvyPTDWh39A15ey/v84muOQJxsXlqQZym0JFTJcmma0ivlifIByW2LKviHnbUSCW+/4c8pN0xyHaHDnEH1SEGcoNs3oEXMi/APAcBmhxnrpL3nuBzzRMISvUpTZAGyU3jzCHZv+DnZ/xokWdH5rkeDWk5COB/83L33FJY20tzDOUGpKY8rUnQn/AFAfBtwweaByW8Ib8+XJJLNNjIcuX8ZM0J7yRuyrwtdTL5ZoumfpJ7htCKic9YhVOhKjJW+06MeiJEOpJY1acOdU+Af0inmeLu0vSfXaZ9bkmqkzDdHk9fJFNUYBqnwJOwq9xVIiY/53xmKXoNDI70vdXcuurcV0XnGiT/xNG5fuXPgPogzVrkTC/P9TMsxwVfMxWZv1S0nfeuorjFf8GV3C8yDAy4A3Yse02Ma45y2KE+bbGIVGzhdgZcDdBWa1k/mSFCi1zOx3ci78A/okgg3AP7aRKa7r/sU7zmk/5Y7ERvJndU7VroLHMZUnMVhEeOZLldWmmxgFTyJi8zuiOEPBk843OtP+dPAXxh6uOhn+AaA7C9GasFzi18y3Ma5rvrOj2FwUxRnKbZXvE7Yzum9LtKf8/DglbxTw/9hSk3WMgsepV+/JMNUvQ/yMzr000yf+Jt/YOxv+AV3/b1qd1aUNlxGu6jm/prXURiSocALQSaUZUPAk+uyBOYtqV7Fh0jKjlQ7+Kc+OvrOVCQpN9rTkWfZL8Df7O8Tp8A8A1Z7iltpX7WmIYlMC/GCy1ngVcxzriURJhtuGMP5D2zX3bcnyQ0sMl3rcLcPtxxbbWH/PUi6V2hIjC6ZOOh/+fZVyUgeA2pATS1zRHIcslzgyFWW4qQveFF5AkupV96yXNttgETHU7mm0ilDp8Ps2b0otieHC/OAP5CD8A7o+8bmf3+ayh65CnQvQnFLtKiMnCNjIVylu2Px+UTLUI0BZQ26m3jxCqcXg/xndWcim9hy5b0sMLAn+QE7CPwB44yB3dbzZ6wiyDk+JnVTpKDZtf9FGJLhpCO4GMcDaT1DiCFDjdGcRF9wdyBsF3NOSA+W2fX1iuQn/gK7/z8vpXhBnuKoLK2rP6DAqTHHf5k6LQy13Oviz3MQckxW3WpukPQ05ZOCLnvoKXcuCIe2v0lFWLknNVfiPkwzVnnJ+LvFOpbiuCSy4ddB5K58TgA4x3cS4yfFWUpN1piEa3K9wca1JyD6xI6m0zR77SId56Cp0Z3be7OQq/AP6atnlD7TlLsF1XWDLhVC5MVhEqLGnY2/DZYSbBmeUm+xlkL8yTZM0xyEXZR5ZsSmw3PF72RXVrrK6pDp34R/QYanhYB3eeB3jui6gONo0d+rDAH2Lmo0upTuPOO7WEvdtiRlvL8+uMQo4TvgE9A4R9he54LGnrJ+4l8vwDwAvfeXUNVx3HqHQEEhSppq8qnQkT5Z+oDUJUWHjolVKTcmwdEb1YYAXTqg5mTDOUPAEZMjvaVs99RVaE7uDP5Dj8A/ot7edA9NSvDFDDQFpqk9LudTue/VRwDIGC4VxhmJLIOBG8pN7GQQsHzwDEaQoeML53kMXPffdmd6U6/AvQ70AzOZthU99hWde0dIrEaQotxWrWt556ivUeJpprZ1MUeJyqZN67gdssj6jjUhw5/F32iYvgwDe2J1nJNfhHwDm2xiPlobn+5Z05i2Ujme+jfHA7ZIA9Bg2PiP2m29j3HPJ1Ek89pRTocYW822MO77UWqE2dO/lOPfhHwDakxAdi8Y1xUmGm4Zggyd9qDsL4eU89JZa0toxbPS9/iLixtQjq/bcqF+21WgZca+F4WrDAHUHy+H+Bz2ep6RLX6LLAAAAAElFTkSuQmCC;" parent="1" vertex="1">
          <mxGeometry x="-2520" y="-620" width="804.85" height="478.5" as="geometry" />
        </mxCell>
        <mxCell id="xfuvCziJlvqx6FtmpvHw-9" value="" style="shape=image;verticalLabelPosition=bottom;labelBackgroundColor=default;verticalAlign=top;aspect=fixed;imageAspect=0;image=data:image/png,iVBORw0KGgoAAAANSUhEUgAAAycAAAHhCAYAAAB0h8EpAAAABHNCSVQICAgIfAhkiAAAABl0RVh0U29mdHdhcmUAZ25vbWUtc2NyZWVuc2hvdO8Dvz4AAAAudEVYdENyZWF0aW9uIFRpbWUAVGh1IDE4IE1heSAyMDIzIDEwOjE0OjA0IEFNIENFU1SicukzAAAgAElEQVR4nOyd5X7cyNb1V0mNajMzdBsygYkpduaGzkU9d/FexSSZ4EySmZiZ2W6Gej9UK2hoEFRJ+//8ni/n5Nhyd0naq2rvtdjW1haHg3AOfNxMY/s0Dzj6m/0LY0BPSxC/j0ShMbev5nYYc+biSpzjw1oae+f5mn9GbVcq8YcvObGIhtmEgVhYc/tSLIFz4O1qCocXBbeuwMZ/LQGSXbCmAU9HDPS0BNy+lK9wDvy1nMLJlVtrkFAFxoBETxhjPWFY+ZouceDVUhJn10XrfijhCRx/0zMGPB6KoqtZnoe0l2EMGO4M4ankwgQAOOfg3P6qQmMMT0ei6GisfQ3y7/6/tv+VZNWTxLQ26PhjMuYZYQKI+3I6bqC1QXfwt1a39pRcqRJecEBnmEvEpBImgFiDc2MGWmJOrkFCNTQGTPZHMNZrrTAxf/ZswkCTQWuQ+BFX3vaMAdOjTr+Y/QdjwERfBA8GIpY/VOzECZGiaQyzCQMtFjwUay/ilCz/HKWnJYD58RiCukILuEI0BswlDDRF7XwM+0CQANJedDSs4flEDO2Ncr7rzDXYYOsaJFRF08Rm8mhXyLZz/6DOMJcwEIvQGiS+4dpq0Mo7h7Qg7UHTgCdDUcS77Xuo2I3dIkXXGGbi1rYK1X42QqcqPzPUEcLUqCH9iV89BHQhkqMhq/7I6teR8qtO0gtvjul4PhFDo+SFfzAgisNoSO7rJJxF04CpUQP97UHbf1c4KNZghNYgUcbVlRAOiOIwFPBw9eECmgbMxJ15qDiBKVLsECqRkGbrGrTmVEXS6ssmGICx3jAeDqp14lcrkZCGuYSBYM1rsPp14omVJekfwBjQ2RTA84kYIkE1FnA0pGFujN7FhCAYYHg2FkO3g+33RpjWIPEN12VqQ0QUh5rrV+INoiENf0w2oLNJrv5mq7BDpDRGdbEGba6E6ysI/SFWGAN+G7Snv1lmGqI6ZhOVnhLVthY8s3ok/iMYA3pbg1V8l/LQUDad0Old7GuMsIaF8RjaXGi7b4wIgaKrdvMQliPFY6i1QcfUCAmUemmJicFhe3vY5cBqkdLWEMBMPGq7QDGpX2p4T6wwBjwdiWK4U91WxHpojemYSRg3iDJrmgWVR/I/xDQf+X04qqywbonpmE3E6F3sU5oMHQvj7rYiNhs65saoHvQ70nz93S0BPBpU96HuJoyJz29hIoawIm0EVmFly1dnUxBPhiKOCZTvqb+I/LmAlbiKu4GADjwbM9Db6o1WxFrpbArg6Yj5HCSbBQBK/DGMiVZE1cxHbqK9Uff8rBfxK+2N5VZEy+bfaqetQaeOGp8j1Vc/0B7ERJ/6D3cnYQwYbA9hml4mdYsUxoC+tiAe9Iehubh3b53EUEOwGGHRitheh7Wzl+hpDeLRYKTi3B/5v+EaUeQP0hjw20BEZEC4fTEW0d0cwJNh+e3nCQtg4pnzbEyulr7OpoDoqKE16EskWoqC0a4QRrv81W9eK2Yw0sMhEnTfU89pCmMMw50hMfNgw7XVgrXF502Cxb0K0GxFbCDXvq8wAAMdIUz2hcFuWIVyfHM2otAfpmnA7+VWRK/R1xbEQ+pm8DTm5ubUiJzfc3dLAE8UyGgjrEe6rUqRzRFGvsixfZKDA5l8SqKVB4cHO/zZn18ppkCpJn2eMYZETwj5Isf6YVa6Oumm66l/Ddz2V9q3urqaA5iO087YTTAAI11hFErA8l4WXLpVaDEK/nm6zjAbj3r6xG+wI4hCiePLTobexR6DMWC0K4yJPrk3g/tagygWgU9baVqDPkLKpypjwKPBCHKFEg7OC25fjnSY/uNO2vypzvenKJUIFcYYJvvDyBc4dk5z0tdO9giW235y/b9lsEPsypIwuR3GgLGeMApFjvXDnDcFiqJ/UjSkYcb2AE05GOkKoVjiQiQr+n0RP8IYMN4bRlyRVsTBjiBKnOPfbRLJfkHaJytjogB3w85OZsJBhoVxZ/3HvUalLV8aY3g8FEFXs5pD2s40b93WJnb7b070hPCIhElFMAY86A9joD2oRBFRMQq1bv1Mk6HjuU9cEQGx/ZDoDlO7tUfQGPBwMKKMMDEZ7gzRTLKPkPrpaqbIN/jkJXAfjVHRn98SI8FmBZXMpmgaw/RoFO0N3hCD7k2bcJFhMhDBeC+9YKqBMYZHQxF0t6gpkn9AYVECAB2KhStahdluPdgRsrPTk7AZc0ZqSNF28NHuEBI9JJL9gPRVfyjAMDNq+M4i93vMxOE/JmOIhqT/ypTkLqGiaQwzcQNNUW+KwsrOO+qDMSYyTLpC9GKpAY0xTI1E0aHifIMHpvcZA3rbgpjzcUghY8DDgQj6W4MkUBRE1xhm42rbtTMIy+4Reo94HiUes7GIJgZnlbhaazHtbSm51zluEirBgBAofhOHlTdr3Y6usa8ZJvQ+qR1NY5hNGOqcnCouSEwYA4Y6QniqcLiiVTAGPBmOokfRVle/EgkyLEwY6GhScHPjJxiAyb6yGZDP70cvo0yl1RrTRZaHMldcP6abxpMheim6xfdCxQhrmIkbCNCwxFfuEy/RsIY/JmOedjRyEl1jmIsbaIhILFA8IkqAb3btvw1SK6KJmAeNeqLQ9QMNUQ3zEzE0GxI/M6rk6yleG53ieRWlSv2u5gAeD0Z9IVA0Bjzoj2Cin/orZYFzjqaohtmE4UqKvGq0xgL4YyKGRo+2w7lFKKhhLmEgEpToQeiB1q2f+RquKFHmkSwwBswmDLSSYY3UtDboWBiPIRaW6FlhEYwBj4ei6PXCLB7xC8qt2H4fpMibQ2sjXWoOrXmdtgYdUyNREii3wAB0NQexMGEgLFMB7SGMsBDJrp7ieVCQmGga8KQcrkh3+c1oZYHS5KEdec/AxGbu/HgMoYB3VzBjwNORKLpb6BTPayhZOYx0hTDa7c0ThaDO8GwspvTQmh/obgng0WBEzRvIRhiAgfYQZuIk3uym2dDdOcXzqCAxMQeH++gZfC9BXXxWhgd35lWFMaC/NYgZnwTcMgZMj3pjnoYQaJqi4oQBmOgNY6DdW7aGsYjoz6dsFzUYaA9ioj/ipSVYFwwM8e4wHg1FSJg4RHtjANOjDghBD5+SfE8kpHlmcNgpIiGGuYS/HTVlgTGRB/LEZ+YNjAFz1GboCYIBsUGvpDgBvqXIe8U1pK1RWAXHIsp+Jb5ktKvsu+72hbiMBoYHA2FM9IVJmDhMV3MAT+wQhD4RJCZNho7nE4anBoedIhbRyo6SdO+7hWne8KDf223vt8EY8GwshmZV3AyJX4iGNcyPi/B1pSthxoCno1G0KewEZPrnz48ZCOo+fKJ4gLHesLKhVlagMSZmpDrDYH58K7oMYwx9bUH8NmDBKZ7PBIlJe1MACxOUI1UPzYaOuTF/OWrKgmmgM9brzXb3StE1cYLSQJu8ytEY1TE/9i1PTvlvUGPAzGhUSUcg8wiW/PPVhkG4+vS2Bt2KX3eNgCZaOvragrSGXYQxhqGOsllItf9jH63Xn2EM6G0N4lnCQED5t6H7tDWULf/pWeAYGgMeD5OBjkkowDA3RnNQKiFc5X78zjzx7YmAvCgiCvW8MgZM9EXwYMCfR7BegzHg9+EoOpt/OsXzcOFnhDQ8n4hRf75ExLtDiHdX0Gbo4XVZKYwBgx0hPB2hzSEr6WoO4PeRKAkUB9A0YDpuiLwP4ivRkEZzUCrwnatc8CdXOU+IE0BYa6qSIq9pwJOhKOLdtNPhJRgDZuN3DOV56FSlxdDxfCJGNqIu8n1AKOffFtRE3w1thh5ae1Zg9uc/pHBFW+htDeIRhQfbSjDAMD8WQ9fPG2IEADEHNZcwEKB2eSlhDOhrDYq6/YavSIFSvnJaFEiR1zVgJm6gv512OrwIY+L7rajnVcGCkQHoagrg+UQMEerPd5TbxMhN/DYo2gwZoMzacgr2fX++2xfjYQbay3NQ9CFbjhHWsDARI3eqe2iiOSgpYQwYbA/h9+HbT1g995V1NQfweEjOFPloSMMfkw3opDYYTxMKMMzEawgglFysMAD9bSHMJAxo1LNhO9WIkZ9hEG2GXR5xM7QKjQFPqD/fMYY7Qxj3+ZC21TTHdCxMxNBIQ98V0Ror50HRxyUFjAGjXfefWnvy6+pvC2JSshT5lpiOPyZjaIx68iMnfiIW0UQQYT1FvERihQEY7Q7j8TBlmNjBz0KkWjFyEyKcTG03QyvRNGAmQf35ThPvCXs2NNlpOpoCWBiPKTVfKwMdjQEyapAAxoDxXhE5cN/zwLOV8rCZP+H2YmQiTXxhIkbDWT6jJaZjNm7hKd7PYsUhwaJBtMFMUoZJ3dwkQqwQIrfBGDCbMHw/GxQJCvMGOrV2HobyHFSnt0KTHaXsKjeXMKB7tmqzFzJqcBeNCVfTeIV1uWeXOQMw1hPGYId7D0TGgKGOECl2H9PRFLizr7JubBYsGmPf2mBImFSM0yLkLgKaECh+tdZsjOpYoHBFV2EAfuuPYKAtSAKlShgDhtrJVc4KTKMGqsecRdOE3fVwZ+XttJ5+WzEGPByIoLfF+WN8xoQ4ekgDgb6ntzWI3wYdfLFYJFh0xjAbj6Kv3AbjdpEtE7eJD1k/n0iQYTZhIBTw18OovTGA5xP+FWYywRjweCiKHhfex6rCmGinJVc56yCjBmfRNGBqtPp2Wra1tSXfm9RiOAf+Wk7h5KrgyO/TmHDLGfRxajjxKyv7OSztZSBV7XrLAo0GNcwkDDTVOSOl2mmLjMLCSs5TRbxcTKJUcvtK7IUxoLsliCnabZYOzoE3qykcXTjzPlYVMwttlCIHbGHtMIcvO5K9jz1GQBebYm01uMr5QpwAQKHI8XIphctU0dbfY6rEbvIeJ27gv50s1g+zUj8Qmw0dMwmDhi49yvFVAW+WUyhJvAbrwbSppN1meSlx4K+lJE6v7X0fq4rGgIeDUQx20CmTXXAAq/tZLO3J/T5WlUhImALV2k7rm7PugF5OkbcxmyEcZFgYj5EwIW5lsj+MgfaQlEUTY0BncwDPJ8kNxst0NAbwdNSQcg3WC2NAvDuMh0MkTGRGY8DsGBk13ISmAU9HDRImNsMgnhVxcpKznMaohoXx+ub8fCNOAJEzMhOPQrdhGqrJEFbBLTF62BK3wwA8GoygW7K+a8aAvrYgZm9JayW8RU+LyIPy0kuZMWCyP4LxPgpXVIGAxjCXMBCjvI6v6OXPpKeFNjidgDFgvC8sBrXpoWEJrQ065sdjdc/5+e6p0GzomLbS3pUBnU0B/DEZQ5QSs4kKYAyYGomiXRJbU8aAka4wngx7q1gl7magPYgH/d44YTDDFUcpXFEpwmWjBjqpFW0wCxMG2imXyFEYhFW+rB0NylCuhefHY5YYr/iymu5sCuCJBXZyjAEDbUGRPkqLmqgCxoCZuPv2powBk30RPOin3WY/MtIVwpgMeVB1oGniXqJwRTWJhTXMjsUQ0BVehHXSGNXrboMhaocx0dHQ20pW17XAyjk8VtbCvhQngGhheVCHnZzZ2+y11gjCOQLlxGq3bE6/7jZ3h1z5/YQcjPWGyzk2bl9J9YTKc36dNOenNE1RDXMJw7qOBoVoaxA5PGR37S6MAb8Pk9V1tTAGDLSH8NTizgtf3w1DnbWlyGtMHAOO96m940i4TyTIMBM3EHQ4f0IrCyPabSYAMauhWltDQ1SkvtOcnzdobdAx46eZNwZ0t4g2mKCPT41kwmy5ps2OyhAt4SE8ssEZ0dfixEyRH+qo/KWsacDvI+XEbFuvjvALjVFNvJQduhsjIVHUdUoy80K4j2nUoMquYVtjAM8nYojRbrOn6GwSTnJeFyhmS/i0R13zVIYxYDZuoI1mf+6EMWC8N4zJPnvmFn3/ZGcM+G2g3Gt4D8EAw7OxWEX/liCqoa1Bx7QDL+UmQ8fziRj1NhO/wBjwdCQqtWg1wxXnxwzabfYoppOcVwUKY8BwZ4hawiWGMeDZmEGnsreglevmuI3zir4XJ4BYiE+Go+i446XcENHwx2SspqRLgqiEruYAHg/b81JmDOhoErvN0RC9EYmbYQyYTRholfA5Z/Y2T49SUed1+tvrmwmVFcbEjJdXXPK8jMaAuTEDjVH5noVuomnA46GosF+28/fY+LOVQmPA9Gj0xlCotkYRTEctBITd9LcFMWnxS5kxoK81iLmEAZ2WMHEPZltDY1SexcIYMNodxiMKV/QNQ50hTNjUMuIG5m5zLXOuhDsEdYZnY2RWYKJpwNSIgf52+7uH6BP/DjNFPlpeiGYwHbUQEE4yUqNRw02YA2tPRmi3maicYKCcPyFBdpNpdz1B4Yq+ggEY7Q55IsHbdEa0e7eZsJ5wUAgUGZ6FbhLQGeYSMXQ7FBDq70/7BqIhDTOjUQR0huHOEH6nYDrCBcZ660+tZQyY6IuIFgLrLo3wCdGQhtmE4Wr+hMZEC8FoNxV1foRB/QRvM4enj5wRlcUIC6trp101ZSES0jA/bqC90bkWNxInN9AY1THSFcIk9YUSLmGm1tb6QjOLujhlmBB10BTVXAuZ1TRgKm5gwIEWAkJevk/wVk2hhgKUw+MVGn2axdMQFcLEaRMdn33M98M58HEzjZX9LP7eSINzt6+I8CuMAU+Gouiq8sWmacA0FXWERbQ16JiOO2t5GgowzI/H0E1FHQE1E7xjEQ0LlMPjKVpiOp6NxXwjUFpiOubH3Jm39slHXBklDrxZSWH7NA/Ogb2zPP7dyZBAIVyDMdESUKl7UricmF2toCGIu+hqDuB3h+aWGiIih6eVijriOxgDng5H0SWx1bVJS0zHwngMDREqsbxGmxkW6uWvtuzuOT8eQzjozm6Alz/eqkjnSvjzSxJHlwXAFCMc2DzKYXk/C9InhFt8c0+6u1hrjOp4Pkk7dYQ99LUG8XDQXoHS2qBjYSKGGBV1xA2YmzXtsgbkMREkuTDhXlFH2E9nUwBPRzwqUBjQ0+K+u6cXP9qqOU8W8eeXJC5TxV/+O86Blf0sNo9yLlwZQQiCAeEkFwnefMt2NAXwx2QMhs8dRQh7GeoI2mLvyhjQ1RLAwngMIZ8OnRKVYWbxNEu2CWNatrs1o0U4ixfDQhkDBttDmJLA3dP3lczBRQEvl5LI5m8/G+Ec+G87g92zvINXRhA/YoQ1zCSi0L97Gpp2127vchD+IW6xvStjQH9bCDOjzs61EOqia8BcwpCmbYoxYLCD3D39Rn+bOE32gkAxYwceDcphBCXHne0CHMDmcQ7vV1Mole7/9yUO/LORFm1fBOESzYaOmYR4GDIGYXctwS4H4S/G+8IY6qjf3lW8EMN4PCzHC5FQh1CAYU6C/AnGgHh3GA89mGhP3M9gR1B5Z1fGRHzBpEShp2xra8t34xScA8v7WazsZ6sedtc1hoUJ523VCOJ79s8LSGaKiPdQMB3hDpwD/2ymsVs2EKkWM4eHMkyIerjKlPByMYl8wflShjFgsj+CkS5aw35n5SCHpV31DJS08hoelmwN++7khHPg83amJmECAMUSx7vVNNK5Co5bCMIGOAdOLgvI3NGKSBB2883qunrLao0BjwZFDo9ML0RCPRoj7uRPfA0IlayoI9wh3h1Cose6dlcn0BjwaCgqpbj2lTgpceDdWgqbx7m61G06V8Lb1TQKRSoOCWfhHHi3lsbWSQ5bxzks7ZKTHOEejAHTo9Gq3JM0DZgaNTDYQTk8hDW0xHQxiO5QRaNpwNNRypIivsEgWqNGuupvd3UC2dewb8RJNs/xcjGJg/PvrILr4DJVxNvVNEpUGRIOkStwvFxK4uBctNFwDqweZLF2QE5yhHt8dU+qoNU1GGCYH4uhu0VSK1hCWToaA5gasd8pK6AzzCVi6KE1TPwEAzDZF8FgR0jqsFBdY5hNGFKvYV+Ik8u0yDA5T/5qFVwPJ1cF/L1OKfKE/VxnSnixmMTZ9Y9rmHNgcTeDrWNykiPcQ9eEQLkrn8QIl8MVKwwUJYhq6W4J4Mmwfe5J0ZBIfW9vpDVM3AxjwMOBCAbaglIKlEhQzE13yJoVVMbz4uTosoA/v1zbNiOyf57H5231hqAIdTi9LuLFlySSmZvXMOfA56009s/JSY5wj3BQ7MbdlFPSEhMBobJYvxLepa8tiN9ssENtMnQsTBhoitIaJu6GleeRelvkaplqiGiYH48pYejk6bts5ySPtxVaBdcK58DWMaXIE/awf17AX0tJ5O+Zbypx4MNaCidXJFAI94iFNcyNfcvcYQzoag7g+UQMYQpXJBxiqCNkqS1qe2MAC+MGohRyS1QIY8DTkSi6muU4oWiJ6Zgfj915ui0TalxllXAubN3+2UzbKkx++H37WWwcUu8/YR0bRzm8X0tVPNdU4sCblTQuUta2LxJENTQb34aT+9qCmIlTuCLhPKNWuCcxoKcliGdjBgI6LWKiOhgDZuIGOprcFSgdTQHMj8cQDqqzhj0nTjgH/tvJOO43zTnwZSeDnVPq/SfqgwNY2svi3xraBYsljrcraaSyZHVNuEdbYwBjvRE8HqKAUMI96nFPYgwYaA9hapTWMFE7jAFzCcOdWTsG9LQGMZf4dpqtCopd7t1wDnzYSGPjqD6r4FopceDjJqXIE7Uj5kdqz+EBgEy+hDerqXtbwQjCDjiApd0slnYz+LSZpnZXwjVqdU9iDBjpCuGxDbMrhP8wBUqTg7MejAEDbUFMjagprj0jTvJFjlfLKezVmFZsFaUS8HY1ZbkzGOF9OAfer6exVWcODwBcp0t4s5IiowbCUTiAz5sZrB4Icb1zmsd/2xkSKIRrmO5J/a2VuScxBoz3hjHZT8KEsI6AzjA3ZjhiCsIYMNwZUvrk2hPi5DojrIJPJRkGLpVEUB611hCVYorr/TPrxPXZdRFvV0mgEM7AOfB+LY3Nk2/imnMxO7W8l3X34ghfwxjwZDiK7nuGk00hk+gJy+gCSyhOOCAEip3GCowBiZ4wHigurpUXJ6fXRfx5h82qW2TKKfLUWkPcRzJTwgubxPXhRQF/b1BrDWEvhRLwV1lc/7zYTMOQNTIMIVyEMWB69PbhZK3srjTUGXL4ygg/EQ0JR8ObLNfrhTFgsj+Csd46jSAkQGlxsneWx1/LSRQkFQBX6SLeUYo8cQdn10W8WEzi2kZxvXdGrTWEfaRzQlzfZWNtGoZQWCjhJoyJsNCW2I+9/1o5RLS3Va5cCsKbNESEQLHSAU5jwKOhKEa7Qp449VNSnHAA64c5/L3ujFVwPZxcFfCBUuSJGzg4L+DVchK5gr2Lg1prCLu4SImA0Kv0/TN2nAOfKCyUcBmNAXNjBhqjQqCEgwwL4zHX7V4Jf9Fs6JgrW67Xi6YBT0cMDLZ7R1yzra0tpcpmzoHFvSzWDmp3M3Ia05LwETl/EGU2j3P4vOWs3TVjwIP+CEa6qG2BqJ+jy0JNIbcaA2YSBjqpGCRcJJ3j+Hs9hcdDUWWC6QjvcXxVwJuV2sPCdY1hJh71nLhW6o7kHPhnM62UMAHEdW+f5LC0RynyfocDWN7POi5MgG8ZQJTFQ9TL7mkeb2t8oZY48HYlhTNyNCRcJJsvocSBoA29/wRRKR2NAUyNGtBqWIbhIMP8uPshj3agjDgploDXKynsuGwVXCucA6sHWazTUKhv4QD+3cpgec89cc058HEjjYMLaq0hamPjKIe/N+qbpTMFypVkRiaEPzi6LODlUhLnyaLYtVawpiC8Q3dzAL+PRKsSKLGIhvnx2C/zU15BCXGSzpXwYjGJ48vCL04wKvE1Rf6Edq79BufAh7U0NizIMKmXEgfer6Vwek0710TlcABLe1n8u23NqV+uwPF2JYVMXuGHOqEcu2c/nvqdJ4t4vUyW64S79LYG8ajCXJLmmI758ZgjmSluIf1fdp4UVsGXKW8UUpwDH7fSOKSda99QMANCb7BZdYtSqbxznaada+J+zFO/lX1rT/1SWREWKqvjIuEtNo7KRjo/LbeTqwLerZFAIdxloD2I3wbunk1ubwxgftxAJOjtdkSpxcnBuTh6zXpsZ02ENFLPtR9IZkv4c1GegNDvyRc53qymkMl56/4irMXuU7/LlGitocKQsAsOkbVz16nfwXk5E4rWIeEiw50hTPTdIFAY0N0SwLMxA4FaBlQUQ0pxwiHcjN6v1e5gIDulEvBuNSVdeCRhHWdJYbN6LfHpRDpbwpvVFAryXiLhIuasn92nfqfXRbxdJYFCWA/nwH/bGWFIc8/62j3L49MWZUIR7jLaHcJYz7cgRcaAgbYgpkcN3zi+SidOOAeW94SbkdeH1LJ5jndrKeRtzrkgnOfgvIBXS/ZnmFjBZaqIt7RzTfzED7N+DnB4QTvXhLVwDnzcTGPjqMJTv7Kz5pcdEiiEezAAid4wRrvC0Jg4TXlc4TyKV5Aq50SEdGWwfeL+0LCTtDWI4SY/LTwvs3Wcx+et+tyM3KCnJYipUX89AImbuUwV8WY1jUzO4SM1Bgx1hPBwMOKJlGPCPTgH3q2lcXBR/akfY0CiJ4yx3jCtQ8I1OBfRA9+fovgFaU5OSlzMYWz5TJgAoqXh3RrtGKqO2df8SUFhAgAHF9TSQIhQsBeLKeeFCQBwYOs4h8UdyoQiasc0ITk4r60dkXPxLF87IOt/wh04BxZ3s1g9yPoym0wKcZLNc7xcTOLgXG2r4Ho4uMjjowvBfIQ1VNPXLCtmWCgVhv5l7yyPN8spFF1U15wDa4dZrO5nXbsGQl3SuRJeLqXqNiERxWEGm0ckUAhn4Rz4vJXB2mEWpRLwaTMt5v58hOuxkpfpIt6upJF2Y5dOJjiwc5JDKMAw0eu/IzyV4Rz4eyONXYmsgmvFLAwDOhDvoZYGP7FxlLMsw6ReOBeZKgGdYbgz5PblEIpgdT3BOfB5OwNdZ+hvC1ryMwniLjgHPmyksX/2LXC8xIG/19PQGEN3i+tluyO4enJydFnAn1+SJEzKcA6sUYq8UhRLwF/LKeyeqr1CX1sAACAASURBVC9MTMzCcOuY1qEfsDpc0So4B/7dzviypYGonpOrIl4upiyvJzgHPm6kRWcHQdhIiQNvVoU74s/P4hIH3q+nHDMocRvXxMn2yY8prYSAc+DLbgbblCIvPelcCX9+SeJEwgyTejGPlf12lOw3TAFgdbiiVXAO/LORxgGF1hJ3sH9ewOuVpG1hniUOvF9L4diDz3pCDnIFjldLSRxd3D7eUCoJ8XJ67f2MPMfFCQewcpDDx001h4adgHPRY0g7NfJynizizy9JXKW9+5Dg5aPkI5/s1PgNsx2xYptVl+AceL+awsmVd+81ona2jvP44EAmWokDb1YoPJmwnlS2hFdLKZxVIDpKJeD1cgoXKW+vQ0fFydeh4V252gdkxDzCq2SxEs5yeFHAy6UksnnvL+ISB96upnBOL2RPYYYrqtKOaBaGXn8hE5XDAawd5Bx1RzQLwyuJg3UJtbhMF/FqKVXVRmexxPF6OYVrD4d4OyZOOAc+rKexLvkunUyUSqIw9PICVI3tkzzerfqrHdE8Sk5mffRHe5hM2R1Rtd7lYonjzUoKKVqHvodzYGk3iy8ubHQWihyvaR0SFnB6XcSrGuekcgUhULw6s+2IOMmXe+n2POBm5DS5Ase71RSyCiSNexm/tyPm8qIwVCHxnridq7RIfVf1BCKbF4UhrUP/YjporR64NyeVyZXwZoXey0TtHF4U8NdyEvk65qTSuRL+WvbmOrRdnFxnSvhzMemLAR67uM6UxG6999afElA7oiCZES9kWodqcnJVxIvFJNKK7/gmMyW8pnXoS8wOjM1j9zswrsvPw6LatxPhAjun1nVgJDMlvF5O2WYG4Ra2ipOTKzE0nKS2pLo5uy7i/VrK9Qey3zCHhqkdUXCeLOLtKq1D1dg7y+P1sn1uRk5zkSzizQqtQz9hzknt1Zj6bgcXySJeLydpHRIVwSHypD5uWNuBcZkqem7DxjZxsnuWt9Xaz48cXBQoRd5BVBsadoqjiwL+3kjTOlSEzeMcPqx7rx3x+LKA92u0Dv1ANi9aw48vb7dZdYvTa9qwIe6HA1jdF3lSdjyLz669tWFjuTjhANYOc/hnPe2roWFHKKfIf9nNyPZ89hzpHMcLBYeGnWL3LI/P27QOZYYDWNnP4rOHNzT2L/L4uEkCxctcZ8SclMyOgYcXBXxYp3VI3AznwOJuFkt79s5JHV8WPCOULRUnnAOLO1l82bFHGRLiM14/zGHtIEeFoU1cpIp48eUal4oODTsCB7aOc1jazdI6lJCvc1I2vwxdh4v+7f92vCvA/MxZsoiXi0klnLH2zkkoE79iGjisOWTg4BWhbJk44Rz4ZzONtUOPvwwlQNgoZrB9TOndVnN0WcCLxSQyPsgwqRfOgdWDLNYPcm5fCvEdfpuT4lz0cS/vZ92+FMJCji4KeLWUVMeZ7Xuh7Pa1EFJgPou3HDZw2DvP4x/FhXLAih9SLOdxHF/J1w/qVUoc+LyVRijA0N1iydfoe3ZO8r61Cq4VzoEvuxkEAgyD7UG3L8f3mKGZRxL25tsJ56KFLaAzjHaF3L4cok52TvOWDw07gSmUdY1hvC8M5vYFEa7By8/iQzeexWWhrGsMDwciYAouxLpPTlLZEv78IuegmtcxU+TJprk+OIDVgxz+IWFSE5wDnzbT2D+n+Rw3yZbDFY8u/Pks5hz4spPBFp0oK83GUQ7/KChMTMwT5TU6UfYtZrbfoZvP4nLrtRtBpVZQlzg5Sxbx52ISV2kqjt2iVALeraZwRXbNNWEWNIuK3sCywDnwYS2FkysSKG5wpcDQsBNwDnzaSovAX0IpOIClPeFmpPqzWAxAZ7BxRALFb6RzJbxalmPT2JxRXt5Xbza0ZnFycF7uB6XefNf5miJP30VVcA78s5HG+qE/evPtRrQUpXGZJqHsJKfXRbz4osbQsBNwDvy9nhatbYQSmAYOK/vemVk1/6btExLKfuEyXcKrpZRUZjpmy+uqYiZKVYsTDmDzKIf3a9akWxLWkMyU8JZS5CumxIE3KynsnOU98zKUgUKR481KCukcPRycYP+8gL+WKE/qZ8zZmzOfnySpgGmms+FBA4cStbz6htPrIl4tyblJZJoobRyqc5JXlTjhHFjey+KzTSEyRH2cJ4t45xGPazvJ5DhefEn6bmjYKTK5Et6uppGngtlWto7zYpOIPuYbKZXEBsQVneRJizk0vHPq3U2iUrnllU7yvMvRRQF/LSeRl9hZjnPgP4Vm8ioWJ6KX11vHrl7k8LKgvIWcnVymxJzUhUTHrl7kMlXEWw+l1cqEGa74aYvu8/vIF8yTPPqgZCNflGBo2CFKHHi7ksKZBHMIhLXsnuZF14oCeyDmTN7OqfwCpSJxUuLA27UUtk68d+zqObi4WShF/leOLwv4czGJDLUcOcLpdRHv1kigWIlvwhUtJJ0r4c1KilrfJCKVLeHlYlKKoWGnKHHg9Ypc8whEfWwe5/C3Ys5ynAMfN+RvNbxXnGTyHC8Wkzg89/7uhlcwHRpWFXRosIud0zzerKixu+ElDi4KlJpsEV7uzbebq3QRr+kkTwouUkW8XPJnu12hyPF6JYUkuWsqjRk/8HlLTWe5r62GF/IKlDvFyUWqiD+/JHFBQ4XKwbmwZfR7ijwHsHaotm++0lBqsiWo1Jv/v5lHbl/CjZxdF/GWZvJc5fiqgJeLKV+fXmfzQqCQu6aaiOHyrPLxA2ZH1MmVnPX9reLk6KKAF9QCozS8nCLvV89/zoHFnSy+7Kj9EFEdMzV5ZT/r9qUoSa5QPr1WoDffFCayCpTDiwL+3qCTPDfYO8vjzXIKRdolQipbwmtqNVQOzoF/tzNYPfBGW22pBLxekTMf60Zxsn2izoAPcTclDvy9kfZdOB7nwMfNNNYOvfEQUR3T6Y9CyarjOlPCn1/kfHn8zM+CRFaBsnuWF+0Ybl+Ij9g6zuPDOp1ef89liloNVYKXa6nNY2+11QqBIl+b5Q/ixHSB+bhJDxEvIVLk09ItPrswW2C2FWiB8RPmrpMKTiEycKZQuOJtQkRKgcKBrZMcFndoJs9uzN58cpa7mbPrIt6QQJEeXm6B2vVoLlq+wPF6OYmkRO+ar+LELBzIBcab5Iscb1dTyHjcUjOb5/hTkRYYP8I58M9GWnw/xK0cnBfwaimpRFbMfQJERoHCObB2mMUqtRrahtlWq3pvvt0cXRbwfp3Em6zkixyvllOeN4XK5DleL6eQkWQWSgPEQ+T9OrnAeJ1UtoR3aykU5RHHlnKVLokMEwVaYPwM58C7NfL8v42tkzzeKRKuWKnwkFWgLFGroS2YuWjUVlsZ++d5yieTkHSO49VSCqc+aYtPZUt4vZySYlNMyxdEENL+Wd7TqpAQnCe9mT1xfFXAn1+SSEt0LEncTqkkWu+uyVLzK19bYBQpUqoVHLIKlH+3M9g5oVZDqzA3OykXrQrKroaft2kWShau0iW8Wkr6LpfmKl3E62X3N8e0P30WhESIY2QvOdbsnpILjIrkCqLVkCw1hTBRqQWmVqEhq0D5ZzONA8lDyVSgWB6upc3OGuDA1nEOi7s0C+U2Z9dFvFpSY97PDs6TRfy17O4mNvu///eJ7gMfwhgw3BnCg/4IGHP7amqDA9g4zIkMDVrFytIc07EwHoN+bySsNzGd5fyUYfJ/bz9Z8nOsRNOAuUQM7Y2625eiJJk8x9uVFC58ttNsNYwB471hJHrCbl+KLzm6LJBbbZnO5gBm44YrNaJPywHia/bEgZoDoWYQEgkT9blI+jccTyVnOStPPWQ8QSmVgDdUXNfEVaaEl4tJ+uwswJyFWj+kWSin2TvL4+0KCROTowv3zBpInPgYM3tiU7GBUHPY0itBSARw7EPHmlyB4+WSGs5yMooJOyiWON6spKSy1JSd0+siXi76twXGDjgH/tvJYItmoRxj6ziPvymL5xf2z/OujAGQOPE5nAOftzPKpMibfuM0bOk99s/z+LTlj5OwZLaEF4tJJRzL7BImsgqebF4IFJqFup/DiwL+WkoiX6DPymo4Bz5tppV5N6vK91k8JExugIsTpU8OB9eSOCFE8ul6GseS2+VlCxwvFpOe9xv3LRzYPslhcU/NVsNKOUuKcMWkAk5ldgsIWQVKMlPCm1Xv2q5bwc5JXvTm07PYNsx3M+VC2YPZHq6KEYlb8HJw7X8OusmROCEAACUuUuRltc27Spfw4ksS55Rh4mk4B9YOslg7UKvVsFIOLwp4tZhEToGdZqeEg6wC5SJJ6d23sX6Yo1wOhxDv5hS5qloM58C/O9QeXjHlOWWn3ORInBBfKRQ53q6mkZYsRf7kqogX1NPsGzgHvuxmsHXsrXaGbYV2mp0WDLIKlJOrgidzoWqFQwxrkxGJs5Q48HqZzBqswrQP36Tg8aowNw9X9u0XKCROiB9I50p4K1E7w95ZHq+XkyhIkFhKOAfnwOct7/Rbrx3k8FGRnWa3hIKsAuXgokCnBPgWWLmyTzvNblAscbxeoeDaeuEceLeWUsK6XUZMI6V1m7sbSJwQv3CZct/alUMcIX4g9wzfUuLAh/U0ji/V7bfmAL7sZvFFkZ5mtwWC27//Rsrp3f/t+De9m3Pg7400Nmin2VVyZbOGjGTdDapQKHH8tZwSgav0EdaM2d2weWyfQCFxQtzI8ZV7KfKmMv93W42CjrAPkQOSVrKdQYQrZrCmQE/z/2YeSSMMZLmOHyj3Wy/5ML3bzOLZpdR3KUhlS3i9kkKeugmqIpPjeLWYwonkxj+qwDnw71YG2zbZXZM4IW6GA7tneccFgmjnodYB4hvFkpiFUmnmyGwd2FbA8lpGMSDjNXEOrB7Y384gEypl8fiJq3QRr5fVmF+TgetMCS+XKCTUako22l2TOCFuhwObxzksOzD8BJgFXRqbChR0hLNkcsLaVYU8hXxRFHQqtA7IKAJMZLw2r5o13EQyK1LfVcji8SPn5CZXEedJCgm1k5JNdtckTog74RxY2bc/Rd7coTs4p9YB4mau00KgyPwyTmWF5bUKBZ2Mxf/PyHiNnAOfPGTWcBNmQUfD13JzfFnAuzUya7iNo8sCXi6pYd2uMqVyp4CVWXkkToh7MV1adm16GV9n1EnLJtzl7Np9s4bbOE8Ky2sVCjoZi/7bkPFaedms4Uhhs4bbMAu6bF7Cm4z4hYOLvGvzoTKzd5bH25UUSvI/jj1BqQS8WUnhzKIsOhInREVwDvxjg3PS6XURfyqSlk3IweGle2YNt3F4UcDLRTUKOhmL/fuQ8Zo5L7+MPbSpQgWdgpTnQz87mN4tO1vHeXL6dIFSSeTxXKbrfyaSOCEqplSeCbFqqGz/rIC/lijDhKiS8stYFmvXHQpX9C2mQLlKq1/Nbx6TdbuylOdDv0jyTHQLDpEp9WlLrs0rP1EocrxeTtW94UzihKiKbyny9S28jaMc3q+rUdARElK2dl3ec9fade0wp0xAn+rCRNbrzxdF9kRa0ewJDjFX+HmLrNuVhgPrhzmsuPxMdAsOEUGgSqaUl8nmOf5aSdVVJ5I4Iaomkyvh7Wq6phMPDmCJMkwICzDNGjYOnbd25QAWd7Nip1KBdSxrYV8tsv4d6VwJbxTMnuAc+LKTwdIeWbd7Ac6B5X1/2V0D4u/+b5siCGQinS3h9XKqZjMCEidETYgU+ep2jCnDhLAazoH/djLYsSkI6rbf+Wkzg1UFwhUBeQv6WpH177lKq2XtKlzHMlg/JOt2L+FEerdMiLDbNDaOaB3LxnVGCJRiDQcoJE6Imjm5KuDDemUChXPg/Xoam8f0ACGsxXw5HVjss37b73q/nsaWAlk8MqW+W42sf9fZdVF6u2ugvI7X1FjHRPWYG4G7p961uwa+rePt0zytY0m5SBXxejlZ9fdD4oSoi73zskvIHQsvX+R4tZTE/hllmBD2UOLA+9UUTm10TioUOV4tp5RYx7IW71Yi6994dFHAB8nc5L6nUOL4azmFfcqU8jScA39vpEUYrAcplkDrWBFOr4t4XeWpMokToj44sFVOkb+JZEaE0tlZNBIEIATKW5uck1JZkcVzamHIlF3IWrTbgax/695ZHp+25HNOSudKeLmYwokC65ioH3Gy4L3vO5MXoc1e+7u8jAgMrVygkDgh6sYcTF7/aTD57FqdUDrCG+SLHG9XU8hY6Jx0kRLrWAW7WFmLdTuR8m/mwPaJsHaVhat0CS+XUri0yAqeUIMSB16vpHBuUTie21xnSni1lMSFR/4eP3FwUXlGGYkTwhLMwWSzx/XgvIBXy8manRoIolZS2RLerNY2hPczR5cFvPhC4YqyI+PfzsvWrredKjvJaXmjKJ2VX2AT1mOmd6uwwXIX58kiXi1RaLOylDPKPlZgW07ihLAMzoF/NtNYPcjh3RqlDBPucZmq3zlp5zSPNytqZPHIWJw7jYyfAecie+HnU2UnOTinsFsCyBXMPB41X8zHlwW8WkopsVFE3EH5VPnf7bvbXkmcEJbBGBDvDmOkK4RmQ3f7cgifc3JVwPsK3eR+Zv0wh38kHmr+HhmLcreQ8bNww+7aZPskLzaKFFjHhP2kcyW8Xqk9e8It9s8KeLOSQpEWsjfgwOZxDos7t9vxkzghLIEx4LeBCMZ7w9AYMBM3EIvQ8iLcZf+8fIRc4b83Q0L/o3BFZZHxMzFPlZ1yTuIA1g5z+LiphsAmnOM6XSoX+m5fSWVsn+TxYZ0EttfgHFg7zN7a9krVI1E3GgOmRgwMd4a+/mfhIMP0qIFQgLl4ZYTv4cBOeTD5vnebaiGhMhbhsiDjZ+OUcxIHsLSbFWtegXVMOM95snprV6f5XmCTMPEmppnS6sGvba8kToi6COoMz8Zj6GkN/PLfNUY1TMcNaLTKCBcxB5NX7xhMVikk1Mvhil6nxIE3K2lc2OSYZQrs1QM1BDbhHqdXBbytwtrVSTjErBYJbO/DObC4m8HG0Y8ChcpGomZiEQ3PJ2Noa7h9vqStQcfUiAFGByiEi3Au2rU2j37dofka5kXhip5C1s+qWBKDyVY7DpmheyoIbEIODquwdnUKzoH/ttU5wSbqh3Pg3+0Mtr+byyNxQtREa4OO5xMxNFQwV9LdEsCjwSgJFMJVOAc+b2ewd/btAZjOiXBFFcK8ZC22ZUbWzyyb53izap3zUIkDb1ZT2FVAYBMSUbZ2lSUwlHPg42YaG0cksP2G+d2bcRQkTojqYEB3SxAL47Gq5kkGO4KY6IuQQCFchXPg7/U0ji4L5XBFNULpZC2yVUDWzy6ZEc5J9Q4mZwscLxeTOLookDAhque7wFA3l4/ZWrt9midh4lPM09+D8wKJE6JyGAMG20OYHq3tFGS0K4SRrhAJFMJVSgA2joTPekYBz39Zi2uVkPUzrDePJ5kp4eVi0jPp34Q7mHN5S7vuBIYWSyLFXoXWWsJehEhNkTghKoMxINETxqOh2k8/GAMm+yLobwsCJFAIN2BAX2sQs3FDCbtrWYtqFZH1szy5KuBdDYPJ58kiXlBaNmERnAOrBzc7J9lJNs/xaimJ40v5W2sJZyiVqK2LqIDvM0zq1RSMAY+Houhq+tXdiyDshDFgpDOE34fFyV8owDAbNxAKyqmUZS2mVUbWz/TgolBV6OfRZQEvF5PIUVo2YSG3OSfZRTJTwqslOvkjfoXECXEnGgOejkR/yDCpF1YOaWy9w+WLIKyEMWCsN4wHAz+e/MUiGmYltLuWtYj2AlJ+thzYOcvj3+37+/53T/N4s0KhdIQ9mM5JO6f5+/9xHVykini1lMQ1nfwRNyDZK5mQiYDOMDcWQ29r0PKfzRgwPWpU5PZFEPXAGPBwIIKxnptP/lpiOmbi8thdS1k8ewwpP2MObB6Lvv/bdMfGUU4661fCe3AOfNxIY//cnlark6sCXi6mkKGTP+IWqDIkbsQIa3g+EUN7o32nG+Egw3ScUuQJ+2Dlk7+he07+OpsCeDrivt21lEWzR5Hxszb7/td+6vvnAJb3s+Jkheo5wgFKHPiwlsKRxbMgB+cFvF5OoUhHf8QdkDghfqElpuP5ZAyNUfuXR0NEw0zcgEb6hLAYXWN4NmZUfPLX2xrEw0F37K4p9d0dZPzMzb7/zWMhUDhEKN3yHoXSEc5S4sDblRTOrq2ZCdk5yeP9GrUkEvejRSQdBiVcgAFdLQE8n4gh7OBpRmuDjqlRedpqCPWJhjQ8n4yhvbE644WhjpAwfnBwLcpYIPsJGT9/zoHPWxnsnuXxcYNC6Qj3KHFh83uVrm82ZP0wh3820yRMiIrQpiQcBiWchzFgoD2EGZdEQndLAI+H3G+rIdSnydDxfCKGphpP/hI9YYx0hRyxu5axMPYjMn4PDIDOGHIFTsKEcJVCkeP1SgqpbPUCxWxJ/G+HWhKJytFaYzqmRqitxs8wBsS7w3jsUkuLyUB7EJOUIk/UQUeTOPmLhOpbRJP9EQy22ytQZCyICTkI6gzz4zF0twQwEzfQRs6GhMtkciW8XkkhW8UQO+fAlx1qSSSqRwPErvXDQdq19iOMAQ/6Ixjvc7aV5TZGukMY7ZLjWgiFYEBvWxBzCQO6BSfBDMCjwQh6Wqx3qgNImMiILN+JEdawMBH7arXOGDCbMNBkkEAh3CWZEQKlWMEBCufAp60M1g+pJZGonq+v8YGOoOO91oS7aAz4fTiKka6QNIHtDMBEfxgDNu9aE96BMWC4I4Snw9ZusDAGTI1Eq55buQ9ZimDiV9z+bpoNHQsTv5qRBHSG2YQBI0w92IS7XKaKeL2cvFNwcA58WE9j64SECVEbX590DEC8J4zhzhAJFB+gawyzYwb62uzZGa4Hc9e6u5lS5Im7YUzMiPxmU0ui1bvWbhe/xP249R11NAWwMBHDbSY1kaAQKGS9TrjN6XURb1ZTNwoPc4B+7zyPexNFCeIWftiGYRAtPnaE7hHyEA1r+GMyhg6Ld4StxAxppF5r4jYYA34biIgTXxt/j67Bkl1rEibq4Oh3xYCe1spaEhsiGmYTNCNKuM/RRQEf1n8MBM0VOF4uJnF8WSBhQtTFL49CVm716WiSt3AlaqclpuOPG9oGZIQxYDpuKHGthLOY4YrD94QrWkUkyDATNxDUa6sKSZiohxPfGWPAYHsIU1UEgLbEdMwmyHqdcJ+98zw+bgqBksyW8HIpifOkNZkohL9hW1tbN+rbfJHj1VIKlylaaJ6AAV1NwvlFtZdaMiMeetW4hBDeRdcYZuLubKCcXRfxcunufuvvIVGiPv/39pMtP5cxYLQ7jIm+2k7+9s8LeL92c2sNQTgFY8BIVwh7ZwVkcvVloRCEya1b0kGdYXo0ijCFNCoPY8BAW1BJYQIAsYiGacrjIQBEQhqeTxiuney2NugV30ckTLyBHd8jY8BEXwSTNQoTAOihbChCAtoaAhjrDWOI5pUJC7mz3DPCVBSqDmPAaFdY+ZdYa0zH9Cj1WvsZEa7ovqVqV3MAT+5xBiNh4i2s/D4ZAx4NRhHvrr8lcaA9iAf9lA1FuAADuluCeDZmIKAxJLpDiHeT4ythDffKDjOkkRacejAmwuQm+r3xwOhqDuCR4iKLqI32RhGuGA3JsVPS33Z7UUjCxJtY8b2as1KDHdaZzgx3hZDo8cYznlADsxtjevTH9/F4Hzm+EtZQ0Zu+uyWARxTSqBQaA54MRzEqUYaJFQy0BzFJO4X+oexk9GzMmnBFKxm5oSgkYeJt6vl+dY3h2ZhhuRsmAzDeK4pCTz3sCSlhDBjuDN3YjcEAPBiIUE4ZUTcVv+4HKaRRGTQNmEkY6Jcww8QKRrro+NgPMAYMdVTnZOQ03/dakzDxB7V8z5GQhoUJw/JAz+950B/BQFuQikLCNsxcqQcDt28QmjllFElB1MOtbl03wQH8t53BxhGlfspKNKRhJh51vS/fbjiAT5sZbJ3kyE/dg5gvwTGbM0ysgAMYwqDbl0E4TKUuXg1RDbNxZ9LdOQfer6exf5a3/XcR/sJsEx+psBuDc+DtagqHFwXbr43wHlU9LX8IaZS9YvAhzTEdzydinhcmwLfdmZ4W2p3xGk6FK1oFCRPiNtoaxDPZCWECiHtnaoRyyghrMU0cqmkTZwyYiRtokzjsmZCXqp+YX0MaacHJAwM6m8XAcCSkQjlnDeaLmB5+3sF8vjgVrlgvgyRMfMud7V1MGHjMj8dqDu6sFcaA2YSBlpj3N6kI+9HqMHFgDJhLGGimtUhUSU3bOYwBU6Pebx1SAcaEc9Bs3J82u2J3JorGKK1F1dE0UVT1KTArNVj+P8Lf3ChQys9kN3OltHJR2BCVzEWCUApzfrWe+RFdK6/FCK1FonJqXi1BnWFqNIoIhTS6hpnM+sTn9rpBXSSG01pUl3CQ4flEDJ0KtKOQKCG+53uBwhgw0hm6NwfHCYIBhtm4gYgk9tuEWoSCDPPj1jyTQwGG2QStRaJy6lopsbCGqVEKaXQDxoDJvgjZ6pahwFB1aYyKvvxmBU5iSZgQN/G/mUdgTLi3PRiISDMrZYQ1zCaiCDjcWkaojRHWsDAeQ6uF7VhGWMNcwnC8zZFQk6rcum7j4LyA92splMg1yRE0BjwejnrWKrgeji4LeLtCa1EV2hoDmI2rUTyRMCHuYwtbbl/CjZxeF/FqKUkum8S9NBk6ZuIGojbNr54ni3i5mKR3NHEnluwzd7cE8JBCGh3B6xkm9dLZFMBjCVoqiHsohyvOjxkkTAjPIOs6aWvQXZ2BIdSgvTGAhXH7hAkAtMR0zI3RWiTuxrImGApptJ9ISFOmL99N+tuCeEDtbtLCGDDULne44vfIWnASciLreulqDuB32rghboKJTeZnDm0WtTcGMD1KAoW4HUs79OPdYQyX05IJa2kydDyfMJToy5eB4a4QEj0klmWDMfGceDikhniUtdAk5EbWddPXFsTDO9K9CR9SdpdzWix0twSkMI4g5MRSccLYdyGNhDUweqHrvAAAIABJREFUoKNJZJhEyemiYhjEcOpgR4gCQyXBfD5M9KkRrihrgUmogazrZ6gzhIk+EiiEeCYPd7jn+NnfFsTDQVqLxK9YXu1+DWmk1qO6YQzoaw1iLmFAJ11SNQzAw4EIeilF3nUYA54MRzHSReGKhH+QdR3Fu0MY7aaTZT9jnmL/5rI4GOoIYZLEMvETtpS8FNJYP2aGCfUI1wcrp9u2U4q8a2gMmI2rY+Iga0FJqIms62miL4whOln2JYwBE33ynGKPdlMbNvEjtu3HU0hj7ZgPDsowsQYzRZ7EsvOEgwwLEzF0NssvDin1nbALGdcVA/DbYAR9rUESKD6CMeDRYBTxbrlOscd6wxjpopllQmBrs1AsrGGKgvGqQmPA4yHx4KB71DoCOsP0aJTmdhykISrc5VosDPKyCxmLR4KwGwbRht2lwOYBUT9mJ8Fgh3yn2AzAZH8Eg+10mkfYLE4AoDWmY2qELOMqQdOA6biBgXb5HhxeQKTIR6FrtBjtpq1BpL4bYfnFIAkTwglkXWeMATOjBtqo9dXTaAyYTRhSGxYxAA/pNI+AA+IEEJZxj1xyg1CFcJBhYTxGO1g202zomIlHQfrEJhjQ3RLE/HgMQQpXJIgfkHW9MQbMJqj11auEAgzzimSkmaZK3VQL+RrHtjUH2ymk8TYao7oy7S9eoKMpgCeKBACqBGPAYHsI06NqfLayFoqEt5F13QU0hrmEocRpJ1E5RljD/HgMrQrVF4wB06MGGdn4GEefQvEeCmn8mY6mAP6YVKP9xUv0tQbxG4WRWQZjwGh3GI8oXJEg7kXW9RcOCoESIiMbT9Bk6JgfN9AYVa++YAyYGzNo09anOLpiGb4LafT7s4+JtF7KMHGP4U6yL7QCxoDJvggmJbGlvA9ZC0PCX8i6DmMRDbNkZKM8bQ1CmKhsAqOVBUqDguKKqA/Hv/GvIY0+Pq5jDBjppAwTGRjrJa//emBld7lRyWwpb0PWgpDwJ7Kux5aYjtkEGdkoCQO6mgPKzP3dR1BnmEvElBZZRPW48m37OaSRMWC8N4wH1FIkBQzAbwPkDlILGgNmFHKXk7UQJPyNrOuyozGAqVESKErBRMvyTNxb31s0xDA3ZiAU8NAfRdyJa1LUjyGNZvhRokeN9he/QKd51WO6v6jgLkfhioTsyLo+e1oCeExOm0rAGDDU4d2OjIaIhtkEtRv6AcZcFCeAv0IatbL7hIzhR4SZIm/48jSvWmIRDc8n1XB/kbXoI4ifkXWtDrQH8aCfTvplhjEg3h3Gw0Fvf08tMR1zCYOiADyMxoAnw1F3xQlQDmkc9fZiM3eZu1vk32X2M7oGzMQpRf4uWht0/DERQ0wBdzlZiz2CuA1Z1+xIVwhjFAUgJYwBE30RjCtiSFIv7Y0BTHusbY0QaAyYGjXQ3xZ0X5wAQHdzAA8HPXoUGdXwhyK7zAQQDYkU+YAHBgkthQFdLQEsjMcQVKDvV9YijyDuQ9a1O9YTxkgXmYfIBGMiUT3eHfLV19LVHMBTyirzFLrGMDtmfN3El0KcAMBgh/dCGtsbA/hjgjJMVKPZ0DFNKfJfYQwYaAtiRpHhWFmLO4KoFFnX8GR/BAPtJFBkwJyVHOpQwynRanpbg3hE81CeIBRkeDZu/DD3K1XVHO8WIY3KP/iYuHGejRm0A68oHY0B/E47MyJcsSuMx4oMWcpa1BGEF2AAHg9G0NNCs5NuYjol9rX5+3sYbA9ikuahlMYIa5gf+7W7SCpxwpgIaexrVfeGYwwY7gjRkaMH6PV5irzZyzzZr0YvMwkTwkvIup4ZA6ZGouhsohlKNwgGGObH1XBKdILRrpDnum78QmNUBIU23hCyKZU4Ab6zdVXwwceYCPX7zeOOGX5iuNOfg6BmuGKcwhUJwjVkXdeMAbMJAy00S+ko0bCGhfEYWhvoc/+eeE8Yo13+e0+rTGuDECa3GRBJJ04ANUMazcG0Mcow8RyJHtFu6JcHn2l7TeGKBOE+sq5vxoC5xM27noT1NBk6Fm7ZZfY7DMBEfxiDHR4YC/ABHU0BPBuL3RmqKe0q/xrSqICtq1nM+XUwzeswiHbDXh+kyJstAyrYXlO4IuEXZF3nwQDDbMJQ4j2tMq0NOubHbt9lJsSr+eFABP0+n8ORGgb0tAQxlzCg37OUpV7psbCGqdGo1CGNIYWKOaJ2zHbDTg+nyMciGp5PqNEyIGuxRhB2Ieuaj4Y0zCXI/MUWmLDNVcXC3W0YA54MRdGj8NyyV2EM6G8LYmq0snlsict+gRnSKGNLTYNCxRxRP4wB03EDzR7ss26J6Xg+EUNDRPpHgrRFGkHYjaxrvzGqYZaSu62FAX2tQcxQ4GBVmIYNKs4texXGgMGOEJ5UYf0sfyUCEdL4SLKQxrYGHc8nY4gpUMwR1iFS5A3vZNeUd+aeT9zd/ykLshZnBOEUst4DbQ06JXdbBGPAUEcIvyti4S4b5jwUbRy7D2PAaHcYD6s0ilKmwhrsCGK8TwIXLAb0tAYxPx5DkI6xfUkkyDAdN9T//svHrKrszMlalBGE08h6L3Q1Uz5UvdRazBE/YgoUlYyVvAZjwHhvGBN91RtFKSNOACDeHXLVNcnczZiih6/vaYpqmI6r28YgwhVDeKLIzpysxRhBuIWs90Rfa5AK6xqpp5gjfiWgC8MGz3Q6KISZW5io0cFWqW/MTdckxoSlLD10CZP2Rh1PJZ2HugvGgPG+CB70R5R4AcpahBGE28h6bwx1hDAhQ6eDQjAG/DZQezFH3EwkyDCXMBAO0qfqFIwBj4aiGOmq3cFWKXECfBfS6KBrkvnQGO+lhwbxIz0tAaUEK2PAo8EoEhSuSBCeQNZ7JN4dQrybgvEqwaxrhjvVeC6rRiwiDBvIUc5+NAY8HYlisM6cNOXECeBsSKPGgKkRgx4axK0MdYSEcJX8uacxYGrUwGCHGjaLshZdBCEbst4rE31hkf8l+bPRTTQmTFb6KJ/DVpoNnRzlbEYrO5r2WmDlrKQ4Ab4LabTxqC6oMzwbj6GnlSzpiLuJl1PkZX0JB8y1rEgej6zFFkEQ1fHbYAT9lDtxI+ZzuatZjeey6rQ16MoYwKiG1WtZWXEClEMa44YtIY2xiIbnkzG0kRUdUQHmPJSM6bRGWJ21TKnvBFEbst43DMCTkSi6FNkYcYpoSMPCuKHEc9lLdDYH8JRMjSwlEtIwb/FaVlqcAN9CGq08qmttUCeQjpAHM51Wpl0wM1yxUYG1LGtxRRCqIOs9xADMjBpod3BWVGYao6KYI5tbd+htDeJxFYGAxO3EIhrmxww0W7yW5a9YKqC7OYCHViw0BnS3BLEwrkYgHSEfZop8i9sp8kzsEC1MxJRwKZG1qCII1ZD1XmIMmE1YX8SoRmuDjvnxGNnbusxAexC/DahjZiMjzYZYy3aEkXvm7hhsD9Y1lMwYMNgewvQoqWmiPswBR9dePkxkDcwqksMiazFFEKoi6z2la/Bv7kR5w2ieNj+lYbhTDTMbGWlrDGB+3LBt7ttTT4hah5LNDJNHClnCEnITDjLMJAwEHX4JMQaMdIaUSWmWtYgiCNWR9d4Kl3MnQgqc6FoGE61EqmwY+YlET5gsr6uBAV3NAcyP2WvN7ClxYg4l91XhDPJDhgktTsJCGiMapi2eh7oLM134wQCFKxIEIe89FotomEvYY2YjG4wBQ+0hPB1WY8PIj4z3hTEksdumNDCgtyXoiOOZ5x4NX0Mam+4fvDPDYijDhLALp1LkGQMeDqqTLixr0UQQXkPWe63Z0DGX8LatK2PASFcID4eoK0NmGMQm9UBbkATKLZijD045nXlOnADloeR7QhoDOsPcWMySsBiCuIuelgAeDdp3Q7OyyB7qUENky1osEYRXkfWea28MYMqBzRs3ME+yJ/vVOMn2OwzA4+EoeluoJvwZxsR8jpOjD54UJ4AQH9OjUURCv/6JZu5De6O/XUMI5xjsCGKiz/obO6AzPFNIZMtaJBGE15H13utpCeCJx2xdzXZxVU6yCQGD2OjrlCgOwG3MmewHDjubeVacAEKETI1Gf+j5b4npeD6pRu4D4S3i3SGMdFnX1xoNa3g+oYbIpnBFgnAfWe/B/vYgHvR7o/WJMeDJMLWLqwpjwGycwjEB8VlM9JVnsh3+3Z6v0FtjukiRZ0BXSwDPJ2IIk40f4RKT/db0tTab4YpR+W9hWQsigvAjst6PI10hjCluTKMxYHrUQH+bGifZxM0wBsyNxXwdkmme/sW73RHZ8lc2FtDVHMBYXwQzHu1tJdSBAXg8FEVXBYYNt/2AjiYhsu3yF7cSWQshgvAzst6XYz1hS0+XncScY+1uoZYgL6BrwNyYYUvAoOzIcPrn+U+dA1g9yGF5N4Olvazbl0MQYOWQxtZqj43L4YpzCTW88mUtgAiCkJfJ/ggG29USKJGQhvlxQ4kWW6JywgGRyXPT7LJX0RgwJcHpn6c/cc6B/7YzWNrNoMSB1YMsNo5ybl8WQZQd5SrflaFwRYIgrETWe5QBeDQUUcbkoyGqYWHcQLOPW4C8jBEWmTx2Bg7Kgq4xzCYM9Ehw+udZccI58PdGGhtHOXD+7T/7dzuD3dO8uxdHECinyMcNhO6ZgWIMGKNwRYIgLEbWe5UBeDosv2tSS0zHwngMRtizpRQBoDGqKdOxUCuhIMOzcaOijEAn8OQdVSwBr1dS2D3LfxUmJpwD/2ykcXxVcOfiCOI7GiLanWmr5lDamCKWlLIWOwRB3Iys96zpmlR1+6sTlGf/FiZi924uEd6gtUHHrEcFihHWMD8WQ2tMnnvNc+IknSvhxWISx5cFMXByAyUOvF9L4zJdcvbiCOIGWht0TN8gUMxwRVUsKWUtcgiCuBtZ713GgNmEgcaoPEUTGNDbos7sH2EdHU0BPPWYsVJjVMezMUM650+5rqZOLlJFvPiSxGWqeO+/zRc43q+lkM3fomAIwkG6mwN4/F0Qma4xPBszlOm7lrW4IQiiMmS9h4M6w2wiiqgEQ8mMAYPtITxVZPaPsJ6elgCeDHvj+2+J6ZgfN6RsS5Tvimrk6KKAF1+SyFQhNpKZEt6tpX5p/SIINxhoD2KyL4JoSMPzCQPtjXL0ft6HrEUNQRDVIeu9HA1pmE0YCLrYQsWYyGJ5NOSNsEiidvrbgnjocGK61XQ0BTA/Lm9boifEyfZJHm9XUyjVIDLOrot4t5YmgUJIQXuTjqHOkBLhT5T6ThDeQ9Z7ujGqYfaO+Tw7MU1JJvvVMCUh7GeoM4SJPgUFCgN6ym2JusQKQOJLux8zw+TjZromYWJyeJHHp60MCRTCVU6uCnjxJYXF3Qy2T+R3lNvCltuXQBCEDcgqUFobdMcFCmPAg351TEkI54h3hxDvDqsjUBjQ3xrE1Kj8bWnKihPOgS87GSzu1i8qOAe2T3JY2sveNkNPELayd5bHX8spFEscnAMfN9M4OJffUY4ECkF4E1kFSmdzwLGZD8aAx0NRkVpPEDcw0RcWpjWSF/uMAUMdIWXmZZQUJ5wD/2ymsX6Ys+y0g5shjYcU0kg4y+ZRDh/Wf2wt5Bx4v5bC2fX95g5uQwKFILyJrAKltzWIR4P2FllmUO5AuxqmJIR7PBiIYLBdXoHCGDDaFcbDQXXa0JQTJyUOvFlNYef01wyTeuEc+G+HQhoJZ+AAlvez+Lx98+lfiQNvV1O4zshveU0ChSC8iawCZbBDGIjYUWwFdOGW2C1BUjYhPwzAo6EI+iR01zTnpSb61WpLVEqcpHMcLxaTOLq4PcOkXsyQxhMKaSRshAP4bzuD5b3snSI7V+B4t5pCriB/wyEJlP/P3n1suY1s66L+AwRBAvQmvbeqUpVKriStMc7pncYe+5X2A+z7Dvstduuc07qtukNSKeWlKqX33mcS9IzbQDJLJg1BwgSA+fXWKhkoEwnGRMyYPyH+JGqBMmZDz38kzPB0yjvTEokYGIDfRlR0p8S5bxgD7nj0vJRnipMTvY4XswWcFOxvc2lw4M1iEWcU0khswDnwfrmI5b3W2hLPSw28XvTGyGsqUAghTpruj2A4b01LTTwq4dl0DCkPTEsk4mEMeDQuRmHLGPDLkIoxj56X8kRxsndaw4tZHcWKc8VCtc7xZkk3lZtCyG0aHJhZ0LF5VDW1+3d0Xsdrr2Ty6G5fACHEaqLungDAz0NRDGbDHRUoRiBdDDEBA+mIdzAG/D6pIR1zr8BlDLg/qmIoL16bWauE/yncOKzi9YIxxchphVIDb72yICTCK1cv2hJP22tL3D2p4eNqUfiJcmsa7Z4Q4keiFigMxlStnjZbapqBdJGw15pfiIgkBjye0BBXnV9iSxe7N30Cnn8xQ9jihANY2q3gw0pnGSadMkIaqUAhnTkrNvC807ZEDqwfVvFlo2TdhdmE2rsI8SdhC5SL6VqmWmoY0JsRP5COeI8iM/w+oUFVnLux5BDDk6mYUOde2iXkjyPnwOxmGV82xAhG3DmpUUgjadvheR3PZwvQyxa0JXJgebeCxR3xR15TgUKIP4lcoDye0JBqpaWGAYPZMB44lJlCgkdVJDye1BCW7b/BooqEp1MasnF/nJcSrjhpBtAt7dw8xchRX4U0EmLG9nENL+cKqNWtu5mN4r2EtX3xR15TgUKIP4laoIQko0CJRa9f3jAGjHYp+NUjgXTEuxJRCb9PaJBsXG3HohKeTmq+GuQgVHHCL3Id1m3IMOlUM6RxmUIaSYvW9qu2nVniHPi0RinyhBD3iFqgRGSGxxPalWdIGAMmeiP4aTDqufGqxJvSsZBRoNhww6W0EJ5Oxm4sxr1ImH9N87Dwro0ZJp2ikEbSCg5gYbuMT2tFW4tszoE3SzoOPZAi/3rvtduXQAixmMgvHmIRCY8nNIS+WhE2cx+m+ryX+0C8LZeQ8WBMs3SnLpuQ8WRKQ1Tx390sRHHSPCx87ECGSac4B96vFLFPIY3kChzAl40S5m4JV7Ts77vYbRQ9k0dVVfyx+ofbl0EIsYjIhUlTSgvh8YTRusWYMdHLq7kPxPt60jJ+s6KVkAHdKRlPJzWEQ/4rTACAra2tubpPsX9Ww+uFoiujgjshhxieTceQdGFUHBET58CH1SI2Ds1lmFghFpXwTOBRmI1GA+vr6wCA/zH8P1y+GkJIu7xQlHxv57iGBueeH69K/GF1v4LP7Q5ZYkBfOoz7Ph/k4OrKevOoipl5dzJMOlWrc7xd0lGmkEaCf3Yw3ChMACOT5/Wi7urY7ZtIX50GpB0UQrzJi4VJgxuLwf3Tmqgd4yRghvMK7vRHTRcXjAGDOcX3hQngYnGyvFvB+2V3M0w6VSg1KAOFoFwT47zUcaGON4u6Jz6AqUAhxFu8WJiUaxwvZgvYP61h/bCKv9fFz4giwTDWo2CyN9JykcEYMNKl4Ndh80WNFzlenHAYGSZ/C5Jh0ikKaQy281IDLwQ6L7V7WsOHFTFT5CORiNuXQAhpgxcLk0K5gZdzXz2bObC8R5EARByTfRGMdUdw23QGxoDxnmBNmHO0OOEc+LRawqJIGSYWuAxpdPtCiKOa4YqFkkCH0TmwcfGGULT7UVXVb/437Z4QIj4vFiYneh0v53Scfz8ohBuTFJc8EGJLgmF6IILhvHJtgcIYMN0fxXR/sCbMOVaccA68XtKxdlDxVWEC4J+Qxk16IxMUOxfhitWagDczB1b2KljcFut+1DTth/+PChRCxPXH6h8ol8V6jtzm4MwoTEqVq18acQ588UiILfE/BuDuUBQDmfAPBQpjwM+DUYz3BG/CnCPFyWVP/rG4GSadopDG4Fjbrwrfysc5MLdVFuoDWJblK/9/KlAIEU/z57JQKLh8Ja3bOa7hz/kCavWbH87NENutI3GejyS4GIB7Iyp6Uv98RjJm/H8jXcErTAAHipOzYgPPv4jTk2+ny5BGeuD51uJOxfZwRas0P4C3j8TP5KEChRBxfP3zqOu6i1fSuo1Dcy+NOAfeLRexdyr+85H4H2PAwzEN+aQMxoAHYxoGssEdfW1rcXJwZvTk62WBevJtxjnwfrmIfXrg+QqHUXjObnprkAPnwNtlHQdnYrwcCIevf9hSgUKI+77/OWw0xP/8XtmrGINATD6bOQdmFnQcBeDlKREfY8CjcQ33RlT0pq/uNAgK24qTraMqXrWwvepHnANvloo4FTy1m7SGc+DjShFLu948L8U58EaQFPmrzp18jQoUQtzjxZ+/he0y/lpv/6UR58DMvBjPRxJs1RrHq/kC/lov4UykQTsusKU4Wdmr4J3HM0w6VatzvFnUUaKQRk9rhiuuuxSuaJVqneO1APfj9xO7ruLFBRIhXnfTz52IrV0cwJeNMua2Op/+Wa1zzCzoKFY8/JAnnlasNPByXsfheR3VGsfMvI7iNUMdgsDS4oTDOITbyVsMP9HLDbwROLWb3KwiSLiiVUS4HxWltcN9VKAQ4pzbft5EK044LmIJdq2LJShWGphZ0FENYLcHcdd5qYGXczpO9X/aC4uVBl4t6GJOBHWAZcVJM8NkYdtfGSadOi7U8VbwyU7kR4VSA88FCle0ynGhjtcL3rgfqUAhxF5/rP7R0s+ZSMVJ8yD72kHF8pdGZ8U6ZhZ0P7yLIh5xXKjj5dzVZ7PPiw38uaCjHsANFEuKk+YZC19mmFiAQhq95UjEcEUL7Z3W8N7FFPnrRgoTQpzjxeK/wYGZRR1bNrbZHp1TgUKccXBWw8s5HeUb2q1PCnW88sgLRSt1XJxUahwv5grYOfZ2T76tvgpppC+R2HZOangxV0DF51upm0fupci3cu6kyYsLKEJE187PldtTuyo1jpdzBeyd2D8Jc++khvfL7r3AIf63c1LDn/M66i30WR+e1fA6YB04HRUn5xetL0fn/mp9sUMzpHGFQhqFtX5QxZvFgDwAXEyRv21i1/eoQCHEOu3+PLkZxqiXG3gx5+xaY/Oois+r1PFArLd5aH6tsXty0fEQkBuy7eLk8LyO51/82/piBwppFNfiTgUfV4Pzgw/8kyK/sudswRyJREz/HipQCOlcJz9Hbp07OdXreDGn49zpUb8cWDuoYHbD+Rc4xL9W9yvtFRncKJg/rZVsuS7RtFWcbB1V8edcgaZatIFCGsXCAXzZLHsuXNEqnAN/rZew5YGCmQoUQtrX6c9Puez8Iv3w3ChMSi6NVOUcWNotY96FHWbiP0s7FXxe62CtcXFE4C+XWrKdZLo4oQyTznEOvKWQRtdxDnxcLWFpJ9gT5prTbw7OnCuYJam9TVsqUAgxz4s/N7snNbyccz/ImXNgfquMZWrJJm1qxmx8seAlKL9oyZ7f8nfB3PIKgTJMrFWtc7xdunlKA7GPMWFOxzpNmAPQDJss4rToTE+32XMnX/PiQosQt1j581KtOrPDunFYxWuBzv81W7I3DsXfYSZiMcJCrY3Z4BxY2C5jcce/BXNLxQnnwOc1yjCxWqHUwGsKaXRc9WLqy86xP8IVrVKrc7xeKDqSkmxmYtdVqEAh5HZW/5w4cSh+Za+CDwIe/OUc+LBSND43CGkB58Dn1RKWd61/Cco5MLtZcvzMqFNuLU44B94uF7G6T2+Y7UAhjc4qlI0Jc4c0Ye5KxYpRMNsd+tRpcQJQgULITez4+bD7UPzCttjdGc0ddydbYIk3cQ68Xyli1cbujOaZUT/u6N1YnDTfMG8fUYaJnSik0RnHBSNc8ZwmzN3oVK8L1VJxEypQCPmRXT8XtZo9i/LmYJK5LfG7MzgHZhaKONHpBRe5WrOI3XRg7dzc0dv22Y7etcVJoURvmB1DIY222z2p4flsARU649OS/dMa3rmYIm/KmdsXQIgY/lj9w3MFO4fRNr7oocEk9QbHzIKOQpledJFv1RvAn/O6o23jxpAl3VdTYK8sTo7O6Q2z0yik0T4bB2IdrvSKraMq/rJxpnonh+K/9seRtxZjhNjBqaKkVLLumdAcrb+6X/Fcd0a5ahQoNNSGNJWrRreRG21/nAOvFnQcFfyxofBDcbJ9bIzvq9ToB85plyGNPuwfdMvSTgUfAhauaBluBEbN2TSy0KriBLhYmPnnpREhpji5W2LVuRPOgZlFZ1pf7FIoNTDjwBk9Ir5CuYGX8wUcu1gccA68mtdx5oOYim+Kk9X9Ct4u0fQoNzUPUflpe84NHMDspjVzxYOsObLQjokgVhyK/9ofm7SDQoLH6TYuKyZ2VWscL+YK2Dvx/sTEk0IdMwu61/8ZpAOnxTr+nNNxLkBRUKtzvJovQPd4y6EEGM+G+e1yZ8mVxDLGYSoKaWwX58CnVW/1MIusORHE6h09xpilfx5AB+RJsLhxv/MOH6rFSgMv5nQc+eg868FZDW8WqUAJosPzOl7O6ShWxFmvlaocrxZ0lD3cASVxDvy1VsK8B6ZkBEmtzvFmUUeJ+llNMQ6GFbFG4YqW8tKOHhUoJAi8eJ+fFRt4MavjzKGwVyftnNSMfBa3L4Q4Zu+0hj/nC6gKWAQUSg3MzOuoebQVSnq3XMQKZZgISS838IZCGltWrXO8nNexfezdHmaRNVPkrRyhGY1GLfuzvubFhRshrXL7/m6ntevwvI4XswWh3jBbihvJ9n+t2zdEhIhj+6iGmQUdDYFv5xO9jpl5bw4DkrY8fBgtCCiksTV6uYEXswUcUjiWreoNjjeLRcsWGFYeiv+e2ws4Quwgwn1t9lD87okxaKda9/kHGQdW9yqY3bRniAgRw/pBFW+XvbEuOzyvY8aD00pvTYgn7rsMafTYzeWUE90Yfe2HCRVeYKTIF1GzYKFhZ3ECiLGQI8QqotzPxWKx5V+7eRisUe7NWIDFHYoF8KOVvQo+emwC6N5JDe+WvXXNVJx4QTOk0aaRrl62d1rD8y8FmjXvMCNFvvOHnSTZ/wgSZUFHSCe8eB+v7lXwfsVbiyIrcA7Mbpawtk+xAH6ysFPBX+vefFG8dVw1iiq3L6RFVJxAgJT0AAAgAElEQVR4RPNtzDKFNF7aOKwaPZ9e+WnzmYOzi7cxbl9IC7y4sCOkScT7t16/+ezZ4k4Fnz26kLMC58CntSK2jqhA8bpmNMGcl6MJOLB+WMXf6yVPfGZTceIhFNL4j+XdijEZxQs/ZT62dVzF5w5T5CORiEVXQ4j/iFiYADcfiv+yWcaslxdyFuEceLdcNPJciCdxGKP0fRFNwI22tDkPnImi4sRjvDTS1Q7NNxh/b9AHnxA4sNZhirzVYYzXEXWRR8hV/lj9Q+h79qpD8RzApzWfLOQswjkws+ivXJeg4AA+rhSxsuefibbNLpyFbbELFCpOPCioIY2cA5/pg084zRT5dlsO7T4U/zWRF3uENHnhPq1Uvv155wDeLxexul+hCaDf4RyYWdBpaIuHcA68Wypi/dB/E205B+a2yljZE/eYABUnHnUZ0ljx2U/NNTgH3l588FFhIp5my+FGGy2HsizbcEXX88LCjwSXF+9PzoHXCzo2KZrgWtW6kdrt25wXH2lc7Hb5OWqDc6Ndbf1AzGMCVJx4mF5u4E0AMlBqdY4/53Vs+/hB4QecAx9WitjzQMuhFxeAxP+8dl9WKhUj/HaugN2TGj2fb1GqNDCzUPR/3ouHNe/nIJwT4hz4uCrm0AYqTjzuuFD3dYGilxt4PqvjgMIVPcFIkddNp8gnEgmbruh6XlsIEn/z4v14cHyOl3M6Duk8RcvOinW8mtepjhNQscLxci5Y54MuhzYI9lKRihMf2DmpeS4UqBUneh0v5nScFYPzoPCDRgN4vViEXm69fSGTySAWi9l4VVfz4oKQ+I8X78NCuYH/79M+Tk2+iCDGS8WZBSpQRHJeauDlXCGQ93PzTJRILxmoOPEDbmR++Cmkcf+0hhezOkrUn+tJpUoDrxd1U+0LuVzOscldX/PiwpD4hxfvvxO9jrdLReglsd62esneSQ3vlopuXwaBUSy+nCuYeqHmN80CRZTijIoTn/BTSOPmYRWvFnTUKV3R086KDdMp8tls1vED8oA3F4jE+7x43x2c1fFuuYganZvomJHa3VlOFOnMwVkNL+d0lKt0P9cuhjYUSu4XaVSc+IgfQhpX9ip4T+GKvnF4VsPbpdZT5EOhEPL5vK3XdB0vLhSJd3nxfts9qeHT2rfP50qZFtdt48DaQQV/b9DX0A27JzX8OU8vQr9WrhoFSsnlYo2KE59pTkza99gBcg5j7vZf6xSu6DfbJ1V8MvF2UFEU9Pb22nhFhLjLi4XJ5lH1yvDbcunHMEZiAgeWdyuYFzwUz282D6t4vejfYUKd0MsNzCzoru6OUnHiQw0OvFks4tQjB8k5gL/WSljYpnBFX7p4Ozi72fqHr6Io6OrqAmPMxgv7kRcXjcRbvHiPre1XMbd59fOZipPOcQ7MCx6K5ydr+1Xq0LjFqV7HqwX3ijcqTnzKCGksur41d5vmGLsVClf0t4szUUsmzkSpqopkMolwOGzjhf3Ii4tHIr4/Vv/w5L21tFvB4g691bdbMxRvQ9BQPL9Y2qn80JpIrnZ07l6BQsWJj+nlBt4s6hC1nbLeAF4t6Ng6pHDFIOAc+LJh7sM3lUqhr6+PChTiaV69n+a3ylht4W0+p5WeJTgHPqwWsXPsrbZsr5jfKuPLJrWOm7F/WsPbZeeLOSpOfO64UMcbAfsqixWO57MF7AsW/EPs1fzw3TWZvtvV1QVJcvZx5dUFJRGLV++jvzdK2GhxuAq1dlmHc+DNEgUPW4nDuJ/nqXW8LdtHVXxYbX2wjRWoOAmA3dMaPq2VhNmcONXreD4bzLAj8k+K/FGh9e+/LMvIZrM2XtXVvLqwJGLw4v3DAXxcLZl6e0/FibU4N7oKTugzsmMcwOe1EpZ2qXW8ExuHVfzl4DqSipMg4MC6yQPJdtk/q+E5hSsGXrNAMTNPXdM0ZDIZG6/qal5cYBL3efG+qTeA98tF02/tqxX3P1v8pnHR9ixC5oRXcW7cz6v7FWod7xQHVvcrmN0oO/KlpOIkIDgHllwOadw6quIVzRQnFypVjtdLOqq11u+HRCKBVCpl41VdzYsLTeIeL94v5SrH2yUdxyZ2NAEgkcoi29Vn01UFW6XKMbNIAYHtaLbHbR7RmVarcA4s7Zax4MDYaypOAuQypPHI+WkgK3sVvHPhUBUR23mxYXrWfCqVQiwWs++iruHFBSdxnhfvk0K5gbfLRZybeEvPJAmqFoccDkOSQjZeXbAVSg28WtBRpw2UltUbwJ/zutGaSGsOSzXHXpuZvNkOKk4CprnN6dRBdA7jRqZwRXKdw/M63phIkQeATCYDWZZtu6breHHhSZzjxfvjVK/j3VLRdKttSAohlkgjFHJ2kl4Qnep1zCzotM5uQbnK8XKuQAMFbNScvLm2b9+LbipOAsjY7rQ/pLEZrkgTMshtdo6r+Lja+mE7SZLQ09Nj6zVdZeOwiv/n//xfx/9eIj4vFiaH53W8XS6iajIJOpPrQTrn/M9fkB2c1YzJm25fiMD0cgMv5wumWxOJeZwDn9aK2LKpE4eKk4CyO6SxuUND4YqkVWaHNoRCIQwMDDg2Ynhlr4L5LSq0yXca3ixMdk9q+LhqrtVWCoWQSOcghaiNyw07JzV8WCm6fRlCOi028HJOx3mR+t+c0gzRNhsN0AoqTgLMrpDGZrjiJoUrEjMuhjYs7bTeyxoKhdDT0wPGmI0XBsxvfztM4j//N+2eEMMf694rTLaOqvh7w1yrrRxWoChRRCIqGKOlgyu4sXv7ea3k9pUI5ei8jpdzBRRpCqjjmpM3D86s3a2iJ0zAHRfqeLNk3VZxqcrxYo7CFUl7OAe+bJawbiJFPhwOI51O23ZNf2+Ur0y1pwKFeHHHZO2gitlN8zuAyXQe8aTzo7zJd5ojXQWIBhDB3mkNL+cLpqY+EmsZuTwFS3N5qDgh2D2p4ZOJfv/rnBUbeD5bwAn1e5IOcA58XC1ix8RWcSKRQDwet/Y60Ayju75QogIlmP5Y/cOThcnybgWLJseAhuQwsl19jrVPkttxDizulLFoYpfZj7aPa5hZ0NGgDRPXNRrAq3nd1MS/m9DThgAcWOswpPHgzEh9L5bpKUE6xznwxmSKfDabhaZplvz9tTrHu6XWwuioQAkWLxYlgDE1cWXP3GJW1eLQYgkaFSwgzoHZzZIRMBhA6wdVvF0yN4ae2KtS43i1oKNY6fybQsUJMTT7/duYXb11VMWf8wXUTE58IeQmnAOvF8y9icnn84hGox39vcUKx9vloqktaipQguE///f/xd8b3uv3/3ujjI1Dc1N1QnIYWjyJSNSagp9Yj3Pg85o72WVuWtmrmB7mQJxRLDfwaqFgegLg96g4IZeas6s3TXyIre5TuCKxT6XG8WZRR9lEP3Eul0OozWlCZ6UG3i3rKLSxNU0Fir81v787xzXMb3mn3//T2s2tiVcJhxVkcj108N0DmpMx7ZiYJKKFnQrlpgnuvNjAq/nOhi3Rk4d8g3Pg/crtIY0cwMJ2GZ/X6CFB7HVeMqbKtXqfhUIh5PN55HI5U3/PUaGOd0s6yh2M16YCxZ++/75uHFa/md4monrDGPNpdjhJIpVFPJW16aqIHZoTkw7P/XvekwOY3SxjbpPWHF5wXLgIDm3ze0XFCfnBZUjjNW0tHMDf6yXMUeYDccjReR2vTUyVi0QiiMViSCQSLf36vVMjP6BuwZEpKlD85brv58pexdRUOSeVaxzvlnVTYXRSKISoGoMSUREKyTZeHbED58DMgo4zH+Z8NNccizu05vCS/dNa29NgqTghV6rVOd4s/RjSyDnwYbmI5T0KVyTO2j2u4eNK0dSDLp1OQ1GUG3/N1lHV8jYBKlD84bbv4+JOGdvHYrXT6OUG3i0VTS9Sw+EI4smM7ZlBxD61evNAsn8KFA7g4wqtObxq56SG98vmPrcBKk7IDb4PaWxwYGZRx8YRhSsSd2wcVvHFxIFkxhh6enquPYOytt9e5gPxv1YKzOY5vf0Wpro54bTYwLvlounFaTbfiwS1cvlCqdLAqwUdFR/kfnAAb5eKWKdAZ+/iwOZR1XRcBRUn5EbNkMZSleP5bAF7JzV6SBDXcH6R1WBivj9jDAMDA5Dlb1tVFncqWNyx72Az7Z54l9nv3ee1kqUBZO04OjfOTJlZlIYVY7dEojYuXzkvNjrq9xdBs01t+5gKE8/jwPpBxdSLRSpOyK1KFY7d4+q1Z1AIcVJzvv/avrl+/+7u7ssgudnNMtYcyAegAsV72vmeGcGhJRRcynnaO63hw2rR1HSckCwjrEQRVWP2XRhxzXGhjlcL7fX7u61a53g5Ry9D/aT5YrHVSYdUnJAb5RIynk1pGO5SMN0fBbUjExFwDnxaK5rq95dlGZlMBp/XSthyMBeAChTv6OR7VatzfFwpdTTtrR3tnpnK5HqhxVobGEG8af+0hrdL5vv93VSqcLyc8/fksaDiHJjfLmOphc4HKk7I1RjQmwnjyaQGOWRUJOM9Cka7FSpQiBA4B94utf4hVm8An7cYCg3nQ+WoQBGfFd+jUrWBj6vWTH1rxfqB+TNTUTWGTK7HvosiQtk+Nt/v75bzUgMv5wvUpeFjnANfNktYvaVzgf3Xf3/ywj1LHMQYMJRXcHfwx50SDiPwaZMOxRNBKDLD0+kYEtHr37WUqhyvF/TLcwGFs2MU9XOnLvHSf/z7vzn+d5Kb2VE4pmMh3B9VLf9zv7a8W8HKnrnWxKiqQYmoUCL2XhsRDAPGuhX8NBB1+0qudaIbuRhO7zwSdzAG3BtRMZANX/nfaeeEfIMxYLwngrtDV7dwMQC/jajoStABSiKGyxT5az7UzkoNvJgtfHNgOZZIIxJ1foFGOyhisev7cVyo49Na64c/zVrYLpsuTKRQCPFklgqTIGr2+2/bNwCkEwdndbyco8IkSDgHPqwUsXNNazYVJ+QSY8CdgSim+yO4qXOLMeDhuIaUdvV4VkKcVig18PqrsddNR+d1vJgtQL/ioHI8mXElbI4KFDHY/X3YP63hy6b1i8EvG2XT4Y+xRArZfJ/l10K8g3NgfquM5V37B4GYsXtSw5/zBdTqVJgEjRH4rePgilHsVJwQAP9ssY113xxY1xSSgAdjKlSFbiEihuNCHW8W/5lOs3tSw4u5AqrXjFZlTEIyk3PuAr9CBYq7nPr6bx9VTY29vs2ntZIxWtWEZuo7IZwDf2+UTBe3dtk8quL1ordHHpPOcA68mtdxVPj2nBGtLAkkCXg8rl3b+3cdLSLhwZgKie4iIojdkxo+rBSxcdjah14oFHbtcDAVKO5w+uu+tl+59fDnbRoN4P1KEfun5sIelaiKsBJxZYeQiMkYe21u0qEd1varRnI4FSaB1+DAzLyOs+I/HQ60rAy4SJjh2VQMXan2PrzSsRAejmk0wYuIgQHhELt2t+QqITmMdLbb+M0OowLFWW59vZd2Ktg8bO9tdaXG8Xa5iCOTo1UZk5BM5RCJOj+djoitOenQbLFrlaXdCj6tUWFC/lGtc8ws6Jct2FScBFhclfBsOoZ0rLOzI90pGb8Oq1SgEFcxBkz1RfDzYBSj3QomeiMt1xtyWEEskYQsm9s9JN7hdiE4v13G7om5xaBeaeDdchFnRXOFSSyeQq6739TvIcHCOTCzqH8zKMQJ81tlfNkwn8tD/K9YaWBmQUelxqk4CapsQsa/pmOIRay5BQZzYQppJK5hDPh5MIrJ3sjl/zfVF8FwXmm5QFG1BNK5HscLFLcXzUEgwte42e/fai7PWbGBd0vFK4c53CSWSCEcEXdkLBFHo2H0+5+XnAnm+XujhPltc7k8JFjOSw28WtCpOAkcBvSkw3g6qSEcsraSGLsIaXShO4YEGGPGeOuRrh+HOdwdiqIvba7YSGW6IEnOTqITYfHsVyJ9bTkHPq0WcVq8eTF4dF7H22XjDWKrJEmCokShagnaASQtq9SMdpqSzWN8P62VsLRbocKE3OqkUKfiJEgYA4ZyCh6O2dOCxWCMIjZ7sJ6QdjEGPJ7Q0H/NPccA3B9TkTORy8MkCYlUxqIrbJ1Ii2i/EPFr2rg4kFysXF2g7J3W8GG1iIbJl9nxZAbJTN6CKyRBo5eNdpq6DRsoHMC75aIxFIIKE9IiKk4Cohmu+Muwva1XDMZI4q4kTYch9lJkhmfTsVvvNQbg0biKpIlcnrASRTxJBYqXify1rNY4Pq6WUP0u22H7uIbPayb78RlDKtuFsEKtXKR9p3odrxZ0S+sHDuDNoo7NoyoVJsQU9l///YluGZ9jDLjTH8VYT2sZJlaoN4DnswWcOnzYjgRDLCrh8biGWLT19yvFSgPPZ3WUrnljfeXv0c9RODtu5xI78h///m+O/51+IXJR8r2EGrrcyV4/qGLBZIK3EolClhVo8aRNV0iCpjst49G41nF3dr0BvF50byIY8TbaOfE5xoB7w6qjhQlghDQ+GqeQRmK9dCyEZ1MxU4UJAKiKhEfjKkJS6x+7qhZHVIubvcSOeWmBLRKvfd3OinV8XC1hZa9iujBhjEGLJakwIZbaPa4Z+SMd/BnlGsfLuQIVJqRttHL0McaAR+MaBnLunAFRFQkPxymkkVgnn5TxbDqGSLi993opLYRH4+bOXMUTKchhZ4t7wHsLbbd59euViYegKpKpe5IxhmxXvyv3JfG/zaMq/lortfV79XIDL+cKOC5Q1wRpHy0bfUoJG/343W2GK1olpVFII7EAA/qzYfw+qcHExseV8kkZv42YKVAYkulcZ39pm7y64HaaV79OdwaiGMyF0Z2SMdkXuf03ANDiSSRSOTB6qBK7cGBlv4LZTXO7eWfFBl7O6zi/ZRodIbeh4sSH4lEJ/5qKIdNhuKJVKKSRdIQBw3kF90dVy6ZU92fD+Hkw2vLYa0kKIdvV78qC0KsLb6d48evDmDHmujf9z8uj/kwYY9037IQwhrASQSSqQaEcE2I3DizulLG4U2nplx8V6ng5V0DRZC4PIVeh4sRnsvEQnk2b78e3G4U0knYwBkz0RPDLkPWLsZEuxQhtbLlAkZDt6gNjLvxs0diSK3mxMJEk4xzgVVPmhrsUDOWvLlAkJiGV6UIoRJMQiTM4B2Y3S1jdu7lA2T+t4eVcwVQuDyE3EWsFS9rHgJ60jKdTMSiymBXAOIU0EhMYM9pepvtba3dpx1RfBCMmUuQZkxBPpm27nuv85//x3iLcbl4sTBSZ4cGohkz8+l3t8R4FfZlvzwkmM3mkc912Xx4hP+Ac+LxewuZh9cr/vn1cw6sF3XQuDyE3oeLEBxgDBrNhT5ztuAxpFPw6ibsYA34dVm9uc7HIz0PRHxaDN4lENahawsYrupoXF+N28eLXQlUk3B9VkVBv/9id7o8gn5QhhUJQYwnIsgJJEqNNlwQP58D7lSJ2T76dvrVxUMXbJZ1S34nlqDjxOMaAse4IfjV1wNc9lyGNJhK7SbAwBjwc0zDo0JQ5BuD+qIq8ieDQWCKFSFS176Ku4cVFudW8+DVIqCE8GFOhRVr/yP1lKIquVBSxeAoSjTwkLuPcyC05PDemcK3sVfBhtUiFCbEFPfE8jDFguj+KOwMRT21EMAAPxzWkTCR2k2CQQwxPJmPoSTtbvBop8pqpFPlEKufKwWQvLs6t4sV/eyYewv1R1XS77eDgIP7XkxFT9yQhduIcmFnQsbBdxl/rJSpMiG2oOPGoZtvLuMPhilYJScBDCmkkX1EVCc+mY8gl3FmMGcGhmql7MpnOQZadzxHy4iK9U178NzfHVodMPOYikQjy+TwYYwhJwONxzdSOCyF2Ycw4EzWYU+izm9iK7i4PYszYeXCq7cUuqiLhwRiFNBIgqYXwbFpDsoV+fDupCsOjCQ1yqNW33AzxVNaVHBQvLtbb5cV/a286bHrKXCQSQTQahaZpl2OrowrDo3ENYUEHnZBgYAz4eTCKid4IImGGxxOasMN3iPex//rvT7Qx5yGKbHxQ3TTtxWv2TmqYWaRDdUGVS8h4NK6aKAjst39Ww6t5c/dksXCGwvmJfRd1jf/4939z/O90iheLEsAYnT7Ra37K3PDw8LX/7fDcyJGg5yRxWrNT4/sXoid6Hc9nCzSpi1iO3ll7SCxqtL34qTABgC4KaQwmBvSkw3gyZWanwhn5hGyEPpq4LDWWgBKhQ/JW8eq/a6RLMV2YxGIx9Pf33/hrsvEQHo2LP5GR+AtjwIPRqzs1UloIj+meJDag4sQjMhfhinHBwhWtQiGNAcOAwZyCh+PWpb5brS8Txt1Bc/dkIpWlFHkLePXfM94bMbKcTEgkEtA0DbJ8+xCI7pSMex6ZzEi8T2LA4wkNvZnr7818UsYDD8QYEG+RhF0ZEAMzPpCeTcUQ8Xl/ZzOkkR5y/maMv1Zwbzgq/ONnuEvBZF/rKfKMMeS6+13JpPDqgv57Xv13TPdHMGTyHGA4HEYmk4Gqtr7jNpAN46cBepFD7BWWGZ5OxdDVwoj13jR1PxBrSd0mZvsTh12EKz6aCM5biTsDUfRnvX3Qn1yPMSOV/acB50fwtmuyN4LRrtZT5AGGbFcfhea1wYuFCWPAXZNBngCQSqXQ19fX1t852n3ROhaQzwXiLFWR8HTK3NnWwRwVzcQ60oMxDakYfYiKpvl2+dcRcdte7MAA3BtW0ZWiotlvGAPuXkx78ZqfB6PoN7n4TKSzNl3N9by4uG/y4rVLFweFW3m7/LVYLIZYLNbR3z3VF8FI3kzRTMjt4lGjMEmq5teFo90KJqloJhaQQhLwYJTyJkTCGDDVHzXeQrh9MS5oJoRT0ewfjBkp7MNd3szlAYDfRs0tQsPhCGKJtI1XdDUvLvK9eM1hmeH+mIasyQElsVgMqqq2dMbkNneHzBfNhFwnHQvh6VSso1ydyb4IxrqpaCadkQBAi1DehCgYA34ZUjHh0XBFq4Qk4OEYFc1+IEnA7xOa6bYX0TAAjybMFc2qFoeqxe27qGt4abHvpWttUhUJD0ZV07k8oVAIuVwOmqZZdi2/jaropp1m0qFcQsbTqRgi4c6rip8GohjKUYFC2nf5ZE3HQngwGpyzDSJiDHgwpmEo7+1FnFUopNH7ImGGZ1Mx5H1ytk1iRoq8mTeLsUQaUbWzFp52eGHR74Vr/F5clXB/VDX9djmdTmNgYMDy62kWzWZ3cAgBYAzdSct4MqUhZOFn7a/DUfSlaS1D2vPNrdiTlnF3iA40uSEcMiZj9Kb9sYizSjoWwiMaU+hJ8YtcnrTP2vOiYSMI1Uw2SzyZQVhx/qyNyIt/ka/tOs2XeGbfLpudyGUWg1E0x03u5JCAY0B/Jmzk59jwx98fU33zYoo464cn2XDemAJCi0HnaBEJ/7oTozdf16CQRu9p5vLEOuhdFllClUwH4hkZKM5/PUQsAkS8ptvkk0Ywp5m3y7IsQ1VVJBIJhMP2vkUOywyPxzVEqRWWtIIBQznFCJu176/A7xPmpn4RAgBsbW2NX/UfPq2VsLpfAa78r8Qq6ZiR+mtFn6ffLe5UMLtZAqd7UlwM6ErKgUkN3j6q4e2y3vI9WatVcXywY+9FXeM//v3fXPl7v+bFogQAetJh/DRgfuerq6vL1h2Tq5zodbyY1VFv0IOSXONiGqhTI92rNY4XcwWcFRuO/H3E+659xXJ3KIoeOmRnH2bsCDybtuYAWhCMXYQ00iE7QV20CDwOUC5Pb0bGL0Ot7+rJchjpXI+9F3UNtwsDt//+dhmhh+YKE8YYenp6EI06n+eT0kJ4NEE7zeRqjBnZTU5mTYVlhscTtKtHWnftncJgHM72W7+4EBgwcLGIk+gDpGUMRkjjAIU0iocBI132tgiIaigfxpSJFHlZDiOZzgUqRd6rhclwl4LJPnOFiaZpSCaTiEQiYC5VCPmETANuyA8YA+70R43nlcNURcLvE+bO6pHgurGMlS6mR3Uy85p8izFgtEvBvQAu4qzAANwboZBGkTTfxN0d9E7qu9Umes3N9lciKrJdfQjJ/i+0vVqYjPdcfE9NkCQJyWQSqVTKpqtqXXNXjz5oCPBPTMGYizEFCVUK1M46ad+tVYeqMNwfpXGuVmDMSPX9eTCY4YpWYaCQRlEwZsy0d+NNnGh+amNXL5PrQciCMD4znCwWvFqYTPdHTI90lyQJAwMDUBRxMqqG8mHc6Y9SgRJwjAG/jahCxBRk4yEqUMitWio50rEQHtI4145chiv20iLOChTS6D7GgHvDqnEOiAAwdvXMBuIl03kwh9/+OFE0eLUw+XkwajowNJ1OI5fLudbGdZPxHgXjPa23HRJ/YQx4OK6hX6B26K6kjN9G6VwUuV7Ln4jdKXMHP8k/GAMejFK4otVURcLDcRUhOrjjuOYH3kCO7umvMRhfFzNn9UIhGfFkxr6LuoadxYMXCxPGzBeXjDFEo1Fomub4VC4z7vRHMJyjlwhBE5IYnkxqQg436s+EcXeIdvXI1Uy9rmse/KQCpXVyiOHJZAy9GfEeDn6Q0kJ4OEZFs5PCshEYKuIHngiaKfKxaOuP10hERSzh/DkFO4oILxYm4ZDRvmw2ayoUCqG7uxuyw6157fhl2PyOEPEuJczwdEpDLiHuvTmcV3Cnn4K/yY9M9xKM90YwlFfoZmqBFpHwr+kYcgk6G2GnrpSMexTS6AgtIuHZFAWG3iYSZng4riEst35TqloCWixp41VdzcpiwouFSVSRcH9MRUozd093d3ejp8edsdDtekCJ3YHQfE57YdoqtR2Sq5guThiAu4NR9KTpDcxNUjEjITuh0pkIJwzkwpimNzC2SmohPJuie7pViaj5FHktnkQkqtl3UdewoqjwYmESj0p4MKoiZmIipSzLSCaTUBQFoZD4i7/vPZ6gYSJ+ltRCeDqlIW5i59Zt0/0RjOQpw4z8o6271zhDoSJDb09/dJGQ/a/pGKIUruiocQpptE2+eU8r9MU1Ixs3P0wknkw7PsEL6Ky48DnzwiwAACAASURBVGJhkoqF8GBMMx2CqygK0uk0JI+OsJQY8HicIgL8KBM3ChMvDoq5O0QZZuQfbd/BzUPe9ID7ylcJ2XRG2x2XIY309bcGA3ozYfw+qSFEP+pt6UmbGybCmIRkOm/vRV2jnSLDi4VJLiHjwahq+p4eHBxEPu/O98ZKkbCR2K2YaDskYutKyng6FUPYwyGH90ZU9KSp7ZAAbG1tjXfyB5zodbyc01Grd/THeB5jRpowZZi4jwOYWdCxd1Jz+1K8jQFDOQW/DNM9bYXFnQq+bJaMG7QFjXoNh/vb9l7UNf7j3//t1l/jxaIEMIrFnwbMBYZGo1HE43FomvMtd3Y6KtTxYrYAHuyPb29jQG86jAdj/gh25gD+nNNxcEaf34HFOtg5aUppIdwP+LxqxoDJPiMhO8BfBmFchjSaPOBK/sEYMN4dwa9UmFhmvEcxlSIvhWRk8j2uZGfcVnh4tTDpz4ZNFyaKolyOC/abTCxk+lwUEQgDBrP+KUwA4/H4eEJDkj6/g+mi2LakUaM7JePXgE5LYswYEDBJ4YpCCUnAw3EKaWwHY8B0fxR3BuiettpPA1EMmuirDoXCiCXSNl6ReV4tTIa7FEz1mb+ne3t7kUw6P0XNKd0pGb+NBPPz29MYMNKl4N6IfwqTppAE/D5BxwYChwEDF8W2Zd/5wVzwMlAYA+6PqhjuonArEVFIo3mMAb8MqRjvoXvaLr+OqOg20VcdVWOIqC5N8Cpd8f950HhPxNi1MiGRSKC/v9+mKxJLfzZstCTTo9ITGDPu6buD5nYBvSQSZvh9QoNCg4WCgRm5N81i29KydLw3YizUA3AvGeGKGoVaCY5CGlvXLLaH8nRP24kBeDSmmZp2mEhmEVac38n6z//3n2LEq4XJVH/E9D0dj8ehqqonwhWtMtKlYLKP8iZExxgw1RfBnX7/72zHohJ+n9Dg0cF4pEWMAWPdCn4Z+qeNvOMD8d/jHHi3XMTWUdXKP1YoqiLh0YSGJOU9eMbGQRUfVot08PMaIYnh0YSKvMBpwn5TrnG8mC2gUGq0/HtODvdQrZZtvCp/+Xkwiu6UuXtaluXA7Jhc5a/1Epb3Ki0PbiDOYcxoDR01uQvodQdnNfw5r9Pntw8xBkz0Rn5oubV8dd18++rXBOmkZoQrUmHiLQO5MO5QSOOVooqEZ9MaFSYOi8gMj8bNjXNNZvLQ4v49/2AVxoBfh1XThUk2mw10YQIYBd0gjWMXTvOeDlphAlyM/jaZF0XExxgw1R+98iygLStsxoAHYxpiHkoobUUziE6lIDpPGqOQxh/EVQnPpmiymVviJlPkGWPQYknEkxl7L8zD5BDD/VEVuUTr9zRjDNlsFtGof3v4zbg3oqLHZGFH7NN86TuYC27LbW86uIOX/Ki5CzhxzflW26qHSJjhwZgG2cOBQJeYcWDw9wkKovO6y5BGgkw8hH9Nx2giissybaTIR9UY1FjCvovyqGhYwoNR1VSxzRiDqqqIx+OBOmNym4fjGrK0m+o6xozRunS+1Ri8RIMbvK85eOemXUBbVyVJVTLmb3v4RmIMGMkr+C3gWS5+wQDcG1bRFeS3gswYH/ps2ttpwn7S08ZbwVg8BUWhN/1NsaiE+2Oq6R17xpgvUt+txgA8Hlcpb8JF4RDDs6kYupIB/rz6Dg1u8DbGgN9Gbh+8Y/sr066kjHse3YprHtS5O0RBdH7C2EVIYyyAH7oXc8QfTWh0Twtm8OJclJlvTDyVBX1KG1P5HoxqiJocO5rL5TA4OGjTVXmfHGJ4RHlRrogqEp5OmZvqFxSTvRFTgbZEDM21V38L3SuOPHEGcmFMe+wwMmPGwcB2QruI+EIS8HAsYB+6DBjtUozANbevhVxprEfBeHfrbwUlSUK2q9eVFHlRGIdlVcgm1nCSJCGdTiMSoef7bZrTKX3Rou0R8ahRmNCu1fV+GohiKEcFildIktGe2NNixpdjK7OxHgUjHslAYQz4bVQ1rpf4VpBCGpuz8X/2cWiXX9wZiGAw1/qzR5JCyHb3g7EAFdoXulMyfh02d09LkgRFUZBMJumMSYuSqrnBDaR9qVgIT6diiNFZwFv9OhxFX5rO4oguHGJ4MmmuPdGxu5/BqHRFv5FCkpFK2k+HzwIhpYXwcNybbYetau4CTvbSW2KvuDccbfkNEwAwMCTTwWrxaqaam9XT04Pu7m4brsjfcgnzgxuIObmEjKdTGiKUit6y+2MqnckRWDTM8GRKMx0v4mhpfpmBIugEkMu8B7rRA6Ur6d8RhYwZY0FpF9B7Ho2be6CHlSi0eDAmeA3lFdMtt7Iso7u7m3ZLOtDO4AbSgoshJU+mNMgB2Mm3EoPRLkRnc8SjRSQ8mYq1FVXg+L6hcSBGRVywDJSkFsK/pinvIagGfRjSyJixwKXRyd71cFxD3ETgqxZLIhLVbLwi9431KBi/Zjb+daLRKDRNQzQaDfT5HCsM5sK4M2BucAO5AQP6M2E8piElbWuOW06otH4TRUIN4emU1vZa35UKQZGNDJSwiWRkO+USMp5Na8E6HE1+MOqjkMawzPBsOmY6IZuIRblIkTfT5pFIZaFE/Hm2aKovguG8+V3AfD6PdDptwxUF01i3gokeGufaMQYM5RTcH1XdvhLPC4cYHk8EbMiNoNKxEJ5Mdramdu27mFCNsCxXX2IxoC8TxpNJ2kolxufsnYEoBrNhT3/oahEJ/5qOIRPEUck+FItIeGjyMHIynYcc9lcr30+D0ZZGUH4tEolgcHAQkkQLFqtN90cw0kahSC5cTE80O9CBXE9VJDye0Ci/y0W5hIwnk52fm3L1iZ1Pyrg34k6BwhgwnFdw3+MhkcRaDMCvI949YJeKGanvorVNks5kYiHT05ISqSyYTxblvw6r6DG5C5hMJpFIJKgwsdHdIfMFIzHWH5O9ND3RDgnVKFBoXee87pRRmFgxdtz1p/ZA1vle/2a44i8UrkiuwODNkMZ8UsazqRhNevGp7pS5lzmhkIxkKmfvRdlMDjE8GFORS5j7WVQUBel0Gprm7/M3IvhtVEUXtY+2jDHgTj9lqNkpEw9RgeIkBvRmLsKdLfqau16cAMYBx9FuxZEbiTFjpDE9GMhNPBXSeNGe+PukhpAHLpe0byBr7jByWIkgmfZmgRIJM9wfVU0PKdE0Db29vTZdFfkeA/B4XEPaYy9z3MCYsds0ZnKgAzGvKynjvttHB4KAGZ9LD8asDXcWZilzZyCKvoy9vf6MAb+NqMahZ0Ju4YmQxq/bE92+FuIIs4eRlYiKeCpj70VZLBaR8GDM/KQXOvjujua0JGonvV5zrHs7Ax1Ie/oyYfwypHr6DKnQGDCcU/DbiPXrD2GeJAzG9nAubs/2sCQZD0/qjyVmpLQQHgp6LokxYKKH2hODaLo/gmETKfLRaAyZfK8nxugmtRDuj6mImmhPDIfDiMfj0DSNckxcosgMjyYoQPAqRoQCjXV3w1A+jJ98FhMgBGa8KPvFpoEOwhQngFGgPBhTTc31b0VUkfBsKubZQ87EXV0pGfcECx5r9i1P91N7YlDdHY6iN9P6YicUkpHr7hf6gHg2IePBqGp62k4sFkM2m7XpqkirYhEJj8Y1CHyLOS4kMTyZ1NCTpvWHW8Z6FEz00uhrqzRfjP40YN9AB+EeIc0MFMWiDJSEKuHZFPXDks4MCBTSyBjwy5BKfcsBZwxuUJFNmFn0MKRzPWBMuEe/ceB/2PzPWH9/P5LJpD0XRUxLx0J4bHKynF8pYYanUxpypn5GiR2m+iIY6fJHjpmbGDO+lna/GBXvEwpAIioZh2s6vImyCRn/mo5Biwj5zyQeM9ajYKzb3bcvjAEPxjQM5ak9gBgejaumkpElKYR4UqxzGX2ZsOmxqpqmIZPJUBuXgPJ0GBlaRMLTqRi9GBXI3cEotdZ1oDlQaqLX/o4NYVftuYRsHLJp5+F2MdbsqUXzlglpmh6IGA83F24rOWS0B/RSewD5SjjE8Gjc3BmNSFSDGkvYeFWtG8orpt/CybIMTdOQSIjxbyA/6suEcXeo9clyfpLUQng6pSFBAwKEc29ERU+aChSzmh0bTg2UEvonp/9ibKaZAoVdTA+wYueFkO8xGA83p88vqYrRnkjtAeQqWkTCowlzvf6xeAoR1d0ckLFuBeNttCf29/dThokHDOcVTPdFAvVZnImH8HRS88YY+gBiAB6Oq/RZakJz0pyTHRvC//SMdrfeSsMYMN4Twd1hml5E7ON0SGNCDeHZtIakybwHEiwpLYRHYyZT5JNZKBHVvou6wWRfBMNd5gqTdDqNnp4em66I2GGiN2K8bQ3Ah3I+KePpVAxhi87MEnswGNNbvRa07IZmK7nT7XDCFycMX7XS3PTrmJGVMt0fCcIzkLjMqZDGbELGs2l6C0da05Uy3w6bTGchy85+8Pw0YK73W5IkqKqKaDSKSIQm1HnNTwNRDOZ8XKBctJL/PqlB5Fgs8o/QRbxEjFrvriVd5Be50Uruie8KA3BvWEX+mlaa5pbTGIUrEgc1QxptGZvJgJ60jKdTmumxqiTY+rNhY8Rjy7cNQyLl3BjeX4ajpseqcs7R1dUFRaFnvFfdG46i14+9/hcJ2Q8pCNdzIjLD43HK5rmKHGJ44mIEhyeKE6C5tfTjVBrGgMfjFG5E3NFOK82tGDCYDePhuEYfdqQtoyZT5ENyGKlsl63XFJIY7o+qyJvs9e7p6cHg4KBNV0Wc9GDMZ73+DBjJGwnZxJtiUQmPJzSEaMvrUuRiBHY27l7bm2eKE8CYSvNgTIVyUeVGwgz/mo6hK+Wjhx3xnK6UjHvtTpb7DmPAaJdi/Hmd/3EkwKb7IxjOt77TEA5HkMrYU6BEwsaz28xYVVmWkUqlIMuyJ5Ltye2avf6+OD/XPOM6ZF8QHXFGSgvh8QQNUQKM4SpPpmJIufwz6qniBADiUQkPRrWLQ8I0Q5yIYSBrhDR2UlE0w43M5j0Qcp27Q+ZS5MNKxPIMlFhEwv1RDXETvd2MMYTDYaRSKYRC9Iz3k2avv6fzxxgw3RfBHZuD6IhzcgkZD63ugvCYhCrhyaQYI7Ddv4I2SAxIapK3H27Ed4yQxvYOfTIG/DzoTLgRCY5miryZVpqoGkckas2Y3qQWwv0xFapi7odicHAQXV32tpkR90TDDI/GNU9OtWIM+NmhIDrirJ60dV0QXpOOhfBkUpzQcjGuwoSd4xpezBWwcVjF3+slty+HkG/8NBDFoMnzT4wBv42oGDE5VpWQVj0aV0210sSTGUgd7lhk4yE8GFVND3SgoiQYEqqEx+PeelPNGPDrsHNBdMR5A9kwfh40l6/nddmEjCeTYg0G8FRxsn5QxZslHZwD4MDKXgWLOxW3L4uQb/w6oqK7xXNQzVF9/TTQgdhIbqbItziSmjGGbL4XoTbPe7RzDkuWZSQSCUQiETpjEhCZeAiPPFKgMAbcH1UxmKNntd+NdCmY6mt9oIiXdaVkPJ3UIAs2FdQzxcniTgUfV4tGYXKBc2B2s4SNw6p7F0bIdxiM0KLbAp6UMMOzafdG9ZFgURUJj8ZVE1NpGDK5XsQSKVN/T18mjLttnJtSFAWZTAaSLbO5iai6LRwoYpfmVNA+E+e3iLdN9EYw3mIAuCddZPM8nhDz5YDwnwIcwJeNMmY3S98UJpf/nQMfVorYP605fm2EXOe2kMZYVMK/pmigA3FWSgvh0bi5hWBUjUPV4i392sGcguk2Dgn39/cjn8+b/n3EHwZMZ/M4Rw4xPJ2iqaBBdGcggiE/hocyYCATxgOBs3mELk44gI+rJSzulq8sTC5/HQfeLhVxVmw4dm2E3KYZ0vj9m+p0LIRnUzFKpiWuyCdl3B81V6DEEmlE1diNv2a0W8FEr7le/Gg0imw2C1mmhV/QjXYrmOwV6011VJHwzOW8B+KuX4aj6PfTjhkDhnIKfhsVtzABBC5OOAfeLOpYP6gYVcotqnWON0s6ytUWfjEhDklpIePtxMVToCsp49l0TKiDZyR4+jLGoU8zn07xZAZK5Op2rcm+iOmBDuFwGNFoFPF4a7syxP+m+iIY7RLjTXU8KuHplE8yWUjbGIyzRr7YObvIUft1WPy4Ara2tibcar5a45hZ1HF0Xjf9e7MJGU+nKFmbiGXjoIr9s5rwbytIsMxtlTG/XW7pBRAANBoNHB/uolH/p432zkAUvWnzH9zDw8Omfw8JhvfLRVfPkqZiITweF2t6EXEXB/BittDWulQE7CI0tJ22WzcIt3NSKDXwvIMb4PCshndLxVY/awlxRL3BEQ1LVJgQoUz1RTBiIkVekiQk07nL//3LkPnCJJFIoLe319TvIcHy22jrEw+tlk0Y04uoMCFfYwB+nzACwL2mGfDslcIEEKw4OSrU8XyugPNSZ2dHto4pA4WIY2G7jM/rxtmpJRp9TQRzdyhqapS1LIeRzXfj/qiKvIlJc4wxaJqGaDQKRaGcCHKzRxMaMg6f9ehOyXg2Jd5YVSIGOcTw+4QGVZCgwlYwZuxuey00VJiv8O5JDS9mC6hYcWaEMlCIIP7eKGF2q3yZzfOFRl8TAZkpNKJhhv/5SwbTY32m/g7GGPL5PFRVbecSScAwGBlQcdWBZQoD+rPGWFVCbhJVGB6PawjL4hewjAG/DKkY82BoqBDFycZBFa8X9Rsncpl1mYFyQAtB4o4PK0Us7X470KE5+nqPRl8TwTwav/3wbzwq4el0DCkthGg0inQ63dKfncvlMDAwYMVlkgAJh4yFYKvhoW25mF50f5SKZtKahCoJmw/SxBhwb0TFUN6bk8ZcL06Wdiv48F24olU4Bz6s0kKQOIsDeLNYxPph9cqDxsYkuiJOdG8erCP+FJKMoLnrsnnSsRCeTscQ+6qlIZlM3rgTIkkS0uk0pb6TtmkRs+GhJnhoehERSyYWErZAYcwIgh4w0a4rGleLky+bZXzZuDpc0SrNDJTTIi0Eif1qDY4/53RsH19dmDTVGxxvloooViibh4gjqjA8mvhxIZhvjsC+opUhn89fmVMiSRIURUEymaQcE9KRlBbC4wmLU+QZMNkbMUZqE9KGrjYyo+zGmNEO2c4ERZG4Upxchivu3ByuaJVanePtUhElykAhNipWGngxq+PgrLWdumK5gTdLRdSpPiECSapfLQQZ0JsJ48mkhuteXDPG0N/fj3D427d0fX196O7utv+CSSDkEjIejGqWZKAwBtzpj2Kqz1uHhIl4+jJh/DIkRoEihxieTsXQZWJQiagczzlp7mRsn9z8ZtkO2XgIT6diQtxExF9Oiw28XtRRLJuvNLpSsrE9bMN1EdKuraMq9s/quGei5WVzcxOMMaTTaUSjUWrlIpZb26/i41qx7fUDY8aEumETI7QJuc3SbsX2TqCbRMIMj8Y1pGPeG3V8FUd3Tqp1jpfzt7e82OXwvI63y5SBQqx1cFbHi9lCW4UJAOyd1vBxhe5LIpZylcPsRNVcLodoNApVVakwIbYYyodxpz/a1g5K85AwFSbEamPdijGu14XHnhaR8GQy5pvCBAAc2/splBt4s6jjrOhuD8v2cRV/rTPcpT5TYoGd4xreLHU4aY4D64dVhGWGnwboviTuu0yOBxCWWcvtL5FIBJEItcoQe433KKjWORZ3yi2/6GQMeDimocfjvfhEXFN9EdTqHMt7FcdewMdVCY/HNWgeyl5phSM/pceFOl4v6iiLcOaDA6t7FURk5rlQGiKW9YMqPlo1aY4Dy7sVRGQJYz30Vo+456/10jcfrvPbZSgyw0gX3ZdEHHf6jYXg6v7tC8GQZAx6yCeoMCH2+nkwilqdY92BGItULITH4xoiYf/tUtteau2d1PBiriBGYXKBc+PN4BploJA2Le1UrCtMLnAKaSQu+7Ba+vGtHzcKlq0jui+JWH4ZiqIvffO4VEVmeDqlUWFCHHNvREXPLfdlp7LxEJ5M+rMwAWwuTjYOq5hZ1NEQcBoR58Cn1SJ2TygDhZgzu1nGl017Dr5RSCNxy5ulItYPrn4LzTnwbpnuSyKeB2Mq8tdMJ9IiRmion3rxiTc8HL/+vuxUV1LGk6kYwmYPBXqIbcXJ8m4FH1bsCVe0SnNyGIXhkVZ9WithweYR2BTSSJzU4MCf8zq2j24eVEL3JRHV4wkNqe8KkIQawtMpDYmov3rxiTcwXH1fdvqH9mbCeHzDaHe/sOWndnazjL9dHKlmRr1xkYFS8cDFEtdwGG+OW+lvtkK9wfFmkUIaib3KNY4XswXst7gjUm9wvKb7kghGYvjmUHAmbhQmqkKFCXGPxIDfJzTErSiQGdCfCePhmBqI2AFLf3I5nHmzbDW93MDb5Q4nLhHfanBgZkHH5qGzI7CLlQbeUkgjsUmh3MDL2QKOC+Z2QkqVBl4vFlFr0AOTiCMSZng8YUzjejoVgyIHYQlHRKfIDI8mNEQ7ORvCgKGcgvujqnUXJjjLipNmi5RTb5atdnRex9slypog3ypXjTfLey6dTTou1I1Rxa787cSvTvQ6Xs4WcF5qr/I91et4vVC0+KoI6Uyh1EClxilomQglFpHwaEJDqJ1eLAaMdin41UQYrh9YUpzU6rylnmXRbZ9U8Xmt5PZlEEEUSg28mDP/ZtlqeydGSCMhVjg4q+HFrI5ShxMUD85qeLNE9yURw8ZhFW+WdByd1/F6QXf7cgj5RkoL4fGEZq5wZsBETwQ/BzCXr+PiRC838HxWx8GZD6a4cGBtv4KFi/AxElzHhTqezxZQaPPNstXWD6v4e4MKZ9KZneMa/pzXUbeoJWv7qIpP9EKHuGx179sBPLsnNbxfpsKZiCWXCOHheGsFCmPAdF8E0/3BzOPrqDg50et4MafjrOif6S2XGSj7NNM/qPZOangxW0ClJtA2IAeWditY2qm4fSXEozYOjDfLVp+tW92vYHaTXugQdyztVPBp/ccBPBuHVXxep8KZiKUnJePeiHpjgcIYcGcgGuig8LaLk73TGp7PFlDy4dQWzoFPa0XsUAZK4Gw2s3kEqksuUUgjadPKXgUfLA4NvcSBhZ0ylnepcCbOmtsq4+/N0rXt5Ct7FcxtUeFMxDKQDePnweiVBQpjwN2hKMa6FecvTCBtFSebh1XMLIgZrmgVzoF3S0XXzxsQ56zsVfDeA9k8FNJIzJjfLuPzFW+WLcWBvzdKxkQ7Qhzw13oJ89vlm8+5cuP+p8KZiGakS8FUXwRfzwVmzEiXH84HuzAB2ihOvLCAs0q9wfFumWb6B8H8dhl/2b2AswiF4ZFW/b1RMt4cO3Bfcw68p8KZOODjagnLey1OBuXAXxu040zEM9EbwXi3UaAwBjwY1TCQDbt9WUIwVZzMbXlnAWcVvWxkTQjZ5kMs0VzAeem+ppBGcpuPqyUs7To72p1z4PWiToUzsc3b5SLWDkze1xc7zrvUqk0Ec2cgguG8gsfjGnozstuXI4yWipPLcMVtby3grHJcqOMtZU34DofxgeX0As4qxUoDbyikkVzh7VIbCziLNBpGaKlephuTWGtmQcdWm2G4zcL58JwKZyKOesOILaBQ22/dWpxwGGcvVvcrgSxMmnaOa/i8SpM//IIDeLOoY93h1HernVyENBICAA0OvJrXseVy5lS5yvF6sYhq3cM/XEQYtTrHizm9450PzoHXCzrOilQ4E/dVahwv5wo4OKvh3XLRtbBnEd1YnNQbYnzQiWL1gCZ/+EG1zvFytoCd45ov7uu9kxreU0hj4FVqHC9mC8Kc+Tgr1vF6ke5L0plylePlvI5Di7LUqnWO14s6ShUfPPyJZxUrDfw5r18OXeIcmFk0QkTJDcVJsdLA89kC9gX5oBMCBxa2y1jdp8kfXqWXG3gx67+t/Q0KaQw0vdzAi7mCcNMFDylFnnSgUGrg5VwBJxbf13q5gZlFnVpiiSvOS0Zhcvrd2TzOgVe0swfgmuLkRK/jxeyPXzhi3Dyf10rGW3fiKX4MDb3EgWUKaQyk04v7+lzQD7Ttoyo+UUssMelUr+PlvI7zkj339alex8wCtcQSZ53odfw5r6NwzX1dq3PMLOiBH3bzQ3Gyf1rDi1n6wtyEc+Dtso4jwd5SkusdnNXwck73ZWhoE6eQxsA5ODMKE9Hv69UDSpEnrTs8rzvyvD44q+ENtR4ShxydG4XJbfd1sdLAzIIe6DN73xQnW0dVvFrQUaepAbdqNIyJOFTEiW/7uIY/53XUAvCDfhnSSAfrfG/npIY/5wveuK8vUuSXKAyP3GLvpIaXcwXHFmbbx1V8oJ09YrP90xpezhdQrbV2X58VjQIlqIOoLouTlb0K3i0HI1zRKiUa5Sq8tYOqMQY6QPc158CbJQpp9LONwyreLHrsvubAFwrDIzfYOqpixoX7ev2gQmf2iG12jmt4taCjYXKteHRex8xiMFsPJQCYD2C4olVOKANFWIs7FXxaDWbBTSGN/rWyV8GHFW/e182dPQrDI99bO6i694KUA0u7FSxsU+shsdbmURVvOnhBundSw9ulYuDWmNLn9RLmAxquaJXd0xo+rZYCd/OI7MtmGV82g11wU0ij/yxsl/HZ4y+SmmF4dGaPNC3vVvDR7RdJHJjdKmN1j1oPiTXWD6p4b0HBvXUcvKEi0spesMMVLcGBtYMK5ujApxA+rZawuFP2RYZJpyik0T++bJQxu+WP+5pzIwS1QCnygbewXcZfGyUx7msOfFovGdluhHRgZc/CgvtijRmk1kNJiAeCH3BgcaeMFXrr4hoOY0jB6kFFjA86Qeyd1PCBQho97eNqCYu7/ihMmspVjtcLessHRIn/fNkUsODmMNK6KeONtGlxp2L9DvdF6+F8QFoPb0yIJ+ZwDvy1XsI2ZaA4rt4AXs3rxhsvkT7oBLFOIY2e9W65iDWfFtznpQZeB/TAZ9B9XhN3h7vZeihaqCkR39yW0VJuy33NjT9/OQBTD6k4sRjnwNsl6qd2UrnKk7XPbQAADkZJREFU8WKugH1603W9i7cuFNLoHc204M1Dfxfch+d1KlAC5v1KESv7YhfcjQYwQ62HxIS/N4wz3Lbe1/z/b+9OdtxIziAAxwAGPCcffbABH+2L3/8ZRFLsXS01i/va3Nfal/QhixoLkka9sKpyie8FRkBzivyz/oyQ/53J2uzVQw4nBZADig+PD7XCnYIMH1ou9hwGf40ljdqIEzlw29JXM98leLDswqetrru+/GGl8GByFuWrhxFXD+kXPo0C2eNUwkdFCOB+6Bu9pcPhpCDnDpSEhZaF2Z5SfGi5HAJf4WtJI98yKcsLM9QcD9uTXQP3aB3hiaEixsoE0Gh7eN7pdThyCuwuw6Nfux/4GJb8JvC8pbM6mvldzuGkQAcvtTKfugyLfYKa8/K2VfqDTEpiSaOKDn6KmuPh6Fv4t8lDRbh6aJ44EahrvHq7c+0tw6M/d9PzMa5o9VYIoNnxjPwu53BSsOU+wcOAA8olTTYxrnRrx1YMSxrVszmlqLc8BDb/TfLVw7Hh+9Q28aMM9bb+bwKX+wS3faYe0h+anepDeLI8DMgNzPre4HBSgvEmZgfKhejcjq0aljSqY7FPUHdcxCk/2Od96rkl921MdvQz1B0PB0NOdqebGI8j3o2yXZrJFcWFIs+oKBH42PEQxuZ8f3A4KQM7UC7CmYX4rHk7tmpY0li9Kd8Efi8vadT9tN1mOzdFvW3encDBKkKLh43WihKBRlu9FUUvzPCx4xlz2MjhpCTnDhQ2z77N57GM6OMPuMtbHhLcsaSxEoNlhDu+Cfyhc9fEybB1BRusjwnqjofIoJPcrwTQmYcymYms4kcZGgqvKB68FM2OGYeNHE5KJPLm2Y2iH2xV3Q189JdqZ+JrTch7PCxpLFeniBZhw0SJwFWXUa46me8S1NseUpOTKvOuCd6NsscpkIOJ6iuK62NiRG8Uh5OSnePfTLu8VIRzEsXE8BI6JQigz5LG0jxNQ7SKahE2jJu3yHOIU99kE+Oq59nxuRbAg+FdEyQd/BQNjS6dz3cJ7jQPb+BwUoEwFrjp+0h4+fWnziV0i31ixxedAsS5pJGngYX6NArQnRfcImyY7SmVP3pJWcOVXFG06XMtBHDd87A+qn2aTm+3dVM0HP1SFCeahzdwOKkIO1B+zgszfHBcZfc6TXZOSrKlmbxst/3yy7pMsdgluOfdKCX15hE+jSx9E5jfjTrY2E1kuNUxQcPRd61U5/AGDicVWh5lBwr9Ye+lqLVcnHy9TilMIk8DWdJ4SQJyRXHKFcV3GfNulHKcWYgvlq8oJqlAs8PeKJPM9wk+6n53Kg9v6Gq4rs3hpEpCftk+aTrZXtrqkKDW8hCYmPCiGZY0Xk6cCtRbrjKZ+FoTQG8Raflla6IvE5miaPNgchZEGZodn11FBphtY1ybcs8tX9cervR6ZnI4qZoAevMQfctjCWfbOM/oNuFpYAY/ynDdZUnje/iRLKFjQt8FCaA1DTBa8W5UlR6GgYzT5SP7q6Of4sqQKFdbjdcxbvuGxbsL4HEUYKpRlQWHEwWIPJbQ1g6U0crAh4Eh9h5LGt/q6GeotdSPntSREMDDyMecSUmVuO37GPHu1A9tTqkRUa42GiwjPAzN/C0iBHDX97V5g8/hRBHnDhTbUj+68wifRmY+DEyx3LOk8bW2pxQ1x+VaXJEEcNXjW6myfb07RT813/GZqZvuPMJnw3unzsW2OjwzOZwoRAjgpm9PI/LTRHY9mPwwMAVLGl9uuU9Qc1zEmia8aEUA110PR0uemVVKMoGa42lz8lq1ySbG5zGfmTpwZiGeLPktcu6POygeOsThRDFRLHDTM/9S3cMwQHcRWvEwMEJ+EZkljX9uto3RNOUipSaiROCq4yFkkEZhwljIu1NHDiYvJoD+MpKBAaSsp0loXaiDTJfz4IXqDigcThR09M3tQBGQMbWjNfeVtXMuaeRKxw8NVxHvTlXEC2WLPPM0Ls8NM9QdF3tX/VUQ5Qh5Kj9Y8lBHRY8jeUhq42+RIMrQ7HrKvuHncKKo1SHBfd+sndU0Az62PTxv2fWgKyGA+4GP5YEnqP+vm5fQcTCpzs5Ncc2LyBd18FPUHXtWjQshgMcxD3VUcz/wMbA81OHkZ/jYUfNNP4cThU22MZ4mZrwS9iOBDy0XK/6o1d75Uh1LGqXWVO4r2/wlp4oFwxsuZnOSg0nAUIf3Ox/q8L6OEm76PsYsxAUgD3U+Khh/zeFEZQLoLkKZJa+xoy/XAhipao4sA0saIdcCOnM71wJUxYvI77c8JKgz1OGihACaXQ9brsdVqtn1MONg8o3VIcF1T61DHQ4nqhPA0yTQNrpxc0pRa7lKX7yit7G9pPG2z7UAJeUXkTu8iPwm50JcFVc9dCcEcNXhmlwV0gxotD0s2I30Q8/bGPdDdQ51OJxoQAjgbuBjrVlSynyXn74ZnjxmM1tLGpvdvOuBH201Cbluxxb51xmvY9z0fX6uCxQlMimJ6XLliROBRptr5b8yXkfKVAZwONGEEMBNz9fmxGWyjnHd4+mbDZb7BHeGhTf8TJLmXQ88fdPCw8jHM/9WLzJYRrgfcjApgxfKpCRb3zqXKYgE6m0PWw2KByuXVwa0Z9W/deZwopEoEbjueYgU3wPuLeSXHAcTe0y25pc0BpEcTNj1oBEBXPc8rI/8YfJnOs8hHscMdSjT3k1xxXS5QrlBhkab911fRQDOc4h+xXedOZxo5uRnuFX4lNqZhXiaMFLVOoaXNB79DDWGOugpT5c7Kt6IXJWnaYjWjKEOVVDxIrIpDn6Kepv3e95EAF8mAcbr6tZiOZxoaHVIlBxQHkcB2s9sfbeWAL5Mq32gFWHrpqg7DHXQWZIKXHU9BNzz/8bjKECXaXOVet7GeFDoIrIJtm6KBmOw30UI4GFY3VoshxNNTRVaoxFgchHl8geaKSWNy0OCestVfpWSfo0t8t9iCZ06RuvImE6zqq2PCRqO+uvvOpB3nb1KggQ4nOhKAP1FhG7FazTnaMQpW98pJ4TsQNG9pHG2jdHs8MesSfZuiqaChWNlu+758g0nP9tqyDvNqv4+191in6DR9pDyoX0xQgDNjoddyf08HE40JgTQmgaYVNSBEiWy9X2xT/glR99IM6F1SeNoFeO2z1AHE6m6FluGTMiuh+etWauXRhDA0zRg/PUbzbYxrrpMCC1Clg8oZd7f4XCiOSHk6/lVyQlCbpCh1nJLn6ZJH7qWNPbmER5GHExMNrWwRT5OBOoOux6UJoBPIx8zDo+vMl7zMKlo536esu7tcTgxwLkDpaw0mp2boua4TMGgX9KtpLE1DfFlykhVG/QXEdqWtMj7UcauB00IIe9wcoh8mXM/DweT4nlhhmannH4eDieGiBOBmxI6UJaHBDXHZbstvdhyn+BuoP4azedxgA6Ti6zizEIMl2bv+Z+CDHXHYwy2RoQArgy4t1e03jxiP0/JDl6KjyXc2+NwYpBTkOGm5xf2/+n0fEGYL0zolSZrddLlfuRu4KO/ZHKRdQTwaRwYu0ZzfsvNGGz9pJlco+Hf7sfaM77lrsrmmBQeLMLhxDDrYzGXPYfLCHfc6aR3ULWk8arrYcLkInsJ4KbvY13yvb2irY8J6o6HiG+5tRXGAs2uh5ixuN94moRwnvmWu0qLfbHBIhxODDS78GXPznOIxzFb3+md8jSaiSIljUkmUHc8zCsqmSKF5Gs0B9+MNZr5PkGdkapGOPkZml2Pv8Nzj+MA3QUHExVMtzE+jYrZiOBwYqj+8jIdKF8mAVoztr7TZQgB3A19LPfVDgRBLFBvecadltPbyRZ5H36k98NuupGRqvzxZo7tKcUV+3lwPwww4PqtOgQwXEV4ml4+WITDianyDpTxO06p74cBegs+COjCBHDV8yq77CkvCLu8bErf8fMWed3ir8+Gqwi3A5/PbAMt9gnuLO3nAWSC2XjF3yPKEUB3fvkCUQ4nBhMCeBj6WL4yklBArjiM13wQUDGyDJWUNO7cFLWWC5cx2PQTBy+Vbx4005tHcsWCz2xjTTaxTKeyTLPrYVpR2TS9QL6yfcnkQw4nhjt3oLx0lzpJz3v4vCBMxfKjDFclljSu8hjsouO2SX+rQ4IbjU6pHSYXWWOwiODM7OjnSTOg0faw4L1A9eXJh5caIjmcWCBJBW56/i+7SfwoQ83xsOEePpXkUFJJ4/M2wUfGYNMrzDYxHgu67HlJXyaBLJPkYGKN9nOI/kK95MNLihOBRttlGaVOhIzlX1zgTimHE0u4QYab3s8TPw5+ilqLRV1UvqJLGkerGDd9j6EO9GqDpdqn1A/DQMZz87NtFwF8nqiTfHhpQSxQb3vYnvh7RDeyQNTD5p1/Ow4nFtmcUtz2vv8RuD7KwaTs/X+is8mmmJLG3iLCw4j9PPR27edQJgQp5rbvY7RS799FJcmTD+cVJx9emhtmaDguD0o1JgTQ7LzvsJvDiWVmu28v1M13CRptF0nKX29UIQH0F5eJvz5zZqEcePjRpvcQslthqlCLfLPDC8IEQADXFzilVsXBz9BwPJwYWKK9JBVodn144dv+lhxObCPkqkLnOcRoHeO6x3UXUoO4YEnj5zH38OmChHxTUfX+e5oBdce7yE43meF8Sn309f5Bv3VTNByXGxwGCSJZIPqWEBoOJ5ZKUmDvpvztRmoRwP07SxrvBz76LOqiS8tb5KvqxwljgbrjsjiUviMLRD0EmhaIro8JGs7bfsSS2k5+hmbHQ/bKPy2HE8v89hvw73/8jv/886/4779+x9//9peq/0lE3xACuO697Ueg7OdhDDYVI83OLfLlnu56oSwO3blmrO/Q5XmhPKVOXvsrsGKLfYJ620Oq2b+bXm7npmh2XpfK+T9SQsekAK4D4AAAAABJRU5ErkJggg==;" parent="1" vertex="1">
          <mxGeometry x="-170" y="-481" width="807" height="481" as="geometry" />
        </mxCell>
        <mxCell id="xfuvCziJlvqx6FtmpvHw-2" value="" style="curved=1;endArrow=classic;html=1;rounded=0;strokeWidth=6;" parent="1" source="xfuvCziJlvqx6FtmpvHw-7" edge="1">
          <mxGeometry width="50" height="50" relative="1" as="geometry">
            <mxPoint x="-600" y="360" as="sourcePoint" />
            <mxPoint x="-780" y="500" as="targetPoint" />
            <Array as="points">
              <mxPoint x="-730" y="380" />
              <mxPoint x="-610" y="490" />
            </Array>
          </mxGeometry>
        </mxCell>
        <mxCell id="xfuvCziJlvqx6FtmpvHw-3" value="" style="curved=1;endArrow=classic;html=1;rounded=0;strokeWidth=6;" parent="1" source="xfuvCziJlvqx6FtmpvHw-7" edge="1">
          <mxGeometry width="50" height="50" relative="1" as="geometry">
            <mxPoint x="-605" y="360" as="sourcePoint" />
            <mxPoint x="-350" y="290" as="targetPoint" />
            <Array as="points">
              <mxPoint x="-500" y="140" />
              <mxPoint x="-420" y="340" />
              <mxPoint x="-410" y="510" />
              <mxPoint x="-370" y="400" />
            </Array>
          </mxGeometry>
        </mxCell>
        <mxCell id="xfuvCziJlvqx6FtmpvHw-4" value="" style="endArrow=classic;html=1;rounded=0;strokeWidth=5;" parent="1" source="xfuvCziJlvqx6FtmpvHw-7" edge="1">
          <mxGeometry width="50" height="50" relative="1" as="geometry">
            <mxPoint x="-600" y="360" as="sourcePoint" />
            <mxPoint x="-820" y="360" as="targetPoint" />
          </mxGeometry>
        </mxCell>
        <mxCell id="xfuvCziJlvqx6FtmpvHw-5" value="" style="endArrow=classic;html=1;rounded=0;strokeWidth=5;" parent="1" source="xfuvCziJlvqx6FtmpvHw-7" edge="1">
          <mxGeometry width="50" height="50" relative="1" as="geometry">
            <mxPoint x="-600" y="360" as="sourcePoint" />
            <mxPoint x="-750" y="140" as="targetPoint" />
            <Array as="points">
              <mxPoint x="-750" y="280" />
            </Array>
          </mxGeometry>
        </mxCell>
        <mxCell id="xfuvCziJlvqx6FtmpvHw-7" value="" style="shape=waypoint;sketch=0;fillStyle=solid;size=6;pointerEvents=1;points=[];fillColor=none;resizable=0;rotatable=0;perimeter=centerPerimeter;snapToPoint=1;strokeWidth=0;rotation=-180;" parent="1" vertex="1">
          <mxGeometry x="-600" y="350" width="20" height="20" as="geometry" />
        </mxCell>
        <mxCell id="xfuvCziJlvqx6FtmpvHw-8" value="" style="endArrow=classic;html=1;rounded=0;strokeWidth=5;" parent="1" edge="1">
          <mxGeometry width="50" height="50" relative="1" as="geometry">
            <mxPoint x="100" y="-300" as="sourcePoint" />
            <mxPoint x="330" y="-280" as="targetPoint" />
          </mxGeometry>
        </mxCell>
        <mxCell id="xfuvCziJlvqx6FtmpvHw-11" value="" style="curved=1;endArrow=classic;html=1;rounded=0;strokeWidth=6;" parent="1" edge="1">
          <mxGeometry width="50" height="50" relative="1" as="geometry">
            <mxPoint x="120" y="-160.75" as="sourcePoint" />
            <mxPoint x="490" y="-320.75" as="targetPoint" />
            <Array as="points">
              <mxPoint x="190" y="-260.75" />
              <mxPoint x="320" y="-320.75" />
            </Array>
          </mxGeometry>
        </mxCell>
        <mxCell id="xfuvCziJlvqx6FtmpvHw-13" value="" style="curved=1;endArrow=classic;html=1;rounded=0;strokeWidth=6;" parent="1" edge="1">
          <mxGeometry width="50" height="50" relative="1" as="geometry">
            <mxPoint x="190" y="-390" as="sourcePoint" />
            <mxPoint x="380" y="-70" as="targetPoint" />
            <Array as="points">
              <mxPoint x="230" y="-190" />
              <mxPoint x="420" y="-250" />
            </Array>
          </mxGeometry>
        </mxCell>
        <mxCell id="xfuvCziJlvqx6FtmpvHw-20" value="" style="endArrow=classic;html=1;rounded=0;strokeWidth=5;" parent="1" edge="1">
          <mxGeometry width="50" height="50" relative="1" as="geometry">
            <mxPoint x="360" y="-190" as="sourcePoint" />
            <mxPoint x="240" y="-340" as="targetPoint" />
          </mxGeometry>
        </mxCell>
        <mxCell id="xfuvCziJlvqx6FtmpvHw-22" value="" style="endArrow=classic;html=1;rounded=0;strokeWidth=5;" parent="1" edge="1">
          <mxGeometry width="50" height="50" relative="1" as="geometry">
            <mxPoint x="270" y="-120" as="sourcePoint" />
            <mxPoint x="150" y="-270" as="targetPoint" />
          </mxGeometry>
        </mxCell>
        <mxCell id="xfuvCziJlvqx6FtmpvHw-23" value="" style="endArrow=classic;html=1;rounded=0;strokeWidth=5;" parent="1" edge="1">
          <mxGeometry width="50" height="50" relative="1" as="geometry">
            <mxPoint x="300" y="-150" as="sourcePoint" />
            <mxPoint x="130" y="-350" as="targetPoint" />
          </mxGeometry>
        </mxCell>
        <mxCell id="9SswIJLSVGU9cX4Krc_C-1" value="&lt;font style=&quot;font-size: 31px;&quot;&gt;&lt;span style=&quot;color: rgb(0, 0, 0); font-family: Helvetica; font-style: normal; font-variant-ligatures: normal; font-variant-caps: normal; font-weight: 400; letter-spacing: normal; orphans: 2; text-align: center; text-indent: 0px; text-transform: none; widows: 2; word-spacing: 0px; -webkit-text-stroke-width: 0px; text-decoration-thickness: initial; text-decoration-style: initial; text-decoration-color: initial; float: none; display: inline !important;&quot;&gt;u&lt;/span&gt;&lt;sub style=&quot;border-color: var(--border-color); color: rgb(0, 0, 0); font-family: Helvetica; font-style: normal; font-variant-ligatures: normal; font-variant-caps: normal; font-weight: 400; letter-spacing: normal; orphans: 2; text-align: center; text-indent: 0px; text-transform: none; widows: 2; word-spacing: 0px; -webkit-text-stroke-width: 0px; text-decoration-thickness: initial; text-decoration-style: initial; text-decoration-color: initial;&quot;&gt;1&lt;/sub&gt;&lt;span style=&quot;color: rgb(0, 0, 0); font-family: Helvetica; font-style: normal; font-variant-ligatures: normal; font-variant-caps: normal; font-weight: 400; letter-spacing: normal; orphans: 2; text-align: center; text-indent: 0px; text-transform: none; widows: 2; word-spacing: 0px; -webkit-text-stroke-width: 0px; text-decoration-thickness: initial; text-decoration-style: initial; text-decoration-color: initial; float: none; display: inline !important;&quot;&gt;(k)&lt;/span&gt;&lt;/font&gt;" style="text;whiteSpace=wrap;html=1;fillColor=none;labelBackgroundColor=none;" parent="1" vertex="1">
          <mxGeometry x="470" y="-380" width="90" height="60" as="geometry" />
        </mxCell>
        <mxCell id="9SswIJLSVGU9cX4Krc_C-2" value="&lt;font style=&quot;font-size: 31px;&quot;&gt;&lt;span style=&quot;color: rgb(0, 0, 0); font-family: Helvetica; font-style: normal; font-variant-ligatures: normal; font-variant-caps: normal; font-weight: 400; letter-spacing: normal; orphans: 2; text-align: center; text-indent: 0px; text-transform: none; widows: 2; word-spacing: 0px; -webkit-text-stroke-width: 0px; text-decoration-thickness: initial; text-decoration-style: initial; text-decoration-color: initial; float: none; display: inline !important;&quot;&gt;u&lt;/span&gt;&lt;sub style=&quot;border-color: var(--border-color); color: rgb(0, 0, 0); font-family: Helvetica; font-style: normal; font-variant-ligatures: normal; font-variant-caps: normal; font-weight: 400; letter-spacing: normal; orphans: 2; text-align: center; text-indent: 0px; text-transform: none; widows: 2; word-spacing: 0px; -webkit-text-stroke-width: 0px; text-decoration-thickness: initial; text-decoration-style: initial; text-decoration-color: initial;&quot;&gt;3&lt;/sub&gt;&lt;span style=&quot;color: rgb(0, 0, 0); font-family: Helvetica; font-style: normal; font-variant-ligatures: normal; font-variant-caps: normal; font-weight: 400; letter-spacing: normal; orphans: 2; text-align: center; text-indent: 0px; text-transform: none; widows: 2; word-spacing: 0px; -webkit-text-stroke-width: 0px; text-decoration-thickness: initial; text-decoration-style: initial; text-decoration-color: initial; float: none; display: inline !important;&quot;&gt;(k)&lt;/span&gt;&lt;/font&gt;" style="text;whiteSpace=wrap;html=1;fillColor=none;strokeWidth=31;" parent="1" vertex="1">
          <mxGeometry x="399" y="-100" width="90" height="60" as="geometry" />
        </mxCell>
        <mxCell id="9SswIJLSVGU9cX4Krc_C-3" value="&lt;font style=&quot;font-size: 31px;&quot;&gt;&lt;span style=&quot;color: rgb(0, 0, 0); font-family: Helvetica; font-style: normal; font-variant-ligatures: normal; font-variant-caps: normal; font-weight: 400; letter-spacing: normal; orphans: 2; text-align: center; text-indent: 0px; text-transform: none; widows: 2; word-spacing: 0px; -webkit-text-stroke-width: 0px; text-decoration-thickness: initial; text-decoration-style: initial; text-decoration-color: initial; float: none; display: inline !important;&quot;&gt;u&lt;/span&gt;&lt;sub style=&quot;border-color: var(--border-color); color: rgb(0, 0, 0); font-family: Helvetica; font-style: normal; font-variant-ligatures: normal; font-variant-caps: normal; font-weight: 400; letter-spacing: normal; orphans: 2; text-align: center; text-indent: 0px; text-transform: none; widows: 2; word-spacing: 0px; -webkit-text-stroke-width: 0px; text-decoration-thickness: initial; text-decoration-style: initial; text-decoration-color: initial;&quot;&gt;4&lt;/sub&gt;&lt;span style=&quot;color: rgb(0, 0, 0); font-family: Helvetica; font-style: normal; font-variant-ligatures: normal; font-variant-caps: normal; font-weight: 400; letter-spacing: normal; orphans: 2; text-align: center; text-indent: 0px; text-transform: none; widows: 2; word-spacing: 0px; -webkit-text-stroke-width: 0px; text-decoration-thickness: initial; text-decoration-style: initial; text-decoration-color: initial; float: none; display: inline !important;&quot;&gt;(k)&lt;/span&gt;&lt;/font&gt;" style="text;whiteSpace=wrap;html=1;labelBackgroundColor=none;strokeWidth=31;" parent="1" vertex="1">
          <mxGeometry x="80" y="-280" width="90" height="60" as="geometry" />
        </mxCell>
        <mxCell id="9SswIJLSVGU9cX4Krc_C-4" value="&lt;font style=&quot;font-size: 31px;&quot;&gt;&lt;span style=&quot;color: rgb(0, 0, 0); font-family: Helvetica; font-style: normal; font-variant-ligatures: normal; font-variant-caps: normal; font-weight: 400; letter-spacing: normal; orphans: 2; text-align: center; text-indent: 0px; text-transform: none; widows: 2; word-spacing: 0px; -webkit-text-stroke-width: 0px; text-decoration-thickness: initial; text-decoration-style: initial; text-decoration-color: initial; float: none; display: inline !important;&quot;&gt;u&lt;/span&gt;&lt;sub style=&quot;border-color: var(--border-color); color: rgb(0, 0, 0); font-family: Helvetica; font-style: normal; font-variant-ligatures: normal; font-variant-caps: normal; font-weight: 400; letter-spacing: normal; orphans: 2; text-align: center; text-indent: 0px; text-transform: none; widows: 2; word-spacing: 0px; -webkit-text-stroke-width: 0px; text-decoration-thickness: initial; text-decoration-style: initial; text-decoration-color: initial;&quot;&gt;5&lt;/sub&gt;&lt;span style=&quot;color: rgb(0, 0, 0); font-family: Helvetica; font-style: normal; font-variant-ligatures: normal; font-variant-caps: normal; font-weight: 400; letter-spacing: normal; orphans: 2; text-align: center; text-indent: 0px; text-transform: none; widows: 2; word-spacing: 0px; -webkit-text-stroke-width: 0px; text-decoration-thickness: initial; text-decoration-style: initial; text-decoration-color: initial; float: none; display: inline !important;&quot;&gt;(k)&lt;/span&gt;&lt;/font&gt;" style="text;whiteSpace=wrap;html=1;labelBackgroundColor=none;strokeWidth=31;" parent="1" vertex="1">
          <mxGeometry x="90" y="-400" width="90" height="60" as="geometry" />
        </mxCell>
        <mxCell id="9SswIJLSVGU9cX4Krc_C-5" value="&lt;font style=&quot;font-size: 31px;&quot;&gt;&lt;span style=&quot;color: rgb(0, 0, 0); font-family: Helvetica; font-style: normal; font-variant-ligatures: normal; font-variant-caps: normal; font-weight: 400; letter-spacing: normal; orphans: 2; text-align: center; text-indent: 0px; text-transform: none; widows: 2; word-spacing: 0px; -webkit-text-stroke-width: 0px; text-decoration-thickness: initial; text-decoration-style: initial; text-decoration-color: initial; float: none; display: inline !important;&quot;&gt;u&lt;/span&gt;&lt;sub style=&quot;border-color: var(--border-color); color: rgb(0, 0, 0); font-family: Helvetica; font-style: normal; font-variant-ligatures: normal; font-variant-caps: normal; font-weight: 400; letter-spacing: normal; orphans: 2; text-align: center; text-indent: 0px; text-transform: none; widows: 2; word-spacing: 0px; -webkit-text-stroke-width: 0px; text-decoration-thickness: initial; text-decoration-style: initial; text-decoration-color: initial;&quot;&gt;6&lt;/sub&gt;&lt;span style=&quot;color: rgb(0, 0, 0); font-family: Helvetica; font-style: normal; font-variant-ligatures: normal; font-variant-caps: normal; font-weight: 400; letter-spacing: normal; orphans: 2; text-align: center; text-indent: 0px; text-transform: none; widows: 2; word-spacing: 0px; -webkit-text-stroke-width: 0px; text-decoration-thickness: initial; text-decoration-style: initial; text-decoration-color: initial; float: none; display: inline !important;&quot;&gt;(k)&lt;/span&gt;&lt;/font&gt;" style="text;whiteSpace=wrap;html=1;labelBackgroundColor=none;strokeWidth=31;" parent="1" vertex="1">
          <mxGeometry x="220" y="-390" width="90" height="60" as="geometry" />
        </mxCell>
        <mxCell id="9SswIJLSVGU9cX4Krc_C-6" value="&lt;font style=&quot;font-size: 31px;&quot;&gt;&lt;span style=&quot;color: rgb(0, 0, 0); font-family: Helvetica; font-style: normal; font-variant-ligatures: normal; font-variant-caps: normal; font-weight: 400; letter-spacing: normal; orphans: 2; text-align: center; text-indent: 0px; text-transform: none; widows: 2; word-spacing: 0px; -webkit-text-stroke-width: 0px; text-decoration-thickness: initial; text-decoration-style: initial; text-decoration-color: initial; float: none; display: inline !important;&quot;&gt;u&lt;/span&gt;&lt;sub style=&quot;border-color: var(--border-color); color: rgb(0, 0, 0); font-family: Helvetica; font-style: normal; font-variant-ligatures: normal; font-variant-caps: normal; font-weight: 400; letter-spacing: normal; orphans: 2; text-align: center; text-indent: 0px; text-transform: none; widows: 2; word-spacing: 0px; -webkit-text-stroke-width: 0px; text-decoration-thickness: initial; text-decoration-style: initial; text-decoration-color: initial;&quot;&gt;2&lt;/sub&gt;&lt;span style=&quot;color: rgb(0, 0, 0); font-family: Helvetica; font-style: normal; font-variant-ligatures: normal; font-variant-caps: normal; font-weight: 400; letter-spacing: normal; orphans: 2; text-align: center; text-indent: 0px; text-transform: none; widows: 2; word-spacing: 0px; -webkit-text-stroke-width: 0px; text-decoration-thickness: initial; text-decoration-style: initial; text-decoration-color: initial; float: none; display: inline !important;&quot;&gt;(k)&lt;/span&gt;&lt;/font&gt;" style="text;whiteSpace=wrap;html=1;fillColor=none;labelBackgroundColor=none;strokeWidth=32;" parent="1" vertex="1">
          <mxGeometry x="335" y="-300" width="90" height="60" as="geometry" />
        </mxCell>
      </root>
    </mxGraphModel>
  </diagram>
</mxfile>
